<svg xmlns="http://www.w3.org/2000/svg" version="1.1" xmlns:xlink="http://www.w3.org/1999/xlink" xmlns:svgjs="http://svgjs.dev/svgjs" viewBox="0 0 1422 800"><defs><filter id="llleaves-blur-2" x="-100%" y="-100%" width="400%" height="400%"><feGaussianBlur in="SourceGraphic" stdDeviation="2"></feGaussianBlur></filter><filter id="llleaves-blur-3" x="-100%" y="-100%" width="400%" height="400%"><feGaussianBlur in="SourceGraphic" stdDeviation="4"></feGaussianBlur></filter><filter id="llleaves-blur-4" x="-100%" y="-100%" width="400%" height="400%"><feGaussianBlur in="SourceGraphic" stdDeviation="12"></feGaussianBlur></filter></defs><g fill="hsl(216, 79%, 36%)"><path d="M566 512H616C644 512 666 534 666 562H616C588 562 566 540 566 512Z " transform="matrix(-0.3814299254446588,-0.13882913932023253,0.13882913932023253,-0.3814299254446588,776.409586258945,827.346619785045)"></path><path d="M1241 739H1291C1319 739 1341 761 1341 789H1291C1263 789 1241 767 1241 739Z " transform="matrix(0.05539304014068267,0.20672964019073004,-0.20672964019073004,0.05539304014068267,1377.4290302840964,454.791751846286)" filter="url(#llleaves-blur-3)"></path><path d="M251 113H301C329 113 351 135 351 163H301C273 163 251 141 251 113Z " transform="matrix(-0.09657555862223553,0.2515879316834809,-0.2515879316834809,-0.09657555862223553,364.78837771761323,75.59945965314074)" filter="url(#llleaves-blur-3)"></path><path d="M711 174H761C789 174 811 196 811 224H761C733 224 711 202 711 174Z " transform="matrix(-0.29698510163805925,0.1513214674052808,-0.1513214674052808,-0.29698510163805925,1017.118634360214,142.9443985305551)" filter="url(#llleaves-blur-2)"></path><path d="M1076 733H1126C1154 733 1176 755 1176 783H1126C1098 783 1076 761 1076 733Z " transform="matrix(0.012194010528818142,0.23267558167197533,-0.23267558167197533,0.012194010528818142,1288.637635051908,486.76423505651167)" filter="url(#llleaves-blur-3)"></path><path d="M588 18H638C666 18 688 40 688 68H638C610 68 588 46 588 18Z " transform="matrix(0.020034788008280076,0.2289986748093771,-0.2289986748093771,0.020034788008280076,635.0647482675205,-103.96265041273861)" filter="url(#llleaves-blur-3)"></path><path d="M818 735H868C896 735 918 757 918 785H868C840 785 818 763 818 735Z " transform="matrix(-0.18178256301893453,0.23267107041469628,-0.23267107041469628,-0.18178256301893453,1202.6172782156043,696.1962587744339)" filter="url(#llleaves-blur-3)"></path><path d="M896 95H946C974 95 996 117 996 145H946C918 145 896 123 896 95Z " transform="matrix(-0.03022081643633161,0.2461287983937135,-0.2461287983937135,-0.03022081643633161,1004.1243481560152,-109.21134530809317)" filter="url(#llleaves-blur-3)"></path><path d="M935 507H985C1013 507 1035 529 1035 557H985C957 557 935 535 935 507Z " transform="matrix(-0.10161752781186052,0.25151220716380074,-0.25151220716380074,-0.10161752781186052,1218.8977591058247,338.3210007395661)" filter="url(#llleaves-blur-3)"></path><path d="M1170 564H1220C1248 564 1270 586 1270 614H1220C1192 614 1170 592 1170 564Z " transform="matrix(0.05556878740123901,0.2073855378964173,-0.2073855378964173,0.05556878740123901,1274.3561611914781,303.2596279870411)" filter="url(#llleaves-blur-3)"></path><path d="M953 403H1003C1031 403 1053 425 1053 453H1003C975 453 953 431 953 403Z " transform="matrix(-0.10161752781186052,0.25151220716380074,-0.25151220716380074,-0.10161752781186052,1212.5696050614029,219.22555811818415)" filter="url(#llleaves-blur-3)"></path><path d="M154 113H204C232 113 254 135 254 163H204C176 163 154 141 154 113Z " transform="matrix(0.012168088692365568,0.23218096356742682,-0.23218096356742682,0.012168088692365568,233.55868287906233,88.95588719269847)" filter="url(#llleaves-blur-3)"></path><path d="M-2 285H48C76 285 98 307 98 335H48C20 335 -2 313 -2 285Z " transform="matrix(-0.33013416413742275,0.10726709232763587,-0.10726709232763587,-0.33013416413742275,97.09923850016341,407.1927704508745)" filter="url(#llleaves-blur-2)"></path><path d="M539 108H589C617 108 639 130 639 158H589C561 158 539 136 539 108Z " transform="matrix(-0.30920293852875275,0.13766601781469281,-0.13766601781469281,-0.30920293852875275,789.4301111627896,93.03870633147005)" filter="url(#llleaves-blur-2)"></path><path d="M417 497H467C495 497 517 519 517 547H467C439 547 417 525 417 497Z " transform="matrix(-0.3510804606068429,-0.24582918503504828,0.24582918503504828,-0.3510804606068429,502.63174051510043,820.0662298481396)"></path><path d="M870 658H920C948 658 970 680 970 708H920C892 708 870 686 870 658Z " transform="matrix(-0.14137138682259853,0.24486242471321404,-0.24486242471321404,-0.14137138682259853,1217.3027119559158,554.2832264636779)" filter="url(#llleaves-blur-3)"></path><path d="M256 405H306C334 405 356 427 356 455H306C278 455 256 433 256 405Z " transform="matrix(-0.2722733442540651,0.1768163771838696,-0.1768163771838696,-0.2722733442540651,465.34668553080786,492.9717266109839)" filter="url(#llleaves-blur-2)"></path><path d="M1104 429H1154C1182 429 1204 451 1204 479H1154C1126 479 1104 457 1104 429Z " transform="matrix(0.012194010528818142,0.23267558167197533,-0.23267558167197533,0.012194010528818142,1245.5628259288208,179.95629797045706)" filter="url(#llleaves-blur-3)"></path><path d="M805 411H855C883 411 905 433 905 461H855C827 461 805 439 805 411Z " transform="matrix(-0.20652592499248731,0.22147193977084803,-0.22147193977084803,-0.20652592499248731,1128.1414316086662,336.6867947926494)" filter="url(#llleaves-blur-2)"></path><path d="M1331 567H1381C1409 567 1431 589 1431 617H1381C1353 617 1331 595 1331 567Z " transform="matrix(0.012212710081571826,0.23303239039406776,-0.23303239039406776,0.012212710081571826,1502.0894224906374,262.95234449750194)" filter="url(#llleaves-blur-3)"></path><path d="M97 498H147C175 498 197 520 197 548H147C119 548 97 526 97 498Z " transform="matrix(-0.13188077986916935,0.24803167297046075,-0.24803167297046075,-0.13188077986916935,296.10703960431886,555.5129919449179)" filter="url(#llleaves-blur-3)"></path><path d="M928 316H978C1006 316 1028 338 1028 366H978C950 366 928 344 928 316Z " transform="matrix(-0.10161752781186052,0.25151220716380074,-0.25151220716380074,-0.10161752781186052,1163.1476048428556,129.67263837764727)" filter="url(#llleaves-blur-3)"></path><path d="M354 123H404C432 123 454 145 454 173H404C376 173 354 151 354 123Z " transform="matrix(-0.3591068320700132,0.05046917392645128,-0.05046917392645128,-0.3591068320700132,556.5485978974001,180.75826488007564)" filter="url(#llleaves-blur-2)"></path><path d="M481 555H531C559 555 581 577 581 605H531C503 605 481 583 481 555Z " transform="matrix(-0.3337200863426261,-0.2800244013665476,0.2800244013665476,-0.3337200863426261,545.7912130553369,922.25060720436)"></path><path d="M874 181H924C952 181 974 203 974 231H924C896 231 874 209 874 181Z " transform="matrix(-0.14137138682259853,0.24486242471321404,-0.24486242471321404,-0.14137138682259853,1105.068820915003,8.869625250445552)" filter="url(#llleaves-blur-3)"></path><path d="M1155 293H1205C1233 293 1255 315 1255 343H1205C1177 343 1155 321 1155 293Z " transform="matrix(0.045525164779233886,0.21417906095935166,-0.21417906095935166,0.045525164779233886,1218.251117826097,45.43722914418487)" filter="url(#llleaves-blur-3)"></path><path d="M1069 269H1119C1147 269 1169 291 1169 319H1119C1091 319 1069 297 1069 269Z " transform="matrix(-0.01263567075765598,0.24110296086796498,-0.24110296086796498,-0.01263567075765598,1204.0235860729988,27.920673991498063)" filter="url(#llleaves-blur-3)"></path><path d="M1193 653H1243C1271 653 1293 675 1293 703H1243C1215 703 1193 681 1193 653Z " transform="matrix(0.05556878740123901,0.2073855378964173,-0.2073855378964173,0.05556878740123901,1314.5353919540307,382.54413853671326)" filter="url(#llleaves-blur-3)"></path><path d="M625 655H675C703 655 725 677 725 705H675C647 705 625 683 625 655Z " transform="matrix(-0.3753606439239776,4.596842111073886e-17,-4.596842111073886e-17,-0.3753606439239776,928.3684346486848,935.2452378683049)" filter="url(#llleaves-blur-2)"></path><path d="M959 155H1009C1037 155 1059 177 1059 205H1009C981 205 959 183 959 155Z " transform="matrix(-0.08187114018544929,0.2519734603185247,-0.2519734603185247,-0.08187114018544929,1136.9632033044527,-59.50441622801054)" filter="url(#llleaves-blur-3)"></path><path d="M575 302H625C653 302 675 324 675 352H625C597 352 575 330 575 302Z " transform="matrix(-0.38484471663519887,-0.06785850692588943,0.06785850692588943,-0.38484471663519887,843.3382161322336,495.2557891683909)" filter="url(#llleaves-blur-2)"></path><path d="M194 20H244C272 20 294 42 294 70H244C216 70 194 48 194 20Z " transform="matrix(0.08441241085749683,0.18102299926079815,-0.18102299926079815,0.08441241085749683,231.54940671750668,-2.968170308222099)" filter="url(#llleaves-blur-4)"></path><path d="M1188 75H1238C1266 75 1288 97 1288 125H1238C1210 125 1188 103 1188 75Z " transform="matrix(0.09127906294787576,0.17167094941808367,-0.17167094941808367,0.09127906294787576,1142.1636150123381,-121.65654167437512)" filter="url(#llleaves-blur-4)"></path><path d="M750 475H800C828 475 850 497 850 525H800C772 525 750 503 750 475Z " transform="matrix(-0.23517024068303616,0.20443037135481337,-0.20443037135481337,-0.23517024068303616,1090.3513782238356,454.0408232576674)" filter="url(#llleaves-blur-2)"></path><path d="M484 264H534C562 264 584 286 584 314H534C506 314 484 292 484 264Z " transform="matrix(-0.3478518451953958,-0.25272915897959225,0.25272915897959225,-0.3478518451953958,646.7141583892392,524.4865541565716)"></path><path d="M643 88H693C721 88 743 110 743 138H693C665 138 643 116 643 88Z " transform="matrix(-0.03470025207783824,0.24690512299375011,-0.24690512299375011,-0.03470025207783824,744.9475535882357,-54.18412174987313)" filter="url(#llleaves-blur-3)"></path><path d="M1123 112H1173C1201 112 1223 134 1223 162H1173C1145 162 1123 140 1123 112Z " transform="matrix(0.06778791638012,0.19687040412612353,-0.19687040412612353,0.06778791638012,1120.456019451398,-103.21592858401934)" filter="url(#llleaves-blur-3)"></path><path d="M861 263H911C939 263 961 285 961 313H911C883 313 861 291 861 263Z " transform="matrix(-0.15722534130877733,0.2421057945051758,-0.2421057945051758,-0.15722534130877733,1123.9587547497867,112.72251950271271)" filter="url(#llleaves-blur-3)"></path><path d="M620 163H670C698 163 720 185 720 213H670C642 213 620 191 620 163Z " transform="matrix(-0.3753606439239776,4.596842111073886e-17,-4.596842111073886e-17,-0.3753606439239776,921.491631429065,258.5678010577077)" filter="url(#llleaves-blur-2)"></path><path d="M1090 30H1140C1168 30 1190 52 1190 80H1140C1112 80 1090 58 1090 30Z " transform="matrix(0.023866443499640976,0.22707404168169582,-0.22707404168169582,0.023866443499640976,1125.2813267029026,-205.17706190961349)" filter="url(#llleaves-blur-3)"></path><path d="M360 564H410C438 564 460 586 460 614H410C382 614 360 592 360 564Z " transform="matrix(-0.3850831491377557,-0.09601201250307924,0.09601201250307924,-0.3850831491377557,511.33301578216617,855.1788999684005)" filter="url(#llleaves-blur-2)"></path><path d="M88 418H138C166 418 188 440 188 468H138C110 468 88 446 88 418Z " transform="matrix(-0.13188077986916935,0.24803167297046075,-0.24803167297046075,-0.13188077986916935,266.0775787478595,467.1948146121184)" filter="url(#llleaves-blur-3)"></path><path d="M994 738H1044C1072 738 1094 760 1094 788H1044C1016 788 994 766 994 738Z " transform="matrix(-0.05800086030346725,0.2512293270921942,-0.2512293270921942,-0.05800086030346725,1296.240874728164,544.9712389272947)" filter="url(#llleaves-blur-3)"></path><path d="M184 459H234C262 459 284 481 284 509H234C206 509 184 487 184 459Z " transform="matrix(-0.1063146576170828,0.25046163766894686,-0.25046163766894686,-0.1063146576170828,380.10106251416767,476.8482710721345)" filter="url(#llleaves-blur-3)"></path><path d="M540 627H590C618 627 640 649 640 677H590C562 677 540 655 540 627Z " transform="matrix(-0.36692448877192807,-0.20338956532595956,0.20338956532595956,-0.36692448877192807,673.8754517829119,1011.2346102216133)"></path><path d="M259 720H309C337 720 359 742 359 770H309C281 770 259 748 259 720Z " transform="matrix(-0.2722733442540651,0.1768163771838696,-0.1768163771838696,-0.2722733442540651,524.860664376489,893.2073809194628)" filter="url(#llleaves-blur-2)"></path><path d="M1338 278H1388C1416 278 1438 300 1438 328H1388C1360 328 1338 306 1338 278Z " transform="matrix(0.012212710081571826,0.23303239039406776,-0.23303239039406776,0.012212710081571826,1441.6575726961808,-24.14940902168229)" filter="url(#llleaves-blur-3)"></path><path d="M333 457H383C411 457 433 479 433 507H383C355 507 333 485 333 457Z " transform="matrix(-0.37416246265020153,0.006531030079261027,-0.006531030079261027,-0.37416246265020153,529.452179693231,659.8449224770402)" filter="url(#llleaves-blur-2)"></path><path d="M415 405H465C493 405 515 427 515 455H465C437 455 415 433 415 405Z " transform="matrix(-0.3510804606068429,-0.24582918503504828,0.24582918503504828,-0.3510804606068429,522.5458646171112,695.2751691022399)"></path><path d="M1030 392H1080C1108 392 1130 414 1130 442H1080C1052 442 1030 420 1030 392Z " transform="matrix(-0.034780297529215964,0.24747467597489775,-0.24747467597489775,-0.034780297529215964,1220.7596612130856,164.23073401679352)" filter="url(#llleaves-blur-3)"></path><path d="M700 541H750C778 541 800 563 800 591H750C722 591 700 569 700 541Z " transform="matrix(-0.29698510163805925,0.1513214674052808,-0.1513214674052808,-0.29698510163805925,1058.3867767799334,620.6024669731809)" filter="url(#llleaves-blur-2)"></path><path d="M1253 418H1303C1331 418 1353 440 1353 468H1303C1275 468 1253 446 1253 418Z " transform="matrix(0.05539304014068267,0.20672964019073004,-0.20672964019073004,0.05539304014068267,1322.4040993011838,149.09216204915634)" filter="url(#llleaves-blur-3)"></path><path d="M1338 191H1388C1416 191 1438 213 1438 241H1388C1360 241 1338 219 1338 191Z " transform="matrix(0.012212710081571826,0.23303239039406776,-0.23303239039406776,0.012212710081571826,1421.383754731897,-110.08690324458553)" filter="url(#llleaves-blur-3)"></path><path d="M67 658H117C145 658 167 680 167 708H117C89 708 67 686 67 658Z " transform="matrix(-0.1916102876033872,0.22835224862934647,-0.22835224862934647,-0.1916102876033872,295.3829894634399,787.15261334348)" filter="url(#llleaves-blur-3)"></path><path d="M809 119H859C887 119 909 141 909 169H859C831 169 809 147 809 119Z " transform="matrix(-0.034666472113962406,0.2466647660615648,-0.2466647660615648,-0.034666472113962406,924.298225858759,-62.89306206247355)" filter="url(#llleaves-blur-3)"></path><path d="M784 217H834C862 217 884 239 884 267H834C806 267 784 245 784 217Z " transform="matrix(-0.20652592499248731,0.22147193977084803,-0.22147193977084803,-0.20652592499248731,1059.8388308682797,107.27167607929468)" filter="url(#llleaves-blur-2)"></path><path d="M1242 325H1292C1320 325 1342 347 1342 375H1292C1264 375 1242 353 1242 325Z " transform="matrix(0.05539304014068267,0.20672964019073004,-0.20672964019073004,0.05539304014068267,1292.7875662049935,63.51774082433781)" filter="url(#llleaves-blur-3)"></path><path d="M85 167H135C163 167 185 189 185 217H135C107 217 85 195 85 167Z " transform="matrix(-0.13188077986916935,0.24803167297046075,-0.24803167297046075,-0.13188077986916935,200.4259864926663,183.8368338838683)" filter="url(#llleaves-blur-3)"></path><path d="M576 730H626C654 730 676 752 676 780H626C598 780 576 758 576 730Z " transform="matrix(-0.38484471663519887,-0.06785850692588943,0.06785850692588943,-0.38484471663519887,815.6796198845881,1088.037186395182)" filter="url(#llleaves-blur-2)"></path><path d="M949 598H999C1027 598 1049 620 1049 648H999C971 648 949 626 949 598Z " transform="matrix(-0.10161752781186052,0.25151220716380074,-0.25151220716380074,-0.10161752781186052,1257.2080153470965,435.04702487015214)" filter="url(#llleaves-blur-3)"></path><path d="M1192 154H1242C1270 154 1292 176 1292 204H1242C1214 204 1192 182 1192 154Z " transform="matrix(0.05556878740123901,0.2073855378964173,-0.2073855378964173,0.05556878740123901,1210.1055773311198,-88.51965101217206)" filter="url(#llleaves-blur-3)"></path><path d="M441 636H491C519 636 541 658 541 686H491C463 686 441 664 441 636Z " transform="matrix(-0.33350820423522376,-0.27984661116837317,0.27984661116837317,-0.33350820423522376,469.77391829720017,1018.8536090831542)"></path><path d="M659 733H709C737 733 759 755 759 783H709C681 783 659 761 659 733Z " transform="matrix(-0.3548819456602639,0.06257526198621984,-0.06257526198621984,-0.3548819456602639,1008.0433480586817,982.6346540622501)" filter="url(#llleaves-blur-2)"></path><path d="M1119 201H1169C1197 201 1219 223 1219 251H1169C1141 251 1119 229 1119 201Z " transform="matrix(0.0313519689171454,0.2230808503701868,-0.2230808503701868,0.0313519689171454,1182.7658205195194,-41.867059058023244)" filter="url(#llleaves-blur-3)"></path><path d="M648 353H698C726 353 748 375 748 403H698C670 403 648 381 648 353Z " transform="matrix(-0.3548819456602639,0.06257526198621984,-0.06257526198621984,-0.3548819456602639,969.3610471016555,468.4678425931982)" filter="url(#llleaves-blur-2)"></path><path d="M163 649H213C241 649 263 671 263 699H213C185 699 163 677 163 649Z " transform="matrix(-0.1063146576170828,0.25046163766894686,-0.25046163766894686,-0.1063146576170828,404.4561658613088,692.3077504104281)" filter="url(#llleaves-blur-3)"></path><path d="M1337 105H1387C1415 105 1437 127 1437 155H1387C1359 155 1337 133 1337 105Z " transform="matrix(0.06489343356750309,0.1997214521614802,-0.1997214521614802,0.06489343356750309,1322.9565964228657,-155.44980051174844)" filter="url(#llleaves-blur-3)"></path><path d="M869 576H919C947 576 969 598 969 626H919C891 626 869 604 869 576Z " transform="matrix(-0.14137138682259853,0.24486242471321404,-0.24486242471321404,-0.14137138682259853,1196.0826217426095,460.935635168938)" filter="url(#llleaves-blur-3)"></path><path d="M339 736H389C417 736 439 758 439 786H389C361 786 339 764 339 736Z " transform="matrix(-0.3850831491377557,-0.09601201250307924,0.09601201250307924,-0.3850831491377557,465.7322034997437,1091.39694935753)" filter="url(#llleaves-blur-2)"></path><path d="M1016 471H1066C1094 471 1116 493 1116 521H1066C1038 521 1016 499 1016 471Z " transform="matrix(-0.05800086030346725,0.2512293270921942,-0.2512293270921942,-0.05800086030346725,1252.4386633212243,256.9579640302407)" filter="url(#llleaves-blur-3)"></path><path d="M1270 671H1320C1348 671 1370 693 1370 721H1320C1292 721 1270 699 1270 671Z " transform="matrix(0.04900037747809377,0.21224395287717993,-0.21224395287717993,0.04900037747809377,1403.0412929314334,381.7337194773692)" filter="url(#llleaves-blur-3)"></path><path d="M194 210H244C272 210 294 232 294 260H244C216 260 194 238 194 210Z " transform="matrix(-0.14202862242772613,0.2460007901738383,-0.2460007901738383,-0.14202862242772613,336.46516956321716,208.3525334680991)" filter="url(#llleaves-blur-3)"></path><path d="M988 80H1038C1066 80 1088 102 1088 130H1038C1010 130 988 108 988 80Z " transform="matrix(0.008163867366754993,0.2337825736825245,-0.2337825736825245,0.008163867366754993,1054.0730759099733,-138.52351755596973)" filter="url(#llleaves-blur-3)"></path><path d="M-4 195H46C74 195 96 217 96 245H46C18 245 -4 223 -4 195Z " transform="matrix(-0.33013416413742275,0.10726709232763587,-0.10726709232763587,-0.33013416413742275,84.78493186240135,287.6952298631617)" filter="url(#llleaves-blur-2)"></path><path d="M446 93H496C524 93 546 115 546 143H496C468 143 446 121 446 93Z " transform="matrix(-0.27600749435305677,0.17246862411851194,-0.17246862411851194,-0.27600749435305677,653.2510148451006,65.02444677087877)" filter="url(#llleaves-blur-2)"></path><path d="M1253 591H1303C1331 591 1353 613 1353 641H1303C1275 641 1253 619 1253 591Z " transform="matrix(0.05539304014068267,0.20672964019073004,-0.20672964019073004,0.05539304014068267,1358.1683270541803,312.50916610481823)" filter="url(#llleaves-blur-3)"></path><path d="M780 18H830C858 18 880 40 880 68H830C802 68 780 46 780 18Z " transform="matrix(0.05553629434339709,0.207264272153658,-0.207264272153658,0.05553629434339709,792.8172393975877,-131.41740654430222)" filter="url(#llleaves-blur-3)"></path><path d="M295 24H345C373 24 395 46 395 74H345C317 74 295 52 295 24Z " transform="matrix(0.016094165165143934,0.23015728470712188,-0.23015728470712188,0.016094165165143934,350.7252199686743,-31.192877317049096)" filter="url(#llleaves-blur-3)"></path><path d="M1013 554H1063C1091 554 1113 576 1113 604H1063C1035 604 1013 582 1013 554Z " transform="matrix(-0.05800086030346725,0.2512293270921942,-0.2512293270921942,-0.05800086030346725,1270.116694888966,345.5257234167051)" filter="url(#llleaves-blur-3)"></path><path d="M1051 123H1101C1129 123 1151 145 1151 173H1101C1073 173 1051 151 1051 123Z " transform="matrix(0.03495743260226017,0.22071254304167082,-0.22071254304167082,0.03495743260226017,1095.177323075079,-100.17820991401408)" filter="url(#llleaves-blur-3)"></path><path d="M836 501H886C914 501 936 523 936 551H886C858 551 836 529 836 501Z " transform="matrix(-0.18178256301893453,0.23267107041469628,-0.23267107041469628,-0.18178256301893453,1169.4443338729063,415.47105976053865)" filter="url(#llleaves-blur-3)"></path><path d="M1178 471H1228C1256 471 1278 493 1278 521H1228C1200 521 1178 499 1178 471Z " transform="matrix(0.05556878740123901,0.2073855378964173,-0.2073855378964173,0.05556878740123901,1262.6247558679015,213.76844091218504)" filter="url(#llleaves-blur-3)"></path></g><g fill="none" stroke-width="3" stroke="hsl(216, 79%, 36%)"><path d="M1264 86H1314C1342 86 1364 108 1364 136H1314C1286 136 1264 114 1264 86Z " transform="matrix(0.09765360653504089,0.16252289373379894,-0.16252289373379894,0.09765360653504089,1203.723202217408,-113.39463269160134)" filter="url(#llleaves-blur-4)"></path><path d="M1267 165H1317C1345 165 1367 187 1367 215H1317C1289 215 1267 193 1267 165Z " transform="matrix(0.04900037747809377,0.21224395287717993,-0.21224395287717993,0.04900037747809377,1292.7928539080146,-98.83535766008379)" filter="url(#llleaves-blur-3)"></path><path d="M6 103H56C84 103 106 125 106 153H56C28 153 6 131 6 103Z " transform="matrix(-0.3163736644404673,0.12782325759752045,-0.12782325759752045,-0.3163736644404673,90.07830218114879,161.33772662291867)" filter="url(#llleaves-blur-2)"></path><path d="M1202 234H1252C1280 234 1302 256 1302 284H1252C1224 284 1202 262 1202 234Z " transform="matrix(0.05870440412903136,0.20472658687665785,-0.20472658687665785,0.05870440412903136,1231.526272031507,-12.522127438994744)" filter="url(#llleaves-blur-3)"></path><path d="M1022 11H1072C1100 11 1122 33 1122 61H1072C1044 61 1022 39 1022 11Z " transform="matrix(-0.008389781250919093,0.24025190088957732,-0.24025190088957732,-0.008389781250919093,1089.64291393301,-221.24800562859383)" filter="url(#llleaves-blur-3)"></path><path d="M706 633H756C784 633 806 655 806 683H756C728 683 706 661 706 633Z " transform="matrix(-0.29698510163805925,0.1513214674052808,-0.1513214674052808,-0.29698510163805925,1080.0902623910474,739.0171675194507)" filter="url(#llleaves-blur-2)"></path><path d="M254 294H304C332 294 354 316 354 344H304C276 344 254 322 254 294Z " transform="matrix(-0.2722733442540651,0.1768163771838696,-0.1768163771838696,-0.2722733442540651,443.1755209748901,352.1030181531504)" filter="url(#llleaves-blur-2)"></path><path d="M782 568H832C860 568 882 590 882 618H832C804 618 782 596 782 568Z " transform="matrix(-0.20652592499248731,0.22147193977084803,-0.22147193977084803,-0.20652592499248731,1135.1624298778625,531.2052196311994)" filter="url(#llleaves-blur-2)"></path><path d="M953 238H1003C1031 238 1053 260 1053 288H1003C975 288 953 266 953 238Z " transform="matrix(-0.10161752781186052,0.25151220716380074,-0.25151220716380074,-0.10161752781186052,1171.0700908793756,37.458666029227174)" filter="url(#llleaves-blur-3)"></path><path d="M1331 735H1381C1409 735 1431 757 1431 785H1381C1353 785 1331 763 1331 735Z " transform="matrix(0.012212710081571826,0.23303239039406776,-0.23303239039406776,0.012212710081571826,1541.2388640768406,428.9006092037979)" filter="url(#llleaves-blur-3)"></path><path d="M266 522H316C344 522 366 544 366 572H316C288 572 266 550 266 522Z " transform="matrix(-0.2722733442540651,0.1768163771838696,-0.1768163771838696,-0.2722733442540651,498.7569351038612,640.0595441168708)" filter="url(#llleaves-blur-2)"></path><path d="M1030 202H1080C1108 202 1130 224 1130 252H1080C1052 252 1030 230 1030 202Z " transform="matrix(-0.034780297529215964,0.24747467597489775,-0.24747467597489775,-0.034780297529215964,1173.739472777855,-32.377522513757526)" filter="url(#llleaves-blur-3)"></path><path d="M789 652H839C867 652 889 674 889 702H839C811 702 789 680 789 652Z " transform="matrix(-0.20652592499248731,0.22147193977084803,-0.22147193977084803,-0.20652592499248731,1162.211754293561,631.0030937521724)" filter="url(#llleaves-blur-2)"></path><path d="M347 651H397C425 651 447 673 447 701H397C369 701 347 679 347 651Z " transform="matrix(-0.3850831491377557,-0.09601201250307924,0.09601201250307924,-0.3850831491377557,484.97388975560744,974.4329777808452)" filter="url(#llleaves-blur-2)"></path><path d="M623 569H673C701 569 723 591 723 619H673C645 619 623 597 623 569Z " transform="matrix(-0.3753606439239776,4.596842111073886e-17,-4.596842111073886e-17,-0.3753606439239776,925.6177133608369,816.9642224908428)" filter="url(#llleaves-blur-2)"></path><path d="M1086 586H1136C1164 586 1186 608 1186 636H1136C1108 636 1086 614 1086 586Z " transform="matrix(0.012194010528818142,0.23267558167197533,-0.23267558167197533,0.012194010528818142,1264.3123844408394,339.22999878752813)" filter="url(#llleaves-blur-3)"></path><path d="M687 12H737C765 12 787 34 787 62H737C709 62 687 40 687 12Z " transform="matrix(0.07365470426092716,0.1918770646333972,-0.1918770646333972,0.07365470426092716,689.8159343511325,-107.13862069246807)" filter="url(#llleaves-blur-3)"></path><path d="M-7 723H43C71 723 93 745 93 773H43C15 773 -7 751 -7 723Z " transform="matrix(-0.33013416413742275,0.10726709232763587,-0.10726709232763587,-0.33013416413742275,137.43155411898078,990.3278698047038)" filter="url(#llleaves-blur-2)"></path><path d="M493 17H543C571 17 593 39 593 67H543C515 67 493 45 493 17Z " transform="matrix(-0.0869291678174975,0.25246063476288355,-0.25246063476288355,-0.0869291678174975,600.8058847849422,-91.43509962791089)" filter="url(#llleaves-blur-3)"></path><path d="M368 241H418C446 241 468 263 468 291H418C390 291 368 269 368 241Z " transform="matrix(-0.37342834611461406,-0.182133173894349,0.182133173894349,-0.37342834611461406,525.6456244200119,441.46360675432527)"></path><path d="M115 259H165C193 259 215 281 215 309H165C137 309 115 287 115 259Z " transform="matrix(-0.10130523881030214,0.2507392647615771,-0.2507392647615771,-0.10130523881030214,252.92531559598777,271.3987091364656)" filter="url(#llleaves-blur-3)"></path><path d="M732 90H782C810 90 832 112 832 140H782C754 140 732 118 732 90Z " transform="matrix(0.01616382601674353,0.23115348129700605,-0.23115348129700605,0.01616382601674353,795.9425384040622,-67.62086236618424)" filter="url(#llleaves-blur-3)"></path><path d="M290 201H340C368 201 390 223 390 251H340C312 251 290 229 290 201Z " transform="matrix(-0.3341516137946739,0.10216040059595687,-0.10216040059595687,-0.3341516137946739,476.69979922487545,266.783728514971)" filter="url(#llleaves-blur-2)"></path><path d="M723 387H773C801 387 823 409 823 437H773C745 437 723 415 723 387Z " transform="matrix(-0.2635623642582513,0.18454835424200108,-0.18454835424200108,-0.2635623642582513,1052.7676295193328,377.9318162453327)" filter="url(#llleaves-blur-2)"></path><path d="M1247 10H1297C1325 10 1347 32 1347 60H1297C1269 60 1247 38 1247 10Z " transform="matrix(0.09753883720546683,0.1623318854933857,-0.1623318854933857,0.09753883720546683,1176.173744136778,-178.95831478711258)" filter="url(#llleaves-blur-4)"></path><path d="M-8 392H42C70 392 92 414 92 442H42C14 442 -8 420 -8 392Z " transform="matrix(-0.33013416413742275,0.10726709232763587,-0.10726709232763587,-0.33013416413742275,100.59601239439591,550.1607285675445)" filter="url(#llleaves-blur-2)"></path><path d="M418 316H468C496 316 518 338 518 366H468C440 366 418 344 418 316Z " transform="matrix(-0.3510804606068429,-0.24582918503504828,0.24582918503504828,-0.3510804606068429,548.477903467051,575.7664956633361)"></path><path d="M655 461H705C733 461 755 483 755 511H705C677 511 655 489 655 461Z " transform="matrix(-0.3548819456602639,0.06257526198621984,-0.06257526198621984,-0.3548819456602639,985.6033490157888,614.3570658906032)" filter="url(#llleaves-blur-2)"></path><path d="M1161 8H1211C1239 8 1261 30 1261 58H1211C1183 58 1161 36 1161 8Z " transform="matrix(0.061674130152700846,0.2017269901026932,-0.2017269901026932,0.061674130152700846,1142.9696190584682,-213.3266313094006)" filter="url(#llleaves-blur-3)"></path><path d="M1094 346H1144C1172 346 1194 368 1194 396H1144C1116 396 1094 374 1094 346Z " transform="matrix(0.012194010528818142,0.23267558167197533,-0.23267558167197533,0.012194010528818142,1216.3726927553348,100.29515666106869)" filter="url(#llleaves-blur-3)"></path><path d="M792 318H842C870 318 892 340 892 368H842C814 368 792 346 792 318Z " transform="matrix(-0.20652592499248731,0.22147193977084803,-0.22147193977084803,-0.20652592499248731,1091.859704185075,227.35901898536912)" filter="url(#llleaves-blur-2)"></path><path d="M1331 17H1381C1409 17 1431 39 1431 67H1381C1353 67 1331 45 1331 17Z " transform="matrix(0.09370336353538988,0.16904534264740229,-0.16904534264740229,0.09370336353538988,1258.6955593488174,-195.3871594645489)" filter="url(#llleaves-blur-4)"></path><path d="M867 358H917C945 358 967 380 967 408H917C889 408 867 386 867 358Z " transform="matrix(-0.15722534130877733,0.2421057945051758,-0.2421057945051758,-0.15722534130877733,1153.902157275631,221.2062921600155)" filter="url(#llleaves-blur-3)"></path><path d="M1097 509H1147C1175 509 1197 531 1197 559H1147C1119 559 1097 537 1097 509Z " transform="matrix(0.012194010528818142,0.23267558167197533,-0.23267558167197533,0.012194010528818142,1257.2622305362804,260.60950619985545)" filter="url(#llleaves-blur-3)"></path><path d="M858 20H908C936 20 958 42 958 70H908C880 70 858 48 858 20Z " transform="matrix(0.023817254143718675,0.22660603622218256,-0.22660603622218256,0.023817254143718675,896.5712048675017,-161.83005732620913)" filter="url(#llleaves-blur-3)"></path><path d="M447 180H497C525 180 547 202 547 230H497C469 230 447 208 447 180Z " transform="matrix(-0.33350820423522376,-0.27984661116837317,0.27984661116837317,-0.33350820423522376,605.3850222153897,412.4529476189023)"></path><path d="M74 575H124C152 575 174 597 174 625H124C96 625 74 603 74 575Z " transform="matrix(-0.13188077986916935,0.24803167297046075,-0.24803167297046075,-0.13188077986916935,289.17222048605345,648.3725404731645)" filter="url(#llleaves-blur-3)"></path><path d="M939 14H989C1017 14 1039 36 1039 64H989C961 64 939 42 939 14Z " transform="matrix(-0.012682004157076085,0.24198705479550717,-0.24198705479550717,-0.012682004157076085,1010.9799972483729,-199.83059903063062)" filter="url(#llleaves-blur-3)"></path><path d="M390 20H440C468 20 490 42 490 70H440C412 70 390 48 390 20Z " transform="matrix(-0.09654878031359643,0.2515181718044742,-0.2515181718044742,-0.09654878031359643,493.7997810691838,-61.323300479856826)" filter="url(#llleaves-blur-3)"></path><path d="M547 206H597C625 206 647 228 647 256H597C569 256 547 234 547 206Z " transform="matrix(-0.3814299254446588,-0.13882913932023253,0.13882913932023253,-0.3814299254446588,792.6441343074877,401.991308951895)"></path><path d="M1337 647H1387C1415 647 1437 669 1437 697H1387C1359 697 1337 675 1337 647Z " transform="matrix(0.012212710081571826,0.23303239039406776,-0.23303239039406776,0.012212710081571826,1526.6587374616734,340.57713334861177)" filter="url(#llleaves-blur-3)"></path><path d="M498 454H548C576 454 598 476 598 504H548C520 504 498 482 498 454Z " transform="matrix(-0.3478518451953958,-0.25272915897959225,0.25272915897959225,-0.3478518451953958,617.5655440158523,784.1166129694111)"></path><path d="M1004 314H1054C1082 314 1104 336 1104 364H1054C1026 364 1004 342 1004 314Z " transform="matrix(-0.05800086030346725,0.2512293270921942,-0.2512293270921942,-0.05800086030346725,1200.2996486441084,93.8665808877027)" filter="url(#llleaves-blur-3)"></path><path d="M645 245H695C723 245 745 267 745 295H695C667 295 645 273 645 245Z " transform="matrix(-0.3548819456602639,0.06257526198621984,-0.06257526198621984,-0.3548819456602639,958.5382729701628,322.3283182478485)" filter="url(#llleaves-blur-2)"></path><path d="M886 440H936C964 440 986 462 986 490H936C908 490 886 468 886 440Z " transform="matrix(-0.14137138682259853,0.24486242471321404,-0.24486242471321404,-0.14137138682259853,1182.1846455575967,301.54646534094)" filter="url(#llleaves-blur-3)"></path><path d="M-12 609H38C66 609 88 631 88 659H38C10 659 -12 637 -12 609Z " transform="matrix(-0.33013416413742275,0.10726709232763587,-0.10726709232763587,-0.33013416413742275,118.55243477294323,839.2289105546758)" filter="url(#llleaves-blur-2)"></path><path d="M717 285H767C795 285 817 307 817 335H767C739 335 717 313 717 285Z " transform="matrix(-0.29698510163805925,0.1513214674052808,-0.1513214674052808,-0.29698510163805925,1041.6972278520284,286.001816007948)" filter="url(#llleaves-blur-2)"></path><path d="M172 349H222C250 349 272 371 272 399H222C194 399 172 377 172 349Z " transform="matrix(-0.1063146576170828,0.25046163766894686,-0.25046163766894686,-0.1063146576170828,339.2745064791785,358.15919838628275)" filter="url(#llleaves-blur-3)"></path><path d="M1325 351H1375C1403 351 1425 373 1425 401H1375C1347 401 1325 379 1325 351Z " transform="matrix(0.012212710081571826,0.23303239039406776,-0.23303239039406776,0.012212710081571826,1445.8277024260083,50.98848421748579)" filter="url(#llleaves-blur-3)"></path><path d="M94 30H144C172 30 194 52 194 80H144C116 80 94 58 94 30Z " transform="matrix(-0.008371687984768502,0.2397337775373738,-0.2397337775373738,-0.008371687984768502,158.39088083436224,20.938778873780436)" filter="url(#llleaves-blur-3)"></path><path d="M580 411H630C658 411 680 433 680 461H630C602 461 580 439 580 411Z " transform="matrix(-0.38484471663519887,-0.06785850692588943,0.06785850692588943,-0.38484471663519887,842.8658624604876,646.543155816257)" filter="url(#llleaves-blur-2)"></path><path d="M1116 656H1166C1194 656 1216 678 1216 706H1166C1138 706 1116 684 1116 656Z " transform="matrix(0.0313519689171454,0.2230808503701868,-0.2230808503701868,0.0313519689171454,1281.3616633447057,399.5370376357862)" filter="url(#llleaves-blur-3)"></path><path d="M903 739H953C981 739 1003 761 1003 789H953C925 789 903 767 903 739Z " transform="matrix(-0.12146121337684675,0.2490323923894314,-0.2490323923894314,-0.12146121337684675,1259.0132841336606,619.4684970727828)" filter="url(#llleaves-blur-3)"></path><path d="M259 620H309C337 620 359 642 359 670H309C281 670 259 648 259 620Z " transform="matrix(-0.2722733442540651,0.1768163771838696,-0.1768163771838696,-0.2722733442540651,507.179026658102,765.9800464940563)" filter="url(#llleaves-blur-2)"></path><path d="M-2 17H48C76 17 98 39 98 67H48C20 67 -2 45 -2 17Z " transform="matrix(-0.3050224877458714,0.14223432194538907,-0.14223432194538907,-0.3050224877458714,68.61492093350816,47.983697031947926)" filter="url(#llleaves-blur-2)"></path><path d="M1249 510H1299C1327 510 1349 532 1349 560H1299C1271 560 1249 538 1249 510Z " transform="matrix(0.05539304014068267,0.20672964019073004,-0.20672964019073004,0.05539304014068267,1337.6447983592939,236.82292091697644)" filter="url(#llleaves-blur-3)"></path><path d="M73 334H123C151 334 173 356 173 384H123C95 384 73 362 73 334Z " transform="matrix(-0.13188077986916935,0.24803167297046075,-0.24803167297046075,-0.13188077986916935,228.26470652030324,375.8373041976651)" filter="url(#llleaves-blur-3)"></path><path d="M503 359H553C581 359 603 381 603 409H553C525 409 503 387 503 359Z " transform="matrix(-0.3478518451953958,-0.25272915897959225,0.25272915897959225,-0.3478518451953958,648.3140733448905,657.3343334707465)"></path><path d="M333 347H383C411 347 433 369 433 397H383C355 397 333 375 333 347Z " transform="matrix(-0.37416246265020153,0.006531030079261027,-0.006531030079261027,-0.37416246265020153,528.7337663845123,508.687051585518)" filter="url(#llleaves-blur-2)"></path><path d="M736 728H786C814 728 836 750 836 778H786C758 778 736 756 736 728Z " transform="matrix(-0.2635623642582513,0.18454835424200108,-0.18454835424200108,-0.2635623642582513,1132.1249290512123,806.4074538522503)" filter="url(#llleaves-blur-2)"></path><path d="M1334 421H1384C1412 421 1434 443 1434 471H1384C1356 471 1334 449 1334 421Z " transform="matrix(0.012212710081571826,0.23303239039406776,-0.23303239039406776,0.012212710081571826,1471.0300553628588,118.03630299822919)" filter="url(#llleaves-blur-3)"></path><path d="M88 736H138C166 736 188 758 188 786H138C110 786 88 764 88 736Z " transform="matrix(-0.13188077986916935,0.24803167297046075,-0.24803167297046075,-0.13188077986916935,344.951650752466,827.1329026105143)" filter="url(#llleaves-blur-3)"></path><path d="M1274 248H1324C1352 248 1374 270 1374 298H1324C1296 298 1274 276 1274 248Z " transform="matrix(0.04900037747809377,0.21224395287717993,-0.21224395287717993,0.04900037747809377,1317.0660993544739,-21.38809666090583)" filter="url(#llleaves-blur-3)"></path><path d="M175 559H225C253 559 275 581 275 609H225C197 609 175 587 175 559Z " transform="matrix(-0.1063146576170828,0.25046163766894686,-0.25046163766894686,-0.1063146576170828,395.1903943625086,589.7338915728633)" filter="url(#llleaves-blur-3)"></path><path d="M499 723H549C577 723 599 745 599 773H549C521 773 499 751 499 723Z " transform="matrix(-0.3478518451953958,-0.25272915897959225,0.25272915897959225,-0.3478518451953958,550.9292520955373,1146.9414884859523)"></path><path d="M1176 380H1226C1254 380 1276 402 1276 430H1226C1198 430 1176 408 1176 380Z " transform="matrix(0.05556878740123901,0.2073855378964173,-0.2073855378964173,0.05556878740123901,1241.86380949413,128.23997164149057)" filter="url(#llleaves-blur-3)"></path><path d="M950 675H1000C1028 675 1050 697 1050 725H1000C972 725 950 703 950 675Z " transform="matrix(-0.10161752781186052,0.25151220716380074,-0.25151220716380074,-0.10161752781186052,1277.676072826521,519.6200623045016)" filter="url(#llleaves-blur-3)"></path><path d="M1029 651H1079C1107 651 1129 673 1129 701H1079C1051 701 1029 679 1029 651Z " transform="matrix(-0.034780297529215964,0.24747467597489775,-0.24747467597489775,-0.034780297529215964,1283.820821993055,432.4863057528353)" filter="url(#llleaves-blur-3)"></path><path d="M-3 498H47C75 498 97 520 97 548H47C19 548 -3 526 -3 498Z " transform="matrix(-0.33013416413742275,0.10726709232763587,-0.10726709232763587,-0.33013416413742275,118.61699500181243,690.6186145044732)" filter="url(#llleaves-blur-2)"></path><path d="M420 729H470C498 729 520 751 520 779H470C442 779 420 757 420 729Z " transform="matrix(-0.3510804606068429,-0.24582918503504828,0.24582918503504828,-0.3510804606068429,449.65261096878976,1134.254384264032)"></path><path d="M1329 492H1379C1407 492 1429 514 1429 542H1379C1351 542 1329 520 1329 492Z " transform="matrix(0.012212710081571826,0.23303239039406776,-0.23303239039406776,0.012212710081571826,1482.6364186312455,189.33436253440794)" filter="url(#llleaves-blur-3)"></path><path d="M1159 735H1209C1237 735 1259 757 1259 785H1209C1181 785 1159 763 1159 735Z " transform="matrix(0.045525164779233886,0.21417906095935166,-0.21417906095935166,0.045525164779233886,1316.7361621110135,466.4583900679261)" filter="url(#llleaves-blur-3)"></path><path d="M177 734H227C255 734 277 756 277 784H227C199 784 177 762 177 734Z " transform="matrix(-0.1063146576170828,0.25046163766894686,-0.25046163766894686,-0.1063146576170828,441.2338102698085,782.8380333805148)" filter="url(#llleaves-blur-3)"></path></g></svg>