<svg xmlns="http://www.w3.org/2000/svg" version="1.1" xmlns:xlink="http://www.w3.org/1999/xlink" xmlns:svgjs="http://svgjs.dev/svgjs" viewBox="0 0 1422 800"><circle r="21.5" cx="220" cy="691" fill="hsl(275, 75%, 70%)" opacity="0.85"></circle><circle r="15.5" cx="427" cy="716" fill="hsl(270, 75%, 70%)" opacity="0.57"></circle><circle r="22.5" cx="663" cy="95" fill="hsl(303, 75%, 70%)" opacity="0.73"></circle><circle r="13.5" cx="276" cy="549" fill="hsl(267, 75%, 70%)" opacity="0.74"></circle><circle r="15.5" cx="480" cy="355" fill="hsl(278, 75%, 70%)" opacity="0.64"></circle><circle r="18" cx="1222" cy="539" fill="hsl(284, 75%, 70%)" opacity="0.19"></circle><circle r="8.5" cx="1266" cy="35" fill="hsl(286, 75%, 70%)" opacity="0.40"></circle><circle r="14.5" cx="269" cy="357" fill="hsl(267, 75%, 70%)" opacity="0.75"></circle><circle r="11.5" cx="205" cy="481" fill="hsl(275, 75%, 70%)" opacity="0.70"></circle><circle r="13.5" cx="417" cy="163" fill="hsl(262, 75%, 70%)" opacity="0.71"></circle><circle r="15" cx="1203" cy="433" fill="hsl(284, 75%, 70%)" opacity="0.88"></circle><circle r="12" cx="1068" cy="364" fill="hsl(267, 75%, 70%)" opacity="0.92"></circle><circle r="13" cx="1292" cy="656" fill="hsl(295, 75%, 70%)" opacity="0.50"></circle><circle r="19" cx="67" cy="713" fill="hsl(294, 75%, 70%)" opacity="0.47"></circle><circle r="12" cx="1356" cy="348" fill="hsl(298, 75%, 70%)" opacity="0.32"></circle><circle r="18.5" cx="1249" cy="687" fill="hsl(290, 75%, 70%)" opacity="0.53"></circle><circle r="16" cx="438" cy="388" fill="hsl(270, 75%, 70%)" opacity="0.43"></circle><circle r="20" cx="1388" cy="31" fill="hsl(293, 75%, 70%)" opacity="0.22"></circle><circle r="16" cx="996" cy="306" fill="hsl(266, 75%, 70%)" opacity="0.48"></circle><circle r="14" cx="231" cy="303" fill="hsl(272, 75%, 70%)" opacity="0.64"></circle><circle r="8" cx="1294" cy="13" fill="hsl(286, 75%, 70%)" opacity="0.93"></circle><circle r="16" cx="661" cy="517" fill="hsl(308, 75%, 70%)" opacity="0.87"></circle><circle r="12.5" cx="213" cy="587" fill="hsl(275, 75%, 70%)" opacity="0.30"></circle><circle r="21" cx="50" cy="469" fill="hsl(295, 75%, 70%)" opacity="0.92"></circle><circle r="11" cx="1309" cy="412" fill="hsl(295, 75%, 70%)" opacity="0.90"></circle><circle r="10.5" cx="569" cy="655" fill="hsl(296, 75%, 70%)" opacity="0.33"></circle><circle r="13" cx="419" cy="481" fill="hsl(267, 75%, 70%)" opacity="0.41"></circle><circle r="9" cx="1101" cy="382" fill="hsl(269, 75%, 70%)" opacity="0.49"></circle><circle r="18.5" cx="827" cy="213" fill="hsl(291, 75%, 70%)" opacity="0.56"></circle><circle r="22.5" cx="1164" cy="764" fill="hsl(277, 75%, 70%)" opacity="0.26"></circle><circle r="18" cx="1169" cy="696" fill="hsl(277, 75%, 70%)" opacity="0.20"></circle><circle r="13.5" cx="1352" cy="80" fill="hsl(301, 75%, 70%)" opacity="0.38"></circle><circle r="23" cx="715" cy="407" fill="hsl(308, 75%, 70%)" opacity="0.97"></circle><circle r="12.5" cx="296" cy="207" fill="hsl(265, 75%, 70%)" opacity="0.14"></circle><circle r="13" cx="581" cy="700" fill="hsl(300, 75%, 70%)" opacity="0.71"></circle><circle r="17.5" cx="679" cy="26" fill="hsl(299, 75%, 70%)" opacity="0.39"></circle><circle r="19" cx="892" cy="313" fill="hsl(278, 75%, 70%)" opacity="0.87"></circle><circle r="13.5" cx="662" cy="656" fill="hsl(308, 75%, 70%)" opacity="0.83"></circle><circle r="18.5" cx="713" cy="665" fill="hsl(308, 75%, 70%)" opacity="0.58"></circle><circle r="16.5" cx="482" cy="729" fill="hsl(278, 75%, 70%)" opacity="0.18"></circle><circle r="16" cx="1397" cy="669" fill="hsl(298, 75%, 70%)" opacity="0.99"></circle><circle r="11" cx="444" cy="21" fill="hsl(230, 75%, 70%)" opacity="0.46"></circle><circle r="19.5" cx="810" cy="148" fill="hsl(301, 75%, 70%)" opacity="0.78"></circle><circle r="16" cx="944" cy="91" fill="hsl(288, 75%, 70%)" opacity="0.43"></circle><circle r="19" cx="1393" cy="434" fill="hsl(298, 75%, 70%)" opacity="0.34"></circle><circle r="15.5" cx="1398" cy="373" fill="hsl(298, 75%, 70%)" opacity="0.98"></circle><circle r="14" cx="29" cy="622" fill="hsl(297, 75%, 70%)" opacity="0.36"></circle><circle r="17" cx="206" cy="355" fill="hsl(275, 75%, 70%)" opacity="0.21"></circle><circle r="21" cx="31" cy="763" fill="hsl(297, 75%, 70%)" opacity="0.86"></circle><circle r="20" cx="371" cy="273" fill="hsl(264, 75%, 70%)" opacity="0.80"></circle><circle r="18.5" cx="387" cy="114" fill="hsl(247, 75%, 70%)" opacity="0.73"></circle><circle r="19.5" cx="587" cy="579" fill="hsl(300, 75%, 70%)" opacity="0.19"></circle><circle r="11.5" cx="1161" cy="218" fill="hsl(277, 75%, 70%)" opacity="0.19"></circle><circle r="15.5" cx="1008" cy="462" fill="hsl(265, 75%, 70%)" opacity="0.69"></circle><circle r="19" cx="629" cy="463" fill="hsl(307, 75%, 70%)" opacity="0.87"></circle><circle r="7.5" cx="1249" cy="12" fill="hsl(281, 75%, 70%)" opacity="0.35"></circle><circle r="13.5" cx="315" cy="268" fill="hsl(264, 75%, 70%)" opacity="0.61"></circle><circle r="12" cx="1215" cy="264" fill="hsl(284, 75%, 70%)" opacity="0.63"></circle><circle r="14.5" cx="762" cy="489" fill="hsl(303, 75%, 70%)" opacity="0.39"></circle><circle r="15" cx="468" cy="590" fill="hsl(278, 75%, 70%)" opacity="0.62"></circle><circle r="22.5" cx="901" cy="223" fill="hsl(278, 75%, 70%)" opacity="0.68"></circle><circle r="17" cx="513" cy="466" fill="hsl(287, 75%, 70%)" opacity="0.78"></circle><circle r="17" cx="1083" cy="479" fill="hsl(267, 75%, 70%)" opacity="0.63"></circle><circle r="17" cx="1056" cy="420" fill="hsl(266, 75%, 70%)" opacity="0.95"></circle><circle r="21" cx="954" cy="266" fill="hsl(271, 75%, 70%)" opacity="0.21"></circle><circle r="11" cx="375" cy="765" fill="hsl(264, 75%, 70%)" opacity="0.57"></circle><circle r="14.5" cx="1330" cy="28" fill="hsl(292, 75%, 70%)" opacity="0.38"></circle><circle r="13.5" cx="514" cy="409" fill="hsl(287, 75%, 70%)" opacity="0.61"></circle><circle r="13" cx="1185" cy="574" fill="hsl(281, 75%, 70%)" opacity="0.97"></circle><circle r="17.5" cx="565" cy="364" fill="hsl(296, 75%, 70%)" opacity="0.76"></circle><circle r="14" cx="898" cy="96" fill="hsl(293, 75%, 70%)" opacity="0.77"></circle><circle r="16" cx="1098" cy="771" fill="hsl(269, 75%, 70%)" opacity="0.74"></circle><circle r="24" cx="1292" cy="471" fill="hsl(295, 75%, 70%)" opacity="0.85"></circle><circle r="16.5" cx="90" cy="656" fill="hsl(291, 75%, 70%)" opacity="0.62"></circle><circle r="19.5" cx="787" cy="449" fill="hsl(300, 75%, 70%)" opacity="0.64"></circle><circle r="13" cx="582" cy="310" fill="hsl(300, 75%, 70%)" opacity="0.37"></circle><circle r="20" cx="1144" cy="472" fill="hsl(274, 75%, 70%)" opacity="0.45"></circle><circle r="25" cx="1236" cy="756" fill="hsl(287, 75%, 70%)" opacity="0.86"></circle><circle r="20" cx="1239" cy="612" fill="hsl(287, 75%, 70%)" opacity="0.80"></circle><circle r="10" cx="341" cy="583" fill="hsl(264, 75%, 70%)" opacity="0.79"></circle><circle r="20" cx="685" cy="351" fill="hsl(309, 75%, 70%)" opacity="0.58"></circle><circle r="15.5" cx="401" cy="623" fill="hsl(267, 75%, 70%)" opacity="0.38"></circle><circle r="15.5" cx="715" cy="599" fill="hsl(308, 75%, 70%)" opacity="0.42"></circle><circle r="25" cx="31" cy="192" fill="hsl(297, 75%, 70%)" opacity="0.65"></circle><circle r="14" cx="438" cy="298" fill="hsl(270, 75%, 70%)" opacity="0.96"></circle><circle r="20" cx="574" cy="509" fill="hsl(296, 75%, 70%)" opacity="0.24"></circle><circle r="13.5" cx="21" cy="579" fill="hsl(297, 75%, 70%)" opacity="0.81"></circle><circle r="13" cx="409" cy="334" fill="hsl(267, 75%, 70%)" opacity="0.31"></circle><circle r="20.5" cx="69" cy="250" fill="hsl(294, 75%, 70%)" opacity="0.36"></circle><circle r="14" cx="1084" cy="138" fill="hsl(276, 75%, 70%)" opacity="0.82"></circle><circle r="22.5" cx="738" cy="100" fill="hsl(310, 75%, 70%)" opacity="0.61"></circle><circle r="15" cx="990" cy="103" fill="hsl(283, 75%, 70%)" opacity="0.40"></circle><circle r="9" cx="1189" cy="15" fill="hsl(274, 75%, 70%)" opacity="0.86"></circle><circle r="8.5" cx="151" cy="787" fill="hsl(285, 75%, 70%)" opacity="0.95"></circle><circle r="18.5" cx="697" cy="474" fill="hsl(309, 75%, 70%)" opacity="0.17"></circle><circle r="14.5" cx="64" cy="569" fill="hsl(295, 75%, 70%)" opacity="0.61"></circle><circle r="16.5" cx="1350" cy="675" fill="hsl(298, 75%, 70%)" opacity="0.67"></circle><circle r="15" cx="271" cy="647" fill="hsl(267, 75%, 70%)" opacity="0.84"></circle><circle r="14.5" cx="377" cy="194" fill="hsl(264, 75%, 70%)" opacity="0.25"></circle><circle r="10.5" cx="1405" cy="584" fill="hsl(296, 75%, 70%)" opacity="0.61"></circle><circle r="13.5" cx="175" cy="592" fill="hsl(282, 75%, 70%)" opacity="0.96"></circle><circle r="8.5" cx="285" cy="598" fill="hsl(267, 75%, 70%)" opacity="0.54"></circle><circle r="18" cx="951" cy="351" fill="hsl(271, 75%, 70%)" opacity="0.22"></circle><circle r="25" cx="130" cy="415" fill="hsl(288, 75%, 70%)" opacity="0.25"></circle><circle r="17.5" cx="701" cy="297" fill="hsl(309, 75%, 70%)" opacity="0.75"></circle><circle r="14" cx="1019" cy="352" fill="hsl(265, 75%, 70%)" opacity="0.78"></circle><circle r="12" cx="1396" cy="625" fill="hsl(298, 75%, 70%)" opacity="0.79"></circle><circle r="16" cx="1301" cy="715" fill="hsl(295, 75%, 70%)" opacity="0.68"></circle><circle r="8" cx="313" cy="787" fill="hsl(264, 75%, 70%)" opacity="0.99"></circle><circle r="19" cx="261" cy="751" fill="hsl(269, 75%, 70%)" opacity="0.81"></circle><circle r="16" cx="524" cy="194" fill="hsl(287, 75%, 70%)" opacity="0.68"></circle><circle r="19.5" cx="1375" cy="181" fill="hsl(298, 75%, 70%)" opacity="0.75"></circle><circle r="16" cx="24" cy="676" fill="hsl(297, 75%, 70%)" opacity="0.63"></circle><circle r="14" cx="289" cy="306" fill="hsl(265, 75%, 70%)" opacity="0.25"></circle><circle r="13" cx="1219" cy="68" fill="hsl(288, 75%, 70%)" opacity="0.62"></circle><circle r="16" cx="26" cy="340" fill="hsl(297, 75%, 70%)" opacity="0.22"></circle><circle r="15.5" cx="632" cy="686" fill="hsl(307, 75%, 70%)" opacity="0.32"></circle><circle r="16" cx="1398" cy="317" fill="hsl(298, 75%, 70%)" opacity="0.92"></circle><circle r="20" cx="32" cy="92" fill="hsl(260, 75%, 70%)" opacity="0.82"></circle><circle r="25.5" cx="864" cy="639" fill="hsl(287, 75%, 70%)" opacity="0.68"></circle><circle r="18.5" cx="575" cy="755" fill="hsl(296, 75%, 70%)" opacity="0.87"></circle><circle r="14" cx="1342" cy="417" fill="hsl(298, 75%, 70%)" opacity="0.24"></circle><circle r="8" cx="1410" cy="727" fill="hsl(296, 75%, 70%)" opacity="0.69"></circle><circle r="13.5" cx="1044" cy="778" fill="hsl(266, 75%, 70%)" opacity="0.20"></circle><circle r="9.5" cx="680" cy="623" fill="hsl(309, 75%, 70%)" opacity="0.17"></circle><circle r="17" cx="505" cy="34" fill="hsl(253, 75%, 70%)" opacity="0.31"></circle><circle r="12" cx="1311" cy="77" fill="hsl(300, 75%, 70%)" opacity="0.70"></circle><circle r="11.5" cx="365" cy="337" fill="hsl(264, 75%, 70%)" opacity="0.50"></circle><circle r="15.5" cx="1135" cy="300" fill="hsl(274, 75%, 70%)" opacity="0.83"></circle><circle r="12.5" cx="334" cy="406" fill="hsl(264, 75%, 70%)" opacity="0.31"></circle><circle r="11" cx="316" cy="748" fill="hsl(264, 75%, 70%)" opacity="0.42"></circle><circle r="15" cx="1368" cy="125" fill="hsl(305, 75%, 70%)" opacity="0.70"></circle><circle r="17" cx="136" cy="252" fill="hsl(285, 75%, 70%)" opacity="0.44"></circle><circle r="13" cx="470" cy="270" fill="hsl(278, 75%, 70%)" opacity="0.75"></circle><circle r="16" cx="1206" cy="207" fill="hsl(284, 75%, 70%)" opacity="0.13"></circle><circle r="19.5" cx="1212" cy="121" fill="hsl(291, 75%, 70%)" opacity="1.00"></circle><circle r="19" cx="1079" cy="621" fill="hsl(267, 75%, 70%)" opacity="0.98"></circle><circle r="14.5" cx="626" cy="540" fill="hsl(307, 75%, 70%)" opacity="0.12"></circle><circle r="15" cx="1293" cy="279" fill="hsl(295, 75%, 70%)" opacity="0.14"></circle><circle r="17.5" cx="864" cy="147" fill="hsl(294, 75%, 70%)" opacity="0.40"></circle><circle r="12" cx="1083" cy="323" fill="hsl(267, 75%, 70%)" opacity="0.78"></circle><circle r="11.5" cx="1118" cy="223" fill="hsl(271, 75%, 70%)" opacity="0.10"></circle><circle r="14" cx="168" cy="747" fill="hsl(282, 75%, 70%)" opacity="0.15"></circle><circle r="14" cx="463" cy="478" fill="hsl(274, 75%, 70%)" opacity="0.28"></circle><circle r="15.5" cx="1169" cy="266" fill="hsl(277, 75%, 70%)" opacity="0.70"></circle><circle r="13.5" cx="104" cy="158" fill="hsl(285, 75%, 70%)" opacity="0.36"></circle><circle r="14.5" cx="372" cy="501" fill="hsl(264, 75%, 70%)" opacity="0.63"></circle><circle r="15" cx="86" cy="115" fill="hsl(269, 75%, 70%)" opacity="0.65"></circle><circle r="12.5" cx="227" cy="628" fill="hsl(272, 75%, 70%)" opacity="0.63"></circle><circle r="12.5" cx="1388" cy="781" fill="hsl(298, 75%, 70%)" opacity="0.45"></circle><circle r="19.5" cx="595" cy="115" fill="hsl(292, 75%, 70%)" opacity="0.68"></circle><circle r="20.5" cx="1312" cy="207" fill="hsl(297, 75%, 70%)" opacity="0.21"></circle><circle r="11" cx="333" cy="714" fill="hsl(264, 75%, 70%)" opacity="0.17"></circle><circle r="11" cx="409" cy="527" fill="hsl(267, 75%, 70%)" opacity="0.98"></circle><circle r="12.5" cx="472" cy="422" fill="hsl(278, 75%, 70%)" opacity="0.27"></circle><circle r="11.5" cx="329" cy="343" fill="hsl(264, 75%, 70%)" opacity="0.77"></circle><circle r="15" cx="275" cy="111" fill="hsl(238, 75%, 70%)" opacity="1.00"></circle><circle r="8.5" cx="313" cy="598" fill="hsl(264, 75%, 70%)" opacity="0.39"></circle><circle r="11.5" cx="302" cy="383" fill="hsl(265, 75%, 70%)" opacity="0.88"></circle><circle r="27" cx="982" cy="659" fill="hsl(266, 75%, 70%)" opacity="0.95"></circle><circle r="11" cx="202" cy="443" fill="hsl(275, 75%, 70%)" opacity="0.70"></circle><circle r="16.5" cx="893" cy="427" fill="hsl(278, 75%, 70%)" opacity="0.77"></circle><circle r="17" cx="790" cy="326" fill="hsl(300, 75%, 70%)" opacity="0.54"></circle><circle r="16" cx="69" cy="31" fill="hsl(216, 75%, 70%)" opacity="0.48"></circle><circle r="14" cx="1148" cy="599" fill="hsl(274, 75%, 70%)" opacity="0.41"></circle><circle r="15" cx="1256" cy="248" fill="hsl(290, 75%, 70%)" opacity="0.87"></circle><circle r="18" cx="1064" cy="546" fill="hsl(266, 75%, 70%)" opacity="0.33"></circle><circle r="10.5" cx="479" cy="157" fill="hsl(273, 75%, 70%)" opacity="0.48"></circle><circle r="14.5" cx="141" cy="709" fill="hsl(285, 75%, 70%)" opacity="0.29"></circle><circle r="9.5" cx="1101" cy="249" fill="hsl(269, 75%, 70%)" opacity="0.22"></circle><circle r="11.5" cx="1120" cy="158" fill="hsl(276, 75%, 70%)" opacity="0.73"></circle><circle r="18" cx="531" cy="286" fill="hsl(287, 75%, 70%)" opacity="0.97"></circle><circle r="17" cx="948" cy="408" fill="hsl(271, 75%, 70%)" opacity="0.18"></circle><circle r="20" cx="1197" cy="326" fill="hsl(281, 75%, 70%)" opacity="0.57"></circle><circle r="21" cx="926" cy="157" fill="hsl(279, 75%, 70%)" opacity="0.84"></circle><circle r="23" cx="831" cy="544" fill="hsl(291, 75%, 70%)" opacity="0.54"></circle><circle r="19.5" cx="114" cy="345" fill="hsl(288, 75%, 70%)" opacity="0.51"></circle><circle r="14" cx="113" cy="763" fill="hsl(288, 75%, 70%)" opacity="0.16"></circle><circle r="11.5" cx="512" cy="82" fill="hsl(267, 75%, 70%)" opacity="0.41"></circle><circle r="17" cx="1073" cy="190" fill="hsl(267, 75%, 70%)" opacity="0.33"></circle><circle r="20" cx="121" cy="563" fill="hsl(288, 75%, 70%)" opacity="0.98"></circle><circle r="11" cx="1074" cy="271" fill="hsl(267, 75%, 70%)" opacity="0.76"></circle><circle r="16" cx="1041" cy="116" fill="hsl(278, 75%, 70%)" opacity="0.70"></circle><circle r="15" cx="1262" cy="318" fill="hsl(290, 75%, 70%)" opacity="0.25"></circle><circle r="12" cx="336" cy="195" fill="hsl(264, 75%, 70%)" opacity="0.41"></circle><circle r="22.5" cx="654" cy="177" fill="hsl(307, 75%, 70%)" opacity="0.57"></circle><circle r="15.5" cx="1009" cy="401" fill="hsl(265, 75%, 70%)" opacity="0.84"></circle><circle r="29.5" cx="894" cy="735" fill="hsl(278, 75%, 70%)" opacity="0.45"></circle><circle r="11" cx="1139" cy="189" fill="hsl(274, 75%, 70%)" opacity="0.23"></circle><circle r="20" cx="1312" cy="137" fill="hsl(303, 75%, 70%)" opacity="0.62"></circle><circle r="13" cx="1384" cy="274" fill="hsl(298, 75%, 70%)" opacity="0.65"></circle><circle r="15" cx="378" cy="573" fill="hsl(265, 75%, 70%)" opacity="0.57"></circle><circle r="22" cx="645" cy="250" fill="hsl(308, 75%, 70%)" opacity="0.22"></circle><circle r="7" cx="351" cy="775" fill="hsl(264, 75%, 70%)" opacity="0.22"></circle><circle r="17.5" cx="252" cy="173" fill="hsl(263, 75%, 70%)" opacity="0.27"></circle><circle r="14.5" cx="255" cy="243" fill="hsl(269, 75%, 70%)" opacity="0.48"></circle><circle r="17.5" cx="687" cy="727" fill="hsl(309, 75%, 70%)" opacity="0.79"></circle><circle r="21.5" cx="460" cy="660" fill="hsl(274, 75%, 70%)" opacity="0.98"></circle><circle r="15" cx="1172" cy="153" fill="hsl(284, 75%, 70%)" opacity="0.98"></circle><circle r="15.5" cx="476" cy="526" fill="hsl(278, 75%, 70%)" opacity="0.66"></circle><circle r="14" cx="471" cy="113" fill="hsl(263, 75%, 70%)" opacity="0.19"></circle><circle r="15.5" cx="1197" cy="646" fill="hsl(281, 75%, 70%)" opacity="0.41"></circle><circle r="11.5" cx="428" cy="441" fill="hsl(270, 75%, 70%)" opacity="0.43"></circle><circle r="21" cx="569" cy="237" fill="hsl(296, 75%, 70%)" opacity="0.15"></circle><circle r="9" cx="1162" cy="376" fill="hsl(277, 75%, 70%)" opacity="0.97"></circle><circle r="14.5" cx="627" cy="748" fill="hsl(307, 75%, 70%)" opacity="0.48"></circle><circle r="16.5" cx="875" cy="488" fill="hsl(282, 75%, 70%)" opacity="0.47"></circle><circle r="16" cx="522" cy="339" fill="hsl(287, 75%, 70%)" opacity="0.29"></circle><circle r="19" cx="726" cy="245" fill="hsl(308, 75%, 70%)" opacity="0.99"></circle><circle r="26" cx="801" cy="700" fill="hsl(296, 75%, 70%)" opacity="0.68"></circle><circle r="14.5" cx="1228" cy="378" fill="hsl(287, 75%, 70%)" opacity="1.00"></circle><circle r="15.5" cx="621" cy="410" fill="hsl(304, 75%, 70%)" opacity="0.60"></circle><circle r="19" cx="520" cy="770" fill="hsl(287, 75%, 70%)" opacity="0.16"></circle><circle r="16.5" cx="842" cy="439" fill="hsl(291, 75%, 70%)" opacity="0.28"></circle><circle r="15.5" cx="1339" cy="257" fill="hsl(298, 75%, 70%)" opacity="0.35"></circle><circle r="15" cx="1336" cy="312" fill="hsl(298, 75%, 70%)" opacity="0.45"></circle><circle r="10" cx="375" cy="700" fill="hsl(264, 75%, 70%)" opacity="0.61"></circle><circle r="18" cx="740" cy="722" fill="hsl(306, 75%, 70%)" opacity="0.43"></circle><circle r="9.5" cx="1288" cy="55" fill="hsl(292, 75%, 70%)" opacity="0.28"></circle><circle r="19" cx="1136" cy="536" fill="hsl(274, 75%, 70%)" opacity="0.83"></circle><circle r="21" cx="720" cy="167" fill="hsl(309, 75%, 70%)" opacity="0.90"></circle><circle r="10.5" cx="702" cy="559" fill="hsl(309, 75%, 70%)" opacity="0.62"></circle><circle r="16.5" cx="426" cy="223" fill="hsl(270, 75%, 70%)" opacity="0.88"></circle><circle r="13" cx="381" cy="384" fill="hsl(265, 75%, 70%)" opacity="0.11"></circle><circle r="11.5" cx="381" cy="662" fill="hsl(265, 75%, 70%)" opacity="0.67"></circle><circle r="13" cx="905" cy="526" fill="hsl(278, 75%, 70%)" opacity="0.97"></circle><circle r="18.5" cx="1037" cy="45" fill="hsl(281, 75%, 70%)" opacity="0.26"></circle><circle r="14.5" cx="769" cy="282" fill="hsl(303, 75%, 70%)" opacity="0.12"></circle><circle r="8.5" cx="1226" cy="34" fill="hsl(283, 75%, 70%)" opacity="0.57"></circle><circle r="15" cx="215" cy="775" fill="hsl(275, 75%, 70%)" opacity="0.42"></circle><circle r="20.5" cx="58" cy="389" fill="hsl(295, 75%, 70%)" opacity="0.11"></circle><circle r="10.5" cx="731" cy="531" fill="hsl(308, 75%, 70%)" opacity="0.16"></circle><circle r="8" cx="598" cy="13" fill="hsl(275, 75%, 70%)" opacity="0.73"></circle><circle r="20" cx="182" cy="38" fill="hsl(213, 75%, 70%)" opacity="0.20"></circle><circle r="14" cx="331" cy="654" fill="hsl(264, 75%, 70%)" opacity="0.19"></circle><circle r="13.5" cx="1046" cy="303" fill="hsl(266, 75%, 70%)" opacity="0.98"></circle><circle r="17.5" cx="575" cy="55" fill="hsl(276, 75%, 70%)" opacity="0.73"></circle><circle r="22" cx="1254" cy="176" fill="hsl(294, 75%, 70%)" opacity="0.30"></circle><circle r="19" cx="949" cy="470" fill="hsl(271, 75%, 70%)" opacity="0.53"></circle><circle r="18" cx="1101" cy="30" fill="hsl(276, 75%, 70%)" opacity="0.56"></circle><circle r="15.5" cx="1119" cy="419" fill="hsl(271, 75%, 70%)" opacity="0.44"></circle><circle r="16.5" cx="902" cy="584" fill="hsl(278, 75%, 70%)" opacity="0.22"></circle><circle r="24.5" cx="783" cy="617" fill="hsl(300, 75%, 70%)" opacity="0.66"></circle><circle r="15.5" cx="208" cy="104" fill="hsl(244, 75%, 70%)" opacity="0.28"></circle><circle r="27" cx="982" cy="753" fill="hsl(266, 75%, 70%)" opacity="0.53"></circle><circle r="21" cx="108" cy="498" fill="hsl(291, 75%, 70%)" opacity="0.76"></circle><circle r="12.5" cx="85" cy="611" fill="hsl(294, 75%, 70%)" opacity="0.53"></circle><circle r="10.5" cx="1255" cy="76" fill="hsl(293, 75%, 70%)" opacity="0.93"></circle><circle r="11" cx="544" cy="153" fill="hsl(284, 75%, 70%)" opacity="0.36"></circle><circle r="12.5" cx="491" cy="234" fill="hsl(282, 75%, 70%)" opacity="0.23"></circle><circle r="14" cx="626" cy="619" fill="hsl(307, 75%, 70%)" opacity="0.37"></circle><circle r="13.5" cx="1312" cy="357" fill="hsl(297, 75%, 70%)" opacity="0.69"></circle><circle r="11" cx="252" cy="587" fill="hsl(269, 75%, 70%)" opacity="0.86"></circle><circle r="15" cx="1306" cy="615" fill="hsl(295, 75%, 70%)" opacity="0.50"></circle><circle r="15.5" cx="659" cy="588" fill="hsl(308, 75%, 70%)" opacity="0.62"></circle><circle r="14.5" cx="629" cy="49" fill="hsl(294, 75%, 70%)" opacity="0.32"></circle><circle r="12" cx="469" cy="193" fill="hsl(278, 75%, 70%)" opacity="0.62"></circle><circle r="20" cx="1317" cy="769" fill="hsl(297, 75%, 70%)" opacity="0.84"></circle><circle r="18.5" cx="967" cy="29" fill="hsl(287, 75%, 70%)" opacity="0.28"></circle><circle r="12" cx="1270" cy="360" fill="hsl(293, 75%, 70%)" opacity="0.30"></circle><circle r="17.5" cx="281" cy="431" fill="hsl(267, 75%, 70%)" opacity="0.92"></circle><circle r="13" cx="430" cy="563" fill="hsl(270, 75%, 70%)" opacity="0.94"></circle><circle r="22" cx="1076" cy="710" fill="hsl(267, 75%, 70%)" opacity="0.81"></circle><circle r="24.5" cx="1289" cy="548" fill="hsl(295, 75%, 70%)" opacity="0.88"></circle><circle r="19" cx="1019" cy="593" fill="hsl(265, 75%, 70%)" opacity="0.66"></circle><circle r="21" cx="798" cy="383" fill="hsl(300, 75%, 70%)" opacity="0.29"></circle><circle r="18.5" cx="953" cy="573" fill="hsl(271, 75%, 70%)" opacity="0.67"></circle><circle r="15" cx="855" cy="88" fill="hsl(301, 75%, 70%)" opacity="0.32"></circle><circle r="16.5" cx="28" cy="526" fill="hsl(297, 75%, 70%)" opacity="0.90"></circle><circle r="17" cx="321" cy="518" fill="hsl(264, 75%, 70%)" opacity="0.21"></circle><circle r="13" cx="1035" cy="501" fill="hsl(265, 75%, 70%)" opacity="0.61"></circle><circle r="15.5" cx="623" cy="363" fill="hsl(307, 75%, 70%)" opacity="0.95"></circle><circle r="9.5" cx="704" cy="519" fill="hsl(309, 75%, 70%)" opacity="0.71"></circle><circle r="20" cx="749" cy="30" fill="hsl(306, 75%, 70%)" opacity="0.37"></circle><circle r="16" cx="1127" cy="654" fill="hsl(271, 75%, 70%)" opacity="0.80"></circle><circle r="19.5" cx="995" cy="178" fill="hsl(266, 75%, 70%)" opacity="0.32"></circle><circle r="17" cx="1114" cy="96" fill="hsl(282, 75%, 70%)" opacity="0.23"></circle><circle r="17" cx="187" cy="157" fill="hsl(272, 75%, 70%)" opacity="0.43"></circle><circle r="13.5" cx="203" cy="266" fill="hsl(275, 75%, 70%)" opacity="0.97"></circle><circle r="16" cx="224" cy="541" fill="hsl(272, 75%, 70%)" opacity="0.99"></circle><circle r="11" cx="81" cy="779" fill="hsl(294, 75%, 70%)" opacity="0.11"></circle><circle r="14.5" cx="626" cy="304" fill="hsl(307, 75%, 70%)" opacity="0.81"></circle><circle r="14" cx="220" cy="406" fill="hsl(275, 75%, 70%)" opacity="0.37"></circle><circle r="15.5" cx="527" cy="530" fill="hsl(287, 75%, 70%)" opacity="0.45"></circle><circle r="11" cx="1405" cy="106" fill="hsl(301, 75%, 70%)" opacity="0.89"></circle><circle r="17" cx="1216" cy="484" fill="hsl(284, 75%, 70%)" opacity="0.53"></circle><circle r="20.5" cx="1165" cy="62" fill="hsl(281, 75%, 70%)" opacity="0.54"></circle><circle r="18.5" cx="769" cy="200" fill="hsl(303, 75%, 70%)" opacity="0.31"></circle><circle r="19" cx="520" cy="601" fill="hsl(287, 75%, 70%)" opacity="0.80"></circle><circle r="20.5" cx="842" cy="272" fill="hsl(291, 75%, 70%)" opacity="0.26"></circle><circle r="11" cx="536" cy="117" fill="hsl(281, 75%, 70%)" opacity="0.14"></circle><circle r="15.5" cx="20" cy="279" fill="hsl(297, 75%, 70%)" opacity="0.27"></circle><circle r="11.5" cx="156" cy="632" fill="hsl(282, 75%, 70%)" opacity="0.80"></circle><circle r="10.5" cx="1359" cy="385" fill="hsl(298, 75%, 70%)" opacity="0.19"></circle><circle r="17" cx="792" cy="774" fill="hsl(300, 75%, 70%)" opacity="0.74"></circle><circle r="14.5" cx="1400" cy="230" fill="hsl(296, 75%, 70%)" opacity="0.53"></circle><circle r="11" cx="1185" cy="394" fill="hsl(281, 75%, 70%)" opacity="0.67"></circle><circle r="18.5" cx="560" cy="433" fill="hsl(296, 75%, 70%)" opacity="0.44"></circle><circle r="15" cx="702" cy="778" fill="hsl(309, 75%, 70%)" opacity="0.14"></circle><circle r="15.5" cx="122" cy="202" fill="hsl(288, 75%, 70%)" opacity="0.65"></circle><circle r="17.5" cx="1349" cy="588" fill="hsl(298, 75%, 70%)" opacity="0.77"></circle><circle r="14" cx="1386" cy="545" fill="hsl(298, 75%, 70%)" opacity="0.63"></circle><circle r="12" cx="590" cy="632" fill="hsl(300, 75%, 70%)" opacity="0.17"></circle><circle r="15" cx="1267" cy="409" fill="hsl(293, 75%, 70%)" opacity="0.97"></circle><circle r="16.5" cx="869" cy="365" fill="hsl(282, 75%, 70%)" opacity="0.22"></circle><circle r="15" cx="293" cy="694" fill="hsl(265, 75%, 70%)" opacity="0.35"></circle><circle r="13.5" cx="428" cy="778" fill="hsl(270, 75%, 70%)" opacity="0.23"></circle><circle r="19" cx="1022" cy="236" fill="hsl(265, 75%, 70%)" opacity="0.88"></circle><circle r="22.5" cx="808" cy="60" fill="hsl(307, 75%, 70%)" opacity="0.34"></circle><circle r="13" cx="648" cy="781" fill="hsl(308, 75%, 70%)" opacity="0.18"></circle><circle r="14.5" cx="72" cy="307" fill="hsl(294, 75%, 70%)" opacity="0.29"></circle><circle r="18" cx="590" cy="179" fill="hsl(300, 75%, 70%)" opacity="0.75"></circle><circle r="10" cx="1142" cy="351" fill="hsl(274, 75%, 70%)" opacity="0.96"></circle><circle r="11.5" cx="146" cy="668" fill="hsl(285, 75%, 70%)" opacity="0.71"></circle><circle r="21" cx="160" cy="309" fill="hsl(282, 75%, 70%)" opacity="0.49"></circle><circle r="18.5" cx="881" cy="28" fill="hsl(299, 75%, 70%)" opacity="0.44"></circle><circle r="16.5" cx="396" cy="46" fill="hsl(230, 75%, 70%)" opacity="0.28"></circle><circle r="14" cx="1267" cy="114" fill="hsl(299, 75%, 70%)" opacity="0.78"></circle><circle r="20.5" cx="1371" cy="494" fill="hsl(298, 75%, 70%)" opacity="0.43"></circle><circle r="17.5" cx="169" cy="510" fill="hsl(282, 75%, 70%)" opacity="0.53"></circle><circle r="9" cx="386" cy="733" fill="hsl(265, 75%, 70%)" opacity="0.48"></circle><circle r="11.5" cx="392" cy="426" fill="hsl(265, 75%, 70%)" opacity="0.92"></circle><circle r="17.5" cx="525" cy="668" fill="hsl(287, 75%, 70%)" opacity="0.40"></circle><circle r="8.5" cx="1112" cy="344" fill="hsl(271, 75%, 70%)" opacity="0.16"></circle><circle r="17" cx="988" cy="528" fill="hsl(266, 75%, 70%)" opacity="0.16"></circle><circle r="13.5" cx="18" cy="416" fill="hsl(297, 75%, 70%)" opacity="0.84"></circle><circle r="17.5" cx="201" cy="215" fill="hsl(275, 75%, 70%)" opacity="0.90"></circle><circle r="18.5" cx="264" cy="490" fill="hsl(269, 75%, 70%)" opacity="0.16"></circle><circle r="13" cx="146" cy="127" fill="hsl(262, 75%, 70%)" opacity="0.52"></circle><circle r="15" cx="1373" cy="733" fill="hsl(298, 75%, 70%)" opacity="0.23"></circle><circle r="16" cx="344" cy="454" fill="hsl(264, 75%, 70%)" opacity="0.37"></circle><circle r="19" cx="769" cy="552" fill="hsl(303, 75%, 70%)" opacity="0.51"></circle><circle r="22" cx="307" cy="49" fill="hsl(221, 75%, 70%)" opacity="0.81"></circle></svg>