<svg xmlns="http://www.w3.org/2000/svg" version="1.1" xmlns:xlink="http://www.w3.org/1999/xlink" xmlns:svgjs="http://svgjs.dev/svgjs" viewBox="0 0 800 800"><defs><filter id="ssspot-filter" x="-20%" y="-20%" width="140%" height="140%" filterUnits="objectBoundingBox" primitiveUnits="userSpaceOnUse" color-interpolation-filters="sRGB">
	<feTurbulence type="turbulence" baseFrequency="0.022 0.218" numOctaves="2" seed="205" stitchTiles="stitch" x="0%" y="0%" width="100%" height="100%" result="turbulence"></feTurbulence>
	<feGaussianBlur stdDeviation="0 3" x="0%" y="0%" width="100%" height="100%" in="turbulence" edgeMode="duplicate" result="blur"></feGaussianBlur>
	<feDisplacementMap in="SourceGraphic" in2="blur" scale="32" xChannelSelector="R" yChannelSelector="B" x="0%" y="0%" width="100%" height="100%" result="displacementMap"></feDisplacementMap>
</filter></defs><rect width="100%" height="100%" fill="hsl(248, 100%, 15%)"></rect><g fill="hsl(230, 41%, 52%)" filter="url(#ssspot-filter)"><circle r="3.264846111595104" cx="358.92666115649826" cy="219.9918044308294" opacity="0.39795545248674147"></circle><circle r="6.1329756312262145" cx="287.3572417560646" cy="212.36963784768432" opacity="0.836433862629421"></circle><circle r="8.513666857833853" cx="80.76897925429805" cy="542.5661877907162" opacity="0.9540223967109277"></circle><circle r="3.582419736935965" cx="714.2259853189537" cy="116.8550282737122" opacity="0.16297745182841267"></circle><circle r="7.579485967296497" cx="19.092156148129135" cy="702.6467067360082" opacity="0.687084695591127"></circle><circle r="10.326866606517626" cx="254.34966901464773" cy="22.231168008869464" opacity="0.32607639048932824"></circle><circle r="5.4507229014182945" cx="286.49851707395646" cy="148.8881141123991" opacity="0.25690931763447883"></circle><circle r="5.184006933453488" cx="378.1490991772496" cy="194.9650037853992" opacity="0.3064152919574975"></circle><circle r="6.274270427998155" cx="575.7425010711012" cy="66.2113101432979" opacity="0.8037161261183662"></circle><circle r="7.775252805962769" cx="29.95409676667502" cy="664.9335558099878" opacity="0.34798464144857877"></circle><circle r="6.546293045927422" cx="530.5146240030875" cy="625.8974506296587" opacity="0.3963175483817971"></circle><circle r="7.3968180513454636" cx="573.635996360231" cy="391.41519442459935" opacity="0.8752808235435978"></circle><circle r="11.052716245209792" cx="163.0300926195628" cy="514.2542409155454" opacity="0.11342384988942046"></circle><circle r="9.095124919805105" cx="451.6836489720253" cy="713.3597121621234" opacity="0.44181160752580173"></circle><circle r="8.64686003422842" cx="56.706544453059465" cy="137.28659033777362" opacity="0.5815222050004717"></circle><circle r="6.76670453533487" cx="382.2139180848592" cy="614.3336034322538" opacity="0.6813393703954044"></circle><circle r="10.765595342183342" cx="550.1847186507077" cy="568.838889811034" opacity="0.9397459864253426"></circle><circle r="10.55348595603632" cx="558.4292006895607" cy="727.9323372591774" opacity="0.7413938445175718"></circle><circle r="6.511529765333219" cx="780.7927870455716" cy="169.7234445521523" opacity="0.7441768276035732"></circle><circle r="5.5661429531266835" cx="506.8629978537722" cy="720.5526566971614" opacity="0.22173829970178455"></circle><circle r="4.691016599860262" cx="563.8399780735584" cy="773.0647170697941" opacity="0.6031972583528863"></circle><circle r="5.44497654854031" cx="744.2411702784766" cy="163.3781547202343" opacity="0.5567231610375261"></circle><circle r="4.2535200619009705" cx="328.83120499685157" cy="247.3548007071057" opacity="0.8636323078761932"></circle><circle r="5.237211235594014" cx="589.463674306356" cy="574.9291978306228" opacity="0.277805271248941"></circle><circle r="13.342151665309133" cx="26.862513982571993" cy="282.7422691494491" opacity="0.30278159597034626"></circle><circle r="10.339727337382962" cx="473.63300237834545" cy="544.2985737015194" opacity="0.7227982027341917"></circle><circle r="7.588437442794513" cx="351.3590753031479" cy="64.64856254689559" opacity="0.49526293993080894"></circle><circle r="6.215054552085704" cx="572.3578309161508" cy="637.7107673232881" opacity="0.25140193076936657"></circle><circle r="5.671158539794488" cx="161.88489402499914" cy="90.74047310625036" opacity="0.11975054024502635"></circle><circle r="7.9454041847181225" cx="589.3397597444948" cy="249.96631024297517" opacity="0.499643602761757"></circle><circle r="4.724520359873165" cx="96.62977558505848" cy="130.94354375287264" opacity="0.1376586790475649"></circle><circle r="8.096298991864693" cx="767.551226558133" cy="782.5931840742885" opacity="0.5723388529325777"></circle><circle r="11.883472718307532" cx="411.31778172539555" cy="89.80588866710382" opacity="0.14933547482985057"></circle><circle r="6.828463186299428" cx="627.7728341861532" cy="49.04870684064337" opacity="0.11065652682857074"></circle><circle r="7.4024201407003165" cx="422.7885096986596" cy="314.840316047912" opacity="0.10276317297355383"></circle><circle r="7.0086635833047" cx="243.33176947259327" cy="631.533576582761" opacity="0.3382984843525616"></circle><circle r="9.892299972080346" cx="514.2021383276981" cy="507.4343317595467" opacity="0.598166759627039"></circle><circle r="9.383055175306257" cx="513.1175021397355" cy="576.2420657659823" opacity="0.18434612280813645"></circle><circle r="7.986131634797751" cx="780.5783423774907" cy="515.3818885011162" opacity="0.9611309484202375"></circle><circle r="8.183824862616486" cx="364.7804341973461" cy="276.3703173721766" opacity="0.9557223930955738"></circle><circle r="5.0305033091233" cx="393.676540648244" cy="37.69974580883953" opacity="0.28882003456492317"></circle><circle r="5.910178204179285" cx="283.02309934287456" cy="182.4884818123912" opacity="0.5645162278384358"></circle><circle r="4.997619335281787" cx="319.4802310822318" cy="185.57836761476105" opacity="0.6577586403730395"></circle><circle r="4.891403802212855" cx="627.741631617249" cy="175.9976512455968" opacity="0.7325283529878925"></circle><circle r="6.837057936416274" cx="689.5260582198451" cy="134.1705258766062" opacity="0.8147328253581456"></circle><circle r="6.477058112102863" cx="752.1206566520906" cy="682.7406083899763" opacity="0.2223110305348834"></circle><circle r="6.032747256387635" cx="784.5509857902545" cy="24.869936031414102" opacity="0.8882992395305895"></circle><circle r="5.498764260341007" cx="544.8443579511684" cy="32.11929405901928" opacity="0.6013935226383179"></circle><circle r="7.536156159358789" cx="758.7947645205234" cy="129.2885212956495" opacity="0.9066162858613152"></circle><circle r="6.072053399026825" cx="312.34019847438725" cy="306.193096456666" opacity="0.3230281857992632"></circle><circle r="4.201219430962606" cx="612.7612172009342" cy="319.3739515851125" opacity="0.9795290003083458"></circle><circle r="6.536096688470975" cx="403.907151458959" cy="684.1917775214051" opacity="0.8409318912142167"></circle><circle r="7.409669449278376" cx="157.25190360215512" cy="566.70379763283" opacity="0.18757591794800205"></circle><circle r="9.062743668018886" cx="475.4350887795794" cy="19.067723474949528" opacity="0.5970597553825339"></circle><circle r="6.651774474793069" cx="670.2113578414472" cy="28.77544662666947" opacity="0.39652175615032115"></circle><circle r="4.0339402508581435" cx="569.2296414466385" cy="17.47355751414106" opacity="0.9446605327500844"></circle><circle r="5.947946767826943" cx="333.78957444410224" cy="153.91315231379392" opacity="0.22547291142100265"></circle><circle r="8.961304606436784" cx="178.90150287627804" cy="701.4167995567852" opacity="0.3929613112152468"></circle><circle r="7.076277700072383" cx="193.21944016681468" cy="191.02113901017162" opacity="0.27275223267715265"></circle><circle r="8.734793074040049" cx="674.68949431739" cy="561.1094242315748" opacity="0.8230952318710033"></circle><circle r="8.79949991090551" cx="542.7323199292488" cy="95.31716944643225" opacity="0.4927414481804814"></circle><circle r="8.10002189823961" cx="188.33017258027866" cy="137.46816114725797" opacity="0.5759043835443395"></circle><circle r="8.098478328776023" cx="350.329849739293" cy="416.67977602248743" opacity="0.41218604761744704"></circle><circle r="5.2381095737250405" cx="84.81468939474567" cy="580.3327651088462" opacity="0.1307178627018"></circle><circle r="7.196936449316327" cx="732.8355483421415" cy="310.1303015831467" opacity="0.9564194809838363"></circle><circle r="3.4958419677749255" cx="711.0416395446571" cy="88.14999424075418" opacity="0.3675142466804763"></circle><circle r="4.548329402731522" cx="735.456650973632" cy="102.6241703929423" opacity="0.726407197418235"></circle><circle r="6.466331883652888" cx="779.9481114051788" cy="658.7567638358145" opacity="0.6214378956517926"></circle><circle r="6.902994376169984" cx="775.3206986571003" cy="356.6642201840214" opacity="0.36076039559892314"></circle><circle r="8.675083608060842" cx="156.69273028561594" cy="212.54012712200733" opacity="0.7957854420695144"></circle><circle r="7.140090444426194" cx="779.5085871759474" cy="436.67705925905335" opacity="0.2069789124812359"></circle><circle r="5.347581226227811" cx="311.4972259544937" cy="403.9782842382022" opacity="0.38136427550553875"></circle><circle r="6.252176133080597" cx="537.9962035898362" cy="683.5714367857404" opacity="0.3605924203534153"></circle><circle r="5.373782573709065" cx="407.2789638928705" cy="486.76877760554123" opacity="0.9938948348509484"></circle><circle r="7.51618778241191" cx="423.9688828445849" cy="520.8987038979768" opacity="0.2626698123274341"></circle><circle r="5.775132579473678" cx="533.7147078114828" cy="778.6959739196521" opacity="0.8975086078366075"></circle><circle r="8.181251629408667" cx="364.1885080906635" cy="114.31038146977883" opacity="0.14036298354785617"></circle><circle r="9.102199275229799" cx="217.16369904817964" cy="99.65224441909663" opacity="0.8770403346801682"></circle><circle r="6.749016256438323" cx="581.7022412394734" cy="605.0986483390793" opacity="0.7113408727212779"></circle><circle r="8.958101854614707" cx="633.9874425440736" cy="358.8443006737994" opacity="0.5930644219408869"></circle><circle r="4.697154756766941" cx="708.7988392875982" cy="17.035759453764808" opacity="0.9354624799486971"></circle><circle r="6.09570235308768" cx="622.496224474295" cy="219.39643704671428" opacity="0.2705297281512561"></circle><circle r="5.696604181937814" cx="727.3947832461697" cy="136.7710777759067" opacity="0.7159305741201407"></circle><circle r="3.936937212394067" cx="372.1689684595264" cy="748.0685827255938" opacity="0.7318375142436904"></circle><circle r="7.597301130372693" cx="784.5571907353192" cy="609.2379974970511" opacity="0.1554945110536825"></circle><circle r="4.45918954292831" cx="691.767282490378" cy="700.2300003927788" opacity="0.6004132406774999"></circle><circle r="4.690643299759367" cx="326.28019456495286" cy="275.716007514817" opacity="0.14387533744775272"></circle><circle r="6.391602076729965" cx="311.382081896891" cy="652.4430715194601" opacity="0.5406031066392701"></circle><circle r="9.407435965697333" cx="188.31370955137464" cy="607.6646953442689" opacity="0.3400593501976914"></circle><circle r="5.170360661412649" cx="411.1427960445568" cy="451.966959345232" opacity="0.8193255595153641"></circle><circle r="5.004517283545215" cx="589.6525946977125" cy="335.0873173480589" opacity="0.9671113608045364"></circle><circle r="6.254610455381225" cx="241.5419491371673" cy="681.4271752360188" opacity="0.2752243450710228"></circle><circle r="5.805196552705868" cx="162.2205797652069" cy="365.87672167559106" opacity="0.3199605854078815"></circle><circle r="10.43089498244386" cx="68.28170635381764" cy="239.22538160497965" opacity="0.167306707738607"></circle><circle r="5.131194014237928" cx="426.77189022516006" cy="277.1278050632409" opacity="0.8222408040418148"></circle><circle r="6.712470761523274" cx="360.52106235489566" cy="315.13290965372823" opacity="0.5612233892741951"></circle><circle r="6.904826640629033" cx="671.0509634172" cy="102.93714102865903" opacity="0.8274881193179531"></circle><circle r="6.648982625638483" cx="468.93670177707617" cy="255.70354536487116" opacity="0.10716322398360258"></circle><circle r="4.814138866326314" cx="454.5535946526958" cy="338.80375084068777" opacity="0.961581102324556"></circle><circle r="9.50291790794534" cx="21.856074301962614" cy="425.1771035441501" opacity="0.2613498809258132"></circle><circle r="9.98323773539359" cx="457.1326266635493" cy="379.7592486003583" opacity="0.32923000424061455"></circle><circle r="7.614128841918021" cx="28.643966482127805" cy="16.645138125749956" opacity="0.8869821447141977"></circle><circle r="9.883654840228807" cx="469.5454939094184" cy="597.8604056095799" opacity="0.15544884276885512"></circle><circle r="8.725333446735798" cx="292.2982193471166" cy="624.6234536642694" opacity="0.9198674497492656"></circle><circle r="4.442199075456977" cx="372.34743587972196" cy="784.558899276611" opacity="0.8256173826183926"></circle><circle r="5.9292480645778" cx="521.0067560002808" cy="138.36407008184347" opacity="0.5908882963780681"></circle><circle r="5.326924759038514" cx="407.1847879087982" cy="375.79893388266197" opacity="0.7418584316173124"></circle><circle r="6.130107608685069" cx="612.5707611560298" cy="283.181288985865" opacity="0.12258540092037042"></circle><circle r="11.479542454291654" cx="616.0015442871385" cy="404.02668054891893" opacity="0.10266215699142117"></circle><circle r="5.319175255506197" cx="583.00890098006" cy="288.21628064782533" opacity="0.5498905142900754"></circle><circle r="9.939556524093614" cx="78.99769058358596" cy="179.55188080212827" opacity="0.976117533012031"></circle><circle r="5.690020911961051" cx="665.815254299207" cy="235.19260682082276" opacity="0.7103629223751365"></circle><circle r="8.983026728828246" cx="686.8111275295618" cy="606.8970516871309" opacity="0.44839688957421375"></circle><circle r="8.823515900085152" cx="770.7168177624806" cy="556.8491737125148" opacity="0.4001114044645543"></circle><circle r="4.207288925692125" cx="726.8321284992094" cy="77.42906162214507" opacity="0.31737182987403767"></circle><circle r="9.178506818935876" cx="730.5848741058387" cy="196.0972139345845" opacity="0.18919383814270319"></circle><circle r="4.973992453503554" cx="683.5572668512928" cy="281.4482076509842" opacity="0.15128090093108792"></circle><circle r="8.709435704373792" cx="291.5979752712644" cy="525.7660302983203" opacity="0.8804376805534345"></circle><circle r="4.361927040051249" cx="427.54107251875985" cy="357.3034714992219" opacity="0.3594951528564059"></circle><circle r="9.343069748317237" cx="669.3062509706732" cy="470.1601516926848" opacity="0.13698802564616697"></circle><circle r="6.71799391808092" cx="492.6467267744139" cy="331.18984676127957" opacity="0.14285841392318913"></circle><circle r="6.716748261614493" cx="644.4506194344399" cy="316.9235135001675" opacity="0.44220016629932046"></circle><circle r="7.197717475325327" cx="614.1876852725458" cy="505.8676146553637" opacity="0.901451818524084"></circle><circle r="12.178105132565468" cx="63.4151228916264" cy="395.6688096354095" opacity="0.4046222809383482"></circle><circle r="5.255793063310883" cx="633.5176876808948" cy="13.181005194758155" opacity="0.8554776948325459"></circle><circle r="8.256708717271588" cx="299.2604794118235" cy="65.7927817306859" opacity="0.2414642964999436"></circle><circle r="6.955894137545229" cx="638.8343586894537" cy="550.6298117323735" opacity="0.500920134547903"></circle><circle r="6.2611404949723966" cx="594.4702832857062" cy="125.23865253157095" opacity="0.4954797556560466"></circle><circle r="4.2788970385657885" cx="699.2558219198575" cy="320.32825159968604" opacity="0.5509654320075013"></circle><circle r="6.18549179163976" cx="678.3822339926619" cy="71.9579186033764" opacity="0.773581904669963"></circle><circle r="5.92923573561802" cx="429.6271706388292" cy="21.679938178957563" opacity="0.3030964203144383"></circle><circle r="6.2885271489300845" cx="18.317462628060664" cy="127.84341238321588" opacity="0.1902660869094685"></circle><circle r="11.648825638468097" cx="21.45770812075321" cy="573.1862627947942" opacity="0.12141452523032656"></circle><circle r="8.217365027647224" cx="132.9662538079743" cy="744.3665184652341" opacity="0.3033438468122009"></circle><circle r="10.569928941253512" cx="204.11110240264955" cy="288.32826102935064" opacity="0.5338543162029643"></circle><circle r="4.945626763902608" cx="487.5836878794152" cy="153.380453549707" opacity="0.42369881750946203"></circle><circle r="11.89687223554477" cx="36.16317341560116" cy="508.6370666771946" opacity="0.9961684799547986"></circle><circle r="8.396359215312387" cx="281.3242454397768" cy="776.7497114604163" opacity="0.7528019964283001"></circle><circle r="6.337387167600239" cx="508.8793532051124" cy="456.5992367053895" opacity="0.25130943942082967"></circle><circle r="11.975184597483516" cx="230.96513546322495" cy="429.1079504246968" opacity="0.811384903348177"></circle><circle r="7.402971673303911" cx="150.45541472843476" cy="168.36091672078462" opacity="0.7354749163116037"></circle><circle r="11.08492729771865" cx="718.1610142108531" cy="552.0004071382743" opacity="0.2797388219317761"></circle><circle r="6.962928626653941" cx="447.5860230010949" cy="453.84406503464555" opacity="0.7465540119925033"></circle><circle r="8.27732963174503" cx="318.81808653602883" cy="110.35600804694549" opacity="0.5201335955824962"></circle><circle r="6.406137518755446" cx="569.9817935194543" cy="472.16168906600836" opacity="0.6541371226603004"></circle><circle r="8.194444549022997" cx="424.01959063636787" cy="561.3218902774294" opacity="0.8675100404015064"></circle><circle r="7.8001468568116294" cx="236.59542314899534" cy="257.51574047944746" opacity="0.28640139737123765"></circle><circle r="5.0600109980451" cx="706.570869705478" cy="161.7535308022829" opacity="0.9065661927055405"></circle><circle r="4.653131628461355" cx="455.30693262654825" cy="55.965374526977435" opacity="0.12095093155674443"></circle><circle r="6.181861738904825" cx="594.2143750665406" cy="764.5684265424867" opacity="0.7916151101230848"></circle><circle r="7.925617238582445" cx="446.79325395536483" cy="187.52146517640927" opacity="0.20639311130334112"></circle><circle r="10.516503249771361" cx="283.06375581620176" cy="261.15360296466764" opacity="0.3672826213487733"></circle><circle r="5.102731975616937" cx="372.83965271947466" cy="161.50303125949134" opacity="0.48800601477560657"></circle><circle r="9.582549705700782" cx="293.76947412680187" cy="691.0249944978179" opacity="0.1480258182359356"></circle><circle r="5.210423849283681" cx="728.9492541694644" cy="49.14041863412832" opacity="0.947685220315796"></circle><circle r="6.047448176217447" cx="404.90803235400836" cy="773.8245633457692" opacity="0.5772880847878618"></circle><circle r="7.651297616470724" cx="467.79400201814826" cy="426.903712896095" opacity="0.5856622411479665"></circle><circle r="8.05068508323684" cx="427.89152619660484" cy="636.2335323372807" opacity="0.8363539434088132"></circle><circle r="5.4224637561419256" cx="557.3260174213938" cy="143.10151724197004" opacity="0.1791535927544856"></circle><circle r="6.374535648793184" cx="584.829807484875" cy="539.6436224205999" opacity="0.2482937433725661"></circle><circle r="13.69682784483054" cx="772.2382997129152" cy="227.8737092213334" opacity="0.24385553601533977"></circle><circle r="8.39408808561769" cx="290.6567003623441" cy="441.1803243175304" opacity="0.9761770000678254"></circle><circle r="5.298756225042935" cx="517.7458817613768" cy="301.3558925926727" opacity="0.6684504079985631"></circle><circle r="11.170796205251694" cx="715.7584160397008" cy="774.3171574114594" opacity="0.15694202686391961"></circle><circle r="8.815643322810281" cx="644.9484785566236" cy="129.37203115520566" opacity="0.3554757513633474"></circle><circle r="7.928067565631265" cx="313.0763476819666" cy="756.0550118106643" opacity="0.8534918831247639"></circle><circle r="5.088894791991432" cx="742.6895612834321" cy="589.7840449229633" opacity="0.28838789398644404"></circle><circle r="6.0343536482492555" cx="268.5800995715029" cy="111.84672303216831" opacity="0.7257617540884564"></circle><circle r="12.841357638143442" cx="772.1194417594871" cy="286.6068884530458" opacity="0.544491088930327"></circle><circle r="6.150389204592932" cx="479.50206396151856" cy="637.013563075277" opacity="0.11678368777396204"></circle><circle r="7.5941530741055585" cx="44.03553245236473" cy="459.8154281940858" opacity="0.18163713031623077"></circle><circle r="10.058125360362885" cx="24.257406704397873" cy="202.02506832400533" opacity="0.4652020110786915"></circle><circle r="5.549330701267418" cx="365.9431817639065" cy="496.5853755895256" opacity="0.5488789527085411"></circle><circle r="4.344988306649961" cx="789.0147172146809" cy="115.08237742439408" opacity="0.9916721478704935"></circle><circle r="6.341868710642393" cx="133.12416769359868" cy="267.94844494258524" opacity="0.7047363429556385"></circle><circle r="12.36599964675655" cx="111.30788676852522" cy="66.24952310473275" opacity="0.8787997014944197"></circle><circle r="8.416658268636338" cx="390.6006557325879" cy="402.4979722027763" opacity="0.6568312498984072"></circle><circle r="5.428627531444145" cx="352.0054942560162" cy="244.884776564105" opacity="0.7213377243335349"></circle><circle r="5.836270237260912" cx="242.12430128247468" cy="506.6390195193755" opacity="0.2031430519896845"></circle><circle r="7.441247408299429" cx="489.61288411015175" cy="681.8050558929891" opacity="0.36166856560447114"></circle><circle r="4.129462998969656" cx="400.2673980873717" cy="234.31660433610224" opacity="0.4386504495615531"></circle><circle r="8.629877613404439" cx="154.04197360783166" cy="129.76263568872517" opacity="0.590894020066334"></circle><circle r="9.353367585212698" cx="169.26065937117434" cy="450.49690905977616" opacity="0.870412718232986"></circle><circle r="8.055868684331179" cx="155.0895844967215" cy="40.586211420556594" opacity="0.29333973351971065"></circle><circle r="8.39233452080501" cx="306.0372458788285" cy="21.29994482724364" opacity="0.7869208534047921"></circle><circle r="7.12904131994791" cx="652.6337977803205" cy="696.1249256436645" opacity="0.322160156697889"></circle><circle r="7.590204873011895" cx="656.655094768197" cy="190.44207135031243" opacity="0.13818483241946164"></circle><circle r="8.312165748254447" cx="596.7480361285209" cy="28.75910916683784" opacity="0.2905603493139644"></circle><circle r="3.656219292537613" cx="554.4090527885526" cy="364.18742415168845" opacity="0.8201127644980222"></circle><circle r="7.533988592849809" cx="580.1325805158143" cy="434.2553406146599" opacity="0.9225828418326819"></circle><circle r="10.246007414383735" cx="111.06950993911012" cy="452.8128571947973" opacity="0.43213953173473196"></circle><circle r="10.363698040825788" cx="22.929753849502024" cy="337.4937715668679" opacity="0.22191195041313605"></circle><circle r="2.9209069894576083" cx="695.1964208911282" cy="110.0701750546885" opacity="0.41840371585585845"></circle><circle r="5.640839010882061" cx="82.60526190129127" cy="654.8048540349773" opacity="0.24598400809837098"></circle><circle r="5.394088197379727" cx="675.9115032670527" cy="656.8311199102009" opacity="0.2349868307874823"></circle><circle r="8.384525192427931" cx="240.91100748207973" cy="581.9401850386226" opacity="0.36724982345511714"></circle><circle r="5.208943411119554" cx="255.01161921429969" cy="222.09511892252237" opacity="0.6953160048834752"></circle><circle r="4.758206181384884" cx="597.6796651001209" cy="94.77453476130196" opacity="0.40590378511174174"></circle><circle r="5.727574672653561" cx="342.8992349799258" cy="750.49581658818" opacity="0.965033196407392"></circle><circle r="7.595112174941423" cx="596.4211030378643" cy="362.43265488529414" opacity="0.1097338419069081"></circle><circle r="9.855982809241652" cx="588.1992955986216" cy="203.03803739174336" opacity="0.7878744368758527"></circle><circle r="7.971521065212842" cx="499.21365244937226" cy="774.8298957660713" opacity="0.5758337108639674"></circle><circle r="6.28129518351961" cx="31.920674930229783" cy="779.0753806696125" opacity="0.6731689267932358"></circle><circle r="6.193713974421607" cx="502.4411359842417" cy="195.50712110019694" opacity="0.3561821623417364"></circle><circle r="5.286533074085106" cx="503.25888807311867" cy="365.05854119865" opacity="0.8552500157168602"></circle><circle r="10.209921913916904" cx="546.7368075252289" cy="186.6605644839651" opacity="0.7946681387433683"></circle><circle r="14.069279006163429" cx="182.74764525626813" cy="766.5332512877917" opacity="0.2831198911238704"></circle><circle r="7.390895788347628" cx="234.54799692679185" cy="778.5181440329861" opacity="0.2855474538263837"></circle><circle r="6.9778037365036925" cx="785.2620099993644" cy="68.29399458497014" opacity="0.30535863590648715"></circle><circle r="10.449989850348253" cx="174.0171381918141" cy="652.1824027650032" opacity="0.1813204846554804"></circle><circle r="13.801309505071526" cx="113.88418116498394" cy="687.7342224332974" opacity="0.6164437011927846"></circle><circle r="8.674182573878285" cx="414.34024554366164" cy="732.2899535498952" opacity="0.4676591090151462"></circle><circle r="10.611282947814264" cx="718.8255056351553" cy="256.374524768489" opacity="0.26160535932817264"></circle><circle r="7.114305729181421" cx="498.62603546356496" cy="103.20773143896758" opacity="0.17360663000741253"></circle><circle r="9.666459292166111" cx="219.61265254714698" cy="360.7463350025925" opacity="0.8570653509154729"></circle><circle r="5.480359611437299" cx="571.4421073864621" cy="314.5966619535238" opacity="0.5333329553184809"></circle><circle r="9.101921495068943" cx="336.91515765963237" cy="531.703016152344" opacity="0.5511805619410559"></circle><circle r="7.003666913646681" cx="632.9222096430196" cy="451.72356105186714" opacity="0.24413141501494787"></circle><circle r="9.225543513540874" cx="640.9906059848688" cy="81.41471290979034" opacity="0.14257026922049618"></circle><circle r="9.29450252561311" cx="180.05553629437978" cy="406.3888013795814" opacity="0.5373946528349419"></circle><circle r="9.569068428576468" cx="290.4699878813721" cy="577.6595235612162" opacity="0.197610763371934"></circle><circle r="5.906978131523369" cx="189.4510530647657" cy="62.34001732963485" opacity="0.27523631046725605"></circle><circle r="7.800095529075252" cx="120.26082705347379" cy="615.1469895137951" opacity="0.16496492882641334"></circle><circle r="10.293644801150805" cx="445.20768673957394" cy="777.3770204451184" opacity="0.3549713046343006"></circle><circle r="7.599019306809199" cx="466.7551774204616" cy="90.00176082132805" opacity="0.8183593099563283"></circle><circle r="11.000632496676307" cx="116.7663465708421" cy="205.00038060840245" opacity="0.24611189516377352"></circle><circle r="6.420848197248418" cx="536.7824649731137" cy="387.1316067741706" opacity="0.484934317183763"></circle><circle r="7.485964794011753" cx="368.6779072248856" cy="656.4197013431658" opacity="0.8882726668972419"></circle><circle r="11.402770316203057" cx="87.29036834795262" cy="291.6242914299346" opacity="0.32235534967218193"></circle><circle r="4.951944101948754" cx="493.10060331671554" cy="403.27920639794695" opacity="0.5952956251774234"></circle><circle r="10.534622926194412" cx="254.70206877464454" cy="308.45902650878577" opacity="0.6693646450345683"></circle><circle r="9.259728633534284" cx="171.36692370620125" cy="317.82566197380163" opacity="0.9521151335754762"></circle><circle r="5.118719198583451" cx="418.79116421284164" cy="596.4208934731516" opacity="0.8502785110204499"></circle><circle r="4.485336821873802" cx="343.0427112376529" cy="342.6260767696256" opacity="0.9279117874902549"></circle><circle r="9.283682715376184" cx="579.1937673747843" cy="678.0055515827921" opacity="0.9052104571563245"></circle><circle r="5.41359925287755" cx="206.11001665920674" cy="481.5928070568068" opacity="0.13181073669894852"></circle><circle r="6.876528947180622" cx="613.3871090096063" cy="785.7194282022672" opacity="0.6813895001560405"></circle><circle r="9.279358140969975" cx="465.2957471968247" cy="489.70401855221155" opacity="0.5764235321223078"></circle><circle r="11.759511725115264" cx="108.8355741907558" cy="503.76499575246595" opacity="0.725395067946231"></circle><circle r="7.588778509308656" cx="129.56704468429612" cy="16.156902080637" opacity="0.41003474679549967"></circle><circle r="7.664899649265552" cx="620.2807760200269" cy="733.3621641694198" opacity="0.7398935699524227"></circle><circle r="7.622689211116048" cx="751.0184804126044" cy="18.817475796448395" opacity="0.9486378184950842"></circle><circle r="7.895127856820672" cx="773.9850749784847" cy="747.9504606805532" opacity="0.9629677342501969"></circle><circle r="9.889288598812207" cx="223.12670005375608" cy="543.9969156628479" opacity="0.38783563132647714"></circle><circle r="4.931632141520248" cx="764.815378853934" cy="97.89156384270352" opacity="0.48664704401935077"></circle><circle r="4.9002569282028166" cx="565.1555626745223" cy="343.8786472195745" opacity="0.9429920096295095"></circle><circle r="6.40351035833429" cx="123.11021883494699" cy="114.60450539361428" opacity="0.8949156547523412"></circle><circle r="6.587696797435825" cx="698.9321463610648" cy="53.88478487107305" opacity="0.741555564610658"></circle><circle r="6.010776468725921" cx="750.7868573030958" cy="489.84397252867757" opacity="0.7026182166087979"></circle><circle r="4.095195401680756" cx="631.4285629314145" cy="250.5971082827266" opacity="0.2522619148777139"></circle><circle r="5.546548406684057" cx="677.8644924187778" cy="168.96521165459072" opacity="0.21098743114416268"></circle><circle r="7.7734282523190235" cx="98.51247596201694" cy="779.759411836608" opacity="0.5053123722028524"></circle><circle r="3.943888699175311" cx="604.2843836567647" cy="703.2474701167993" opacity="0.824076845238715"></circle><circle r="8.56290059562615" cx="408.74429057938863" cy="142.528831982461" opacity="0.2852991595551964"></circle><circle r="7.3247347017384845" cx="551.2588056578719" cy="282.5137775034605" opacity="0.9361046072329202"></circle><circle r="6.2478973402371" cx="395.3789165064542" cy="338.6164425370146" opacity="0.8260021016674876"></circle><circle r="11.963412221778817" cx="717.5970153993559" cy="359.1148840383781" opacity="0.9671980832581869"></circle><circle r="5.228742110347685" cx="380.9870934348814" cy="249.0390222047717" opacity="0.6834357350382482"></circle><circle r="7.5646735563124095" cx="219.55298912784625" cy="212.81061343197044" opacity="0.23948616959933128"></circle><circle r="6.091607864314855" cx="484.455777928551" cy="286.8855680001563" opacity="0.7366811064374594"></circle><circle r="4.762570177561159" cx="660.842177864733" cy="734.47380964025" opacity="0.94555504651413"></circle><circle r="3.3680802963223333" cx="516.9148647404077" cy="9.812586081346828" opacity="0.7615414800707389"></circle><circle r="7.071189799246108" cx="509.64481619479943" cy="654.2592916762202" opacity="0.9434705025428101"></circle><circle r="10.093969510751933" cx="77.59995129281083" cy="26.98507360864175" opacity="0.9652078699567148"></circle><circle r="6.077043246562764" cx="247.54643374952383" cy="176.7435075603807" opacity="0.9065312008430356"></circle><circle r="7.29633829892045" cx="735.7724805441458" cy="409.06991338287503" opacity="0.16059687810245993"></circle><circle r="8.672919898056472" cx="677.2336278044988" cy="515.3245584544795" opacity="0.8939342291528142"></circle><circle r="5.44305792007802" cx="380.16210995859154" cy="552.9914815533455" opacity="0.6224649846857861"></circle><circle r="4.4446020094067995" cx="335.72220525396665" cy="678.4885160827325" opacity="0.8410066863055713"></circle><circle r="6.219758159089526" cx="755.7233172021415" cy="62.908219840476804" opacity="0.9200058624740245"></circle><circle r="6.8989475353434795" cx="555.9763339363942" cy="514.6466008220342" opacity="0.6716937545948538"></circle><circle r="2.9861633342906004" cx="696.230011036156" cy="91.59372124041454" opacity="0.3320862385405309"></circle><circle r="6.81949402822659" cx="370.07721242962185" cy="371.54917636875825" opacity="0.26146525317238134"></circle><circle r="5.879497179247042" cx="450.5926656361703" cy="137.72577264034243" opacity="0.1439435825016594"></circle><circle r="6.15428245348234" cx="268.41350588176726" cy="477.27986250289257" opacity="0.16788733737966727"></circle><circle r="7.362218740830162" cx="246.18782239746787" cy="65.68689015500883" opacity="0.8085998666699623"></circle><circle r="6.235969596235423" cx="671.9863908053209" cy="329.72028581916607" opacity="0.8528177245216857"></circle><circle r="7.989365446350749" cx="121.2401897783216" cy="336.9464436698083" opacity="0.29816299749138897"></circle><circle r="4.498205333542581" cx="413.48650766218753" cy="199.01414116617937" opacity="0.30425877448503647"></circle><circle r="5.336181934641523" cx="338.38958788057005" cy="204.84283569143537" opacity="0.6605579204893535"></circle><circle r="7.777401361628971" cx="515.7926053165676" cy="62.56535935411465" opacity="0.7708363969273724"></circle><circle r="6.8398705418326795" cx="117.37677967467296" cy="400.6834487047717" opacity="0.5579403967482988"></circle><circle r="7.428456375617188" cx="533.2638748052623" cy="422.9408207858735" opacity="0.7671247290618813"></circle><circle r="8.131795042351408" cx="72.56438194611961" cy="344.6278299541924" opacity="0.8406174830467921"></circle><circle r="5.504506145368694" cx="330.49553601873123" cy="786.3886233314457" opacity="0.9940130601259481"></circle><circle r="5.874668114632563" cx="775.3661492619852" cy="711.4463646117727" opacity="0.5558088810672275"></circle><circle r="7.335841029185193" cx="392.28368153086285" cy="295.665821058906" opacity="0.1737656273953319"></circle><circle r="5.821414660445146" cx="625.6892875240109" cy="602.875177774419" opacity="0.3151114532856735"></circle><circle r="4.688970173467999" cx="23.230821779495916" cy="739.1192137502647" opacity="0.12321049699146994"></circle><circle r="8.211731652841795" cx="20.61643706039437" cy="57.96242952718701" opacity="0.3494569685743344"></circle><circle r="8.22935642130263" cx="433.7979915240648" cy="240.2078731716509" opacity="0.21973128964784455"></circle><circle r="5.113276838923211" cx="614.4258590254291" cy="563.8793387063182" opacity="0.9530326482070027"></circle><circle r="8.96004480154054" cx="200.61034153996448" cy="21.630279510421833" opacity="0.8340666794005904"></circle><circle r="9.801283586754131" cx="69.93357103310659" cy="728.0709399924098" opacity="0.4761959999699029"></circle><circle r="6.589705482807691" cx="536.5383266931019" cy="332.99997348183973" opacity="0.7136886346342703"></circle><circle r="5.634270596590786" cx="717.5620722020683" cy="660.0652624932324" opacity="0.543134709820685"></circle><circle r="4.765255858927968" cx="337.1960238348312" cy="713.2086420055696" opacity="0.21284690461717798"></circle><circle r="7.704958257335746" cx="646.5932749768914" cy="630.4072782057217" opacity="0.5783770449734961"></circle><circle r="7.704826804217145" cx="287.83223315299534" cy="728.0593795071075" opacity="0.30883460090880277"></circle><circle r="7.079217830537189" cx="266.1097607444112" cy="393.5440610340388" opacity="0.20042448845998323"></circle><circle r="3.6784801118285415" cx="309.26384090693773" cy="231.24884348597666" opacity="0.30050670837441407"></circle><circle r="6.493886356439211" cx="473.54752180511724" cy="747.8191359654409" opacity="0.15465038030864006"></circle><circle r="4.1521710027099905" cx="681.5552984093569" cy="761.5066398817897" opacity="0.1554180723251146"></circle><circle r="5.642762389878105" cx="339.8207879512069" cy="573.9143709645217" opacity="0.8372862834015682"></circle><circle r="7.961552283381686" cx="742.182370098607" cy="625.8622855368567" opacity="0.4593343711433705"></circle><circle r="7.289832187288498" cx="355.2600622225811" cy="17.79017651271848" opacity="0.8748687733382619"></circle><circle r="6.525324896834551" cx="478.6544094496595" cy="222.83050671025376" opacity="0.3232195380212542"></circle><circle r="10.001026430056918" cx="323.9319873337716" cy="473.81483679178984" opacity="0.7660874714920564"></circle><circle r="14.496052710053519" cx="672.8615385476024" cy="394.1452167730081" opacity="0.5033724812254095"></circle><circle r="6.045612064700359" cx="375.0562759924922" cy="712.5724384376209" opacity="0.6559555881228957"></circle><circle r="8.165830559857778" cx="447.57049262061867" cy="671.6564654852382" opacity="0.9351597422187137"></circle><circle r="9.279687808130898" cx="177.56079261861413" cy="246.1078189916422" opacity="0.8459461763944742"></circle><circle r="6.21408871385758" cx="515.7317224633681" cy="256.78038121296277" opacity="0.8906566247896187"></circle><circle r="8.414264839539424" cx="18.848403799512603" cy="379.93183454951946" opacity="0.6204801621977456"></circle><circle r="4.247353925155879" cx="508.7244869060398" cy="35.236073537225586" opacity="0.35660120670826756"></circle><circle r="4.3332015600847615" cx="647.1528762434377" cy="279.5923339788398" opacity="0.19361931168415805"></circle><circle r="12.31385420740164" cx="711.0763100046148" cy="461.0199767299786" opacity="0.8670335491581739"></circle><circle r="7.804251412572642" cx="723.3652316981297" cy="722.5036285716631" opacity="0.24497470554175615"></circle><circle r="12.236746245003456" cx="58.51672706027361" cy="82.88418146330199" opacity="0.26265206647333317"></circle><circle r="5.74157603333826" cx="650.0056911599369" cy="779.3492253989615" opacity="0.31514914400125343"></circle><circle r="8.973211098971515" cx="339.5924235272984" cy="612.2293727498937" opacity="0.6134723828847737"></circle><circle r="10.217415198849501" cx="44.746364902855206" cy="619.0056081429137" opacity="0.847465878927952"></circle><circle r="7.237359622892686" cx="700.7600291231408" cy="216.51273157655157" opacity="0.5094002273268633"></circle><circle r="6.5912600561787995" cx="457.7157105747837" cy="303.52695740162164" opacity="0.24570077855585823"></circle><circle r="5.9298406419529055" cx="224.96105686718676" cy="147.88775426448314" opacity="0.9397733884453775"></circle><circle r="8.366802881286747" cx="331.90859536657626" cy="374.5729323877724" opacity="0.2314543337239802"></circle><circle r="11.519146567813115" cx="286.0016623642257" cy="347.6253957784609" opacity="0.6013777505377834"></circle><circle r="8.257242113221452" cx="371.7055044886268" cy="445.9504732231811" opacity="0.596924049643606"></circle><circle r="6.228952106181016" cx="620.7304562463319" cy="660.2006085446319" opacity="0.9614281874092286"></circle><circle r="6.839603055475592" cx="548.6865334407515" cy="232.95884252401152" opacity="0.3485936027622011"></circle><circle r="8.756650689615203" cx="425.9746899427859" cy="414.3181605619206" opacity="0.6668771695528802"></circle><circle r="10.17481636820367" cx="239.98162784895086" cy="731.3430339718478" opacity="0.6335824168862727"></circle><circle r="5.32990386263485" cx="598.7426137420053" cy="159.52636628613976" opacity="0.707146755741657"></circle></g></svg>