<svg xmlns="http://www.w3.org/2000/svg" version="1.1" xmlns:xlink="http://www.w3.org/1999/xlink" xmlns:svgjs="http://svgjs.dev/svgjs" viewBox="0 0 800 800"><defs><linearGradient x1="50%" y1="0%" x2="50%" y2="100%" id="ffflurry-grad" gradientTransform="rotate(270)"><stop stop-color="hsl(212, 100%, 1%)" stop-opacity="1" offset="0%"></stop><stop stop-color="hsl(230, 100%, 33%)" stop-opacity="1" offset="45%"></stop><stop stop-color="hsl(0, 0%, 65%)" stop-opacity="1" offset="100%"></stop></linearGradient></defs><rect width="100%" height="100%" fill="hsl(212, 100%, 1%)"></rect><g fill="url(#ffflurry-grad)"><rect width="467" height="3" x="259.5" y="249.5" rx="1.5" transform="rotate(49, 493, 251)" opacity="0.63"></rect><rect width="95" height="3" x="327.5" y="216.5" rx="1.5" transform="rotate(49, 375, 218)" opacity="0.60"></rect><rect width="213" height="3" x="401.5" y="618.5" rx="1.5" transform="rotate(49, 508, 620)" opacity="0.94"></rect><rect width="118" height="3" x="50" y="111.5" rx="1.5" transform="rotate(49, 109, 113)" opacity="0.13"></rect><rect width="358" height="3" x="-49" y="34.5" rx="1.5" transform="rotate(49, 130, 36)" opacity="0.71"></rect><rect width="244" height="3" x="368" y="338.5" rx="1.5" transform="rotate(49, 490, 340)" opacity="0.17"></rect><rect width="224" height="3" x="-77" y="268.5" rx="1.5" transform="rotate(49, 35, 270)" opacity="0.45"></rect><rect width="319" height="3" x="-116.5" y="25.5" rx="1.5" transform="rotate(49, 43, 27)" opacity="0.80"></rect><rect width="207" height="3" x="93.5" y="578.5" rx="1.5" transform="rotate(49, 197, 580)" opacity="0.22"></rect><rect width="276" height="3" x="417" y="498.5" rx="1.5" transform="rotate(49, 555, 500)" opacity="0.61"></rect><rect width="95" height="3" x="576.5" y="737.5" rx="1.5" transform="rotate(49, 624, 739)" opacity="0.37"></rect><rect width="86" height="3" x="407" y="281.5" rx="1.5" transform="rotate(49, 450, 283)" opacity="0.08"></rect><rect width="302" height="3" x="11" y="309.5" rx="1.5" transform="rotate(49, 162, 311)" opacity="0.93"></rect><rect width="142" height="3" x="265" y="731.5" rx="1.5" transform="rotate(49, 336, 733)" opacity="0.76"></rect><rect width="461" height="3" x="102.5" y="56.5" rx="1.5" transform="rotate(49, 333, 58)" opacity="0.70"></rect><rect width="203" height="3" x="-58.5" y="414.5" rx="1.5" transform="rotate(49, 43, 416)" opacity="0.19"></rect><rect width="130" height="3" x="240" y="555.5" rx="1.5" transform="rotate(49, 305, 557)" opacity="0.79"></rect><rect width="408" height="3" x="166" y="560.5" rx="1.5" transform="rotate(49, 370, 562)" opacity="0.15"></rect><rect width="90" height="3" x="528" y="21.5" rx="1.5" transform="rotate(49, 573, 23)" opacity="0.40"></rect><rect width="202" height="3" x="268" y="499.5" rx="1.5" transform="rotate(49, 369, 501)" opacity="0.74"></rect><rect width="503" height="3" x="-219.5" y="595.5" rx="1.5" transform="rotate(49, 32, 597)" opacity="0.09"></rect><rect width="251" height="3" x="28.5" y="640.5" rx="1.5" transform="rotate(49, 154, 642)" opacity="0.42"></rect><rect width="169" height="3" x="22.5" y="348.5" rx="1.5" transform="rotate(49, 107, 350)" opacity="0.16"></rect><rect width="177" height="3" x="690.5" y="674.5" rx="1.5" transform="rotate(49, 779, 676)" opacity="0.16"></rect><rect width="286" height="3" x="-101" y="770.5" rx="1.5" transform="rotate(49, 42, 772)" opacity="0.80"></rect><rect width="139" height="3" x="351.5" y="315.5" rx="1.5" transform="rotate(49, 421, 317)" opacity="0.29"></rect><rect width="43" height="3" x="275.5" y="481.5" rx="1.5" transform="rotate(49, 297, 483)" opacity="0.98"></rect><rect width="223" height="3" x="333.5" y="84.5" rx="1.5" transform="rotate(49, 445, 86)" opacity="0.40"></rect><rect width="172" height="3" x="688" y="256.5" rx="1.5" transform="rotate(49, 774, 258)" opacity="0.61"></rect><rect width="243" height="3" x="-3.5" y="443.5" rx="1.5" transform="rotate(49, 118, 445)" opacity="0.92"></rect><rect width="467" height="3" x="52.5" y="394.5" rx="1.5" transform="rotate(49, 286, 396)" opacity="0.97"></rect><rect width="64" height="3" x="740" y="453.5" rx="1.5" transform="rotate(49, 772, 455)" opacity="0.23"></rect><rect width="113" height="3" x="359.5" y="588.5" rx="1.5" transform="rotate(49, 416, 590)" opacity="0.17"></rect><rect width="428" height="3" x="224" y="753.5" rx="1.5" transform="rotate(49, 438, 755)" opacity="0.95"></rect><rect width="346" height="3" x="551" y="366.5" rx="1.5" transform="rotate(49, 724, 368)" opacity="0.24"></rect><rect width="265" height="3" x="-100.5" y="704.5" rx="1.5" transform="rotate(49, 32, 706)" opacity="0.35"></rect><rect width="380" height="3" x="-80" y="589.5" rx="1.5" transform="rotate(49, 110, 591)" opacity="0.42"></rect><rect width="255" height="3" x="352.5" y="146.5" rx="1.5" transform="rotate(49, 480, 148)" opacity="1.00"></rect><rect width="281" height="3" x="629.5" y="727.5" rx="1.5" transform="rotate(49, 770, 729)" opacity="0.57"></rect><rect width="193" height="3" x="90.5" y="98.5" rx="1.5" transform="rotate(49, 187, 100)" opacity="0.92"></rect><rect width="378" height="3" x="479" y="695.5" rx="1.5" transform="rotate(49, 668, 697)" opacity="0.21"></rect><rect width="127" height="3" x="414.5" y="194.5" rx="1.5" transform="rotate(49, 478, 196)" opacity="0.37"></rect><rect width="281" height="3" x="621.5" y="623.5" rx="1.5" transform="rotate(49, 762, 625)" opacity="0.24"></rect><rect width="359" height="3" x="343.5" y="734.5" rx="1.5" transform="rotate(49, 523, 736)" opacity="0.20"></rect><rect width="108" height="3" x="165" y="696.5" rx="1.5" transform="rotate(49, 219, 698)" opacity="0.82"></rect><rect width="226" height="3" x="394" y="428.5" rx="1.5" transform="rotate(49, 507, 430)" opacity="0.57"></rect><rect width="52" height="3" x="424" y="499.5" rx="1.5" transform="rotate(49, 450, 501)" opacity="1.00"></rect><rect width="232" height="3" x="128" y="661.5" rx="1.5" transform="rotate(49, 244, 663)" opacity="0.71"></rect><rect width="410" height="3" x="-20" y="250.5" rx="1.5" transform="rotate(49, 185, 252)" opacity="0.55"></rect><rect width="216" height="3" x="455" y="286.5" rx="1.5" transform="rotate(49, 563, 288)" opacity="0.59"></rect><rect width="76" height="3" x="640" y="583.5" rx="1.5" transform="rotate(49, 678, 585)" opacity="0.73"></rect><rect width="570" height="3" x="-239" y="503.5" rx="1.5" transform="rotate(49, 46, 505)" opacity="0.25"></rect><rect width="266" height="3" x="120" y="267.5" rx="1.5" transform="rotate(49, 253, 269)" opacity="0.91"></rect><rect width="160" height="3" x="260" y="617.5" rx="1.5" transform="rotate(49, 340, 619)" opacity="0.13"></rect><rect width="317" height="3" x="73.5" y="768.5" rx="1.5" transform="rotate(49, 232, 770)" opacity="0.36"></rect><rect width="349" height="3" x="176.5" y="437.5" rx="1.5" transform="rotate(49, 351, 439)" opacity="0.30"></rect><rect width="333" height="3" x="486.5" y="772.5" rx="1.5" transform="rotate(49, 653, 774)" opacity="0.65"></rect><rect width="173" height="3" x="602.5" y="533.5" rx="1.5" transform="rotate(49, 689, 535)" opacity="0.82"></rect><rect width="222" height="3" x="254" y="772.5" rx="1.5" transform="rotate(49, 365, 774)" opacity="0.93"></rect><rect width="118" height="3" x="-8" y="204.5" rx="1.5" transform="rotate(49, 51, 206)" opacity="0.27"></rect><rect width="478" height="3" x="-163" y="657.5" rx="1.5" transform="rotate(49, 76, 659)" opacity="0.12"></rect><rect width="87" height="3" x="205.5" y="546.5" rx="1.5" transform="rotate(49, 249, 548)" opacity="0.83"></rect><rect width="197" height="3" x="414.5" y="526.5" rx="1.5" transform="rotate(49, 513, 528)" opacity="0.08"></rect><rect width="210" height="3" x="530" y="31.5" rx="1.5" transform="rotate(49, 635, 33)" opacity="0.87"></rect><rect width="241" height="3" x="163.5" y="773.5" rx="1.5" transform="rotate(49, 284, 775)" opacity="0.70"></rect><rect width="371" height="3" x="-80.5" y="753.5" rx="1.5" transform="rotate(49, 105, 755)" opacity="0.56"></rect><rect width="159" height="3" x="-41.5" y="86.5" rx="1.5" transform="rotate(49, 38, 88)" opacity="0.08"></rect><rect width="338" height="3" x="-138" y="154.5" rx="1.5" transform="rotate(49, 31, 156)" opacity="0.11"></rect><rect width="182" height="3" x="328" y="364.5" rx="1.5" transform="rotate(49, 419, 366)" opacity="0.48"></rect><rect width="75" height="3" x="652.5" y="634.5" rx="1.5" transform="rotate(49, 690, 636)" opacity="0.13"></rect><rect width="37" height="3" x="604.5" y="594.5" rx="1.5" transform="rotate(49, 623, 596)" opacity="0.35"></rect><rect width="256" height="3" x="106" y="337.5" rx="1.5" transform="rotate(49, 234, 339)" opacity="0.73"></rect><rect width="217" height="3" x="607.5" y="410.5" rx="1.5" transform="rotate(49, 716, 412)" opacity="0.93"></rect><rect width="164" height="3" x="171" y="206.5" rx="1.5" transform="rotate(49, 253, 208)" opacity="0.73"></rect><rect width="124" height="3" x="641" y="254.5" rx="1.5" transform="rotate(49, 703, 256)" opacity="0.48"></rect><rect width="66" height="3" x="71" y="256.5" rx="1.5" transform="rotate(49, 104, 258)" opacity="0.20"></rect><rect width="102" height="3" x="577" y="133.5" rx="1.5" transform="rotate(49, 628, 135)" opacity="0.94"></rect><rect width="328" height="3" x="386" y="583.5" rx="1.5" transform="rotate(49, 550, 585)" opacity="0.33"></rect><rect width="310" height="3" x="119" y="624.5" rx="1.5" transform="rotate(49, 274, 626)" opacity="0.90"></rect><rect width="168" height="3" x="461" y="140.5" rx="1.5" transform="rotate(49, 545, 142)" opacity="0.24"></rect><rect width="166" height="3" x="694" y="390.5" rx="1.5" transform="rotate(49, 777, 392)" opacity="0.46"></rect><rect width="451" height="3" x="487.5" y="125.5" rx="1.5" transform="rotate(49, 713, 127)" opacity="0.56"></rect><rect width="147" height="3" x="294.5" y="391.5" rx="1.5" transform="rotate(49, 368, 393)" opacity="0.76"></rect><rect width="380" height="3" x="217" y="28.5" rx="1.5" transform="rotate(49, 407, 30)" opacity="0.44"></rect><rect width="47" height="3" x="178.5" y="437.5" rx="1.5" transform="rotate(49, 202, 439)" opacity="0.48"></rect><rect width="253" height="3" x="432.5" y="355.5" rx="1.5" transform="rotate(49, 559, 357)" opacity="0.93"></rect><rect width="149" height="3" x="151.5" y="728.5" rx="1.5" transform="rotate(49, 226, 730)" opacity="0.42"></rect><rect width="128" height="3" x="188" y="455.5" rx="1.5" transform="rotate(49, 252, 457)" opacity="0.78"></rect><rect width="361" height="3" x="-49.5" y="702.5" rx="1.5" transform="rotate(49, 131, 704)" opacity="0.47"></rect><rect width="257" height="3" x="52.5" y="766.5" rx="1.5" transform="rotate(49, 181, 768)" opacity="0.14"></rect><rect width="141" height="3" x="487.5" y="218.5" rx="1.5" transform="rotate(49, 558, 220)" opacity="0.76"></rect><rect width="223" height="3" x="553.5" y="89.5" rx="1.5" transform="rotate(49, 665, 91)" opacity="0.69"></rect><rect width="407" height="3" x="-16.5" y="176.5" rx="1.5" transform="rotate(49, 187, 178)" opacity="0.53"></rect><rect width="326" height="3" x="21" y="385.5" rx="1.5" transform="rotate(49, 184, 387)" opacity="0.18"></rect><rect width="123" height="3" x="545.5" y="401.5" rx="1.5" transform="rotate(49, 607, 403)" opacity="0.88"></rect><rect width="211" height="3" x="213.5" y="232.5" rx="1.5" transform="rotate(49, 319, 234)" opacity="0.76"></rect><rect width="52" height="3" x="532" y="648.5" rx="1.5" transform="rotate(49, 558, 650)" opacity="0.78"></rect><rect width="412" height="3" x="558" y="32.5" rx="1.5" transform="rotate(49, 764, 34)" opacity="0.49"></rect><rect width="336" height="3" x="120" y="703.5" rx="1.5" transform="rotate(49, 288, 705)" opacity="0.83"></rect><rect width="186" height="3" x="407" y="25.5" rx="1.5" transform="rotate(49, 500, 27)" opacity="0.81"></rect><rect width="74" height="3" x="143" y="726.5" rx="1.5" transform="rotate(49, 180, 728)" opacity="0.94"></rect><rect width="235" height="3" x="307.5" y="229.5" rx="1.5" transform="rotate(49, 425, 231)" opacity="0.69"></rect><rect width="97" height="3" x="593.5" y="281.5" rx="1.5" transform="rotate(49, 642, 283)" opacity="0.81"></rect><rect width="443" height="3" x="42.5" y="84.5" rx="1.5" transform="rotate(49, 264, 86)" opacity="0.72"></rect><rect width="22" height="3" x="584" y="782.5" rx="1.5" transform="rotate(49, 595, 784)" opacity="0.98"></rect><rect width="400" height="3" x="-167" y="338.5" rx="1.5" transform="rotate(49, 33, 340)" opacity="0.13"></rect><rect width="159" height="3" x="581.5" y="418.5" rx="1.5" transform="rotate(49, 661, 420)" opacity="0.47"></rect><rect width="390" height="3" x="435" y="196.5" rx="1.5" transform="rotate(49, 630, 198)" opacity="0.10"></rect><rect width="107" height="3" x="67.5" y="184.5" rx="1.5" transform="rotate(49, 121, 186)" opacity="0.92"></rect><rect width="132" height="3" x="305" y="673.5" rx="1.5" transform="rotate(49, 371, 675)" opacity="0.16"></rect><rect width="128" height="3" x="563" y="641.5" rx="1.5" transform="rotate(49, 627, 643)" opacity="0.93"></rect><rect width="254" height="3" x="615" y="188.5" rx="1.5" transform="rotate(49, 742, 190)" opacity="0.28"></rect><rect width="114" height="3" x="136" y="662.5" rx="1.5" transform="rotate(49, 193, 664)" opacity="0.36"></rect><rect width="204" height="3" x="671" y="109.5" rx="1.5" transform="rotate(49, 773, 111)" opacity="0.17"></rect><rect width="266" height="3" x="456" y="530.5" rx="1.5" transform="rotate(49, 589, 532)" opacity="0.27"></rect><rect width="247" height="3" x="614.5" y="570.5" rx="1.5" transform="rotate(49, 738, 572)" opacity="0.87"></rect><rect width="319" height="3" x="155.5" y="282.5" rx="1.5" transform="rotate(49, 315, 284)" opacity="0.46"></rect><rect width="361" height="3" x="571.5" y="321.5" rx="1.5" transform="rotate(49, 752, 323)" opacity="0.89"></rect><rect width="299" height="3" x="372.5" y="80.5" rx="1.5" transform="rotate(49, 522, 82)" opacity="0.77"></rect><rect width="72" height="3" x="554" y="569.5" rx="1.5" transform="rotate(49, 590, 571)" opacity="0.56"></rect><rect width="263" height="3" x="469.5" y="689.5" rx="1.5" transform="rotate(49, 601, 691)" opacity="0.84"></rect><rect width="116" height="3" x="417" y="690.5" rx="1.5" transform="rotate(49, 475, 692)" opacity="0.88"></rect><rect width="36" height="3" x="684" y="775.5" rx="1.5" transform="rotate(49, 702, 777)" opacity="0.79"></rect><rect width="243" height="3" x="453.5" y="446.5" rx="1.5" transform="rotate(49, 575, 448)" opacity="0.77"></rect><rect width="141" height="3" x="76.5" y="782.5" rx="1.5" transform="rotate(49, 147, 784)" opacity="0.75"></rect><rect width="161" height="3" x="391.5" y="564.5" rx="1.5" transform="rotate(49, 472, 566)" opacity="0.32"></rect><rect width="257" height="3" x="428.5" y="764.5" rx="1.5" transform="rotate(49, 557, 766)" opacity="0.97"></rect><rect width="33" height="3" x="117.5" y="528.5" rx="1.5" transform="rotate(49, 134, 530)" opacity="0.54"></rect><rect width="176" height="3" x="694" y="551.5" rx="1.5" transform="rotate(49, 782, 553)" opacity="0.23"></rect><rect width="535" height="3" x="126.5" y="144.5" rx="1.5" transform="rotate(49, 394, 146)" opacity="0.79"></rect><rect width="188" height="3" x="611" y="452.5" rx="1.5" transform="rotate(49, 705, 454)" opacity="0.49"></rect><rect width="112" height="3" x="390" y="640.5" rx="1.5" transform="rotate(49, 446, 642)" opacity="0.36"></rect><rect width="185" height="3" x="607.5" y="36.5" rx="1.5" transform="rotate(49, 700, 38)" opacity="0.63"></rect><rect width="119" height="3" x="288.5" y="344.5" rx="1.5" transform="rotate(49, 348, 346)" opacity="0.27"></rect><rect width="296" height="3" x="148" y="327.5" rx="1.5" transform="rotate(49, 296, 329)" opacity="0.26"></rect><rect width="310" height="3" x="604" y="503.5" rx="1.5" transform="rotate(49, 759, 505)" opacity="0.77"></rect><rect width="373" height="3" x="458.5" y="474.5" rx="1.5" transform="rotate(49, 645, 476)" opacity="0.48"></rect><rect width="263" height="3" x="579.5" y="491.5" rx="1.5" transform="rotate(49, 711, 493)" opacity="0.62"></rect><rect width="148" height="3" x="189" y="144.5" rx="1.5" transform="rotate(49, 263, 146)" opacity="0.25"></rect><rect width="110" height="3" x="378" y="430.5" rx="1.5" transform="rotate(49, 433, 432)" opacity="0.81"></rect><rect width="407" height="3" x="168.5" y="282.5" rx="1.5" transform="rotate(49, 372, 284)" opacity="0.39"></rect><rect width="38" height="3" x="305" y="165.5" rx="1.5" transform="rotate(49, 324, 167)" opacity="0.63"></rect><rect width="342" height="3" x="554" y="678.5" rx="1.5" transform="rotate(49, 725, 680)" opacity="0.24"></rect><rect width="458" height="3" x="425" y="349.5" rx="1.5" transform="rotate(49, 654, 351)" opacity="0.44"></rect><rect width="209" height="3" x="124.5" y="26.5" rx="1.5" transform="rotate(49, 229, 28)" opacity="0.95"></rect><rect width="65" height="3" x="678.5" y="732.5" rx="1.5" transform="rotate(49, 711, 734)" opacity="0.53"></rect><rect width="182" height="3" x="541" y="523.5" rx="1.5" transform="rotate(49, 632, 525)" opacity="0.20"></rect><rect width="38" height="3" x="566" y="79.5" rx="1.5" transform="rotate(49, 585, 81)" opacity="0.39"></rect><rect width="176" height="3" x="676" y="776.5" rx="1.5" transform="rotate(49, 764, 778)" opacity="0.44"></rect><rect width="250" height="3" x="63" y="493.5" rx="1.5" transform="rotate(49, 188, 495)" opacity="0.77"></rect></g></svg>