<svg xmlns="http://www.w3.org/2000/svg" version="1.1" xmlns:xlink="http://www.w3.org/1999/xlink" xmlns:svgjs="http://svgjs.dev/svgjs" viewBox="0 0 800 800"><defs><linearGradient x1="50%" y1="0%" x2="50%" y2="100%" id="ffflurry-grad" gradientTransform="rotate(270)"><stop stop-color="hsl(212, 100%, 1%)" stop-opacity="1" offset="0%"></stop><stop stop-color="hsl(230, 100%, 33%)" stop-opacity="1" offset="45%"></stop><stop stop-color="hsl(0, 0%, 65%)" stop-opacity="1" offset="100%"></stop></linearGradient></defs><rect width="100%" height="100%" fill="hsl(212, 100%, 1%)"></rect><g fill="url(#ffflurry-grad)"><rect width="285" height="3" x="-105.5" y="613.5" rx="1.5" transform="rotate(45, 37, 615)" opacity="0.11"></rect><rect width="557" height="3" x="194.5" y="402.5" rx="1.5" transform="rotate(45, 473, 404)" opacity="0.51"></rect><rect width="454" height="3" x="10" y="109.5" rx="1.5" transform="rotate(45, 237, 111)" opacity="0.24"></rect><rect width="304" height="3" x="396" y="21.5" rx="1.5" transform="rotate(45, 548, 23)" opacity="0.24"></rect><rect width="593" height="3" x="-93.5" y="420.5" rx="1.5" transform="rotate(45, 203, 422)" opacity="0.52"></rect><rect width="393" height="3" x="57.5" y="587.5" rx="1.5" transform="rotate(45, 254, 589)" opacity="0.54"></rect><rect width="435" height="3" x="-26.5" y="258.5" rx="1.5" transform="rotate(45, 191, 260)" opacity="0.23"></rect><rect width="202" height="3" x="643" y="309.5" rx="1.5" transform="rotate(45, 744, 311)" opacity="0.09"></rect><rect width="104" height="3" x="720" y="443.5" rx="1.5" transform="rotate(45, 772, 445)" opacity="0.38"></rect><rect width="389" height="3" x="165.5" y="37.5" rx="1.5" transform="rotate(45, 360, 39)" opacity="0.83"></rect><rect width="645" height="3" x="-156.5" y="582.5" rx="1.5" transform="rotate(45, 166, 584)" opacity="0.92"></rect><rect width="693" height="3" x="284.5" y="251.5" rx="1.5" transform="rotate(45, 631, 253)" opacity="0.85"></rect><rect width="271" height="3" x="101.5" y="34.5" rx="1.5" transform="rotate(45, 237, 36)" opacity="0.66"></rect><rect width="270" height="3" x="479" y="474.5" rx="1.5" transform="rotate(45, 614, 476)" opacity="0.33"></rect><rect width="87" height="3" x="730.5" y="725.5" rx="1.5" transform="rotate(45, 774, 727)" opacity="0.94"></rect><rect width="562" height="3" x="19" y="218.5" rx="1.5" transform="rotate(45, 300, 220)" opacity="0.90"></rect><rect width="121" height="3" x="592.5" y="38.5" rx="1.5" transform="rotate(45, 653, 40)" opacity="0.96"></rect><rect width="546" height="3" x="352" y="752.5" rx="1.5" transform="rotate(45, 625, 754)" opacity="0.18"></rect><rect width="581" height="3" x="251.5" y="443.5" rx="1.5" transform="rotate(45, 542, 445)" opacity="0.84"></rect><rect width="57" height="3" x="476.5" y="738.5" rx="1.5" transform="rotate(45, 505, 740)" opacity="0.73"></rect><rect width="159" height="3" x="-16.5" y="385.5" rx="1.5" transform="rotate(45, 63, 387)" opacity="0.52"></rect><rect width="212" height="3" x="130" y="725.5" rx="1.5" transform="rotate(45, 236, 727)" opacity="0.46"></rect><rect width="412" height="3" x="-130" y="116.5" rx="1.5" transform="rotate(45, 76, 118)" opacity="0.80"></rect><rect width="242" height="3" x="379" y="74.5" rx="1.5" transform="rotate(45, 500, 76)" opacity="0.16"></rect><rect width="195" height="3" x="232.5" y="621.5" rx="1.5" transform="rotate(45, 330, 623)" opacity="0.84"></rect><rect width="279" height="3" x="586.5" y="763.5" rx="1.5" transform="rotate(45, 726, 765)" opacity="0.80"></rect><rect width="488" height="3" x="-31" y="337.5" rx="1.5" transform="rotate(45, 213, 339)" opacity="0.29"></rect><rect width="207" height="3" x="218.5" y="126.5" rx="1.5" transform="rotate(45, 322, 128)" opacity="0.17"></rect><rect width="463" height="3" x="478.5" y="428.5" rx="1.5" transform="rotate(45, 710, 430)" opacity="0.46"></rect><rect width="344" height="3" x="-79" y="210.5" rx="1.5" transform="rotate(45, 93, 212)" opacity="0.32"></rect><rect width="391" height="3" x="441.5" y="537.5" rx="1.5" transform="rotate(45, 637, 539)" opacity="0.98"></rect><rect width="239" height="3" x="451.5" y="650.5" rx="1.5" transform="rotate(45, 571, 652)" opacity="0.18"></rect><rect width="254" height="3" x="317" y="93.5" rx="1.5" transform="rotate(45, 444, 95)" opacity="0.57"></rect><rect width="307" height="3" x="58.5" y="184.5" rx="1.5" transform="rotate(45, 212, 186)" opacity="0.98"></rect><rect width="57" height="3" x="428.5" y="24.5" rx="1.5" transform="rotate(45, 457, 26)" opacity="0.35"></rect><rect width="284" height="3" x="243" y="240.5" rx="1.5" transform="rotate(45, 385, 242)" opacity="0.78"></rect><rect width="171" height="3" x="299.5" y="760.5" rx="1.5" transform="rotate(45, 385, 762)" opacity="0.88"></rect><rect width="492" height="3" x="414" y="138.5" rx="1.5" transform="rotate(45, 660, 140)" opacity="0.80"></rect><rect width="696" height="3" x="398" y="546.5" rx="1.5" transform="rotate(45, 746, 548)" opacity="0.84"></rect><rect width="482" height="3" x="119" y="559.5" rx="1.5" transform="rotate(45, 360, 561)" opacity="0.47"></rect><rect width="234" height="3" x="194" y="356.5" rx="1.5" transform="rotate(45, 311, 358)" opacity="0.67"></rect><rect width="673" height="3" x="407.5" y="198.5" rx="1.5" transform="rotate(45, 744, 200)" opacity="0.86"></rect><rect width="127" height="3" x="-26.5" y="254.5" rx="1.5" transform="rotate(45, 37, 256)" opacity="0.20"></rect><rect width="73" height="3" x="360.5" y="133.5" rx="1.5" transform="rotate(45, 397, 135)" opacity="0.76"></rect><rect width="350" height="3" x="124" y="292.5" rx="1.5" transform="rotate(45, 299, 294)" opacity="0.31"></rect><rect width="782" height="3" x="-334" y="743.5" rx="1.5" transform="rotate(45, 57, 745)" opacity="0.90"></rect><rect width="441" height="3" x="172.5" y="476.5" rx="1.5" transform="rotate(45, 393, 478)" opacity="0.41"></rect><rect width="351" height="3" x="374.5" y="309.5" rx="1.5" transform="rotate(45, 550, 311)" opacity="0.34"></rect><rect width="592" height="3" x="346" y="365.5" rx="1.5" transform="rotate(45, 642, 367)" opacity="0.84"></rect><rect width="525" height="3" x="-218.5" y="458.5" rx="1.5" transform="rotate(45, 44, 460)" opacity="0.44"></rect><rect width="415" height="3" x="445.5" y="608.5" rx="1.5" transform="rotate(45, 653, 610)" opacity="0.37"></rect><rect width="409" height="3" x="109.5" y="683.5" rx="1.5" transform="rotate(45, 314, 685)" opacity="0.21"></rect><rect width="209" height="3" x="471.5" y="81.5" rx="1.5" transform="rotate(45, 576, 83)" opacity="0.49"></rect><rect width="232" height="3" x="651" y="632.5" rx="1.5" transform="rotate(45, 767, 634)" opacity="0.94"></rect><rect width="633" height="3" x="167.5" y="556.5" rx="1.5" transform="rotate(45, 484, 558)" opacity="0.18"></rect><rect width="207" height="3" x="254.5" y="408.5" rx="1.5" transform="rotate(45, 358, 410)" opacity="0.20"></rect><rect width="258" height="3" x="-94" y="326.5" rx="1.5" transform="rotate(45, 35, 328)" opacity="0.80"></rect><rect width="316" height="3" x="266" y="668.5" rx="1.5" transform="rotate(45, 424, 670)" opacity="0.78"></rect><rect width="132" height="3" x="401" y="286.5" rx="1.5" transform="rotate(45, 467, 288)" opacity="0.53"></rect><rect width="284" height="3" x="609" y="66.5" rx="1.5" transform="rotate(45, 751, 68)" opacity="0.23"></rect><rect width="255" height="3" x="160.5" y="762.5" rx="1.5" transform="rotate(45, 288, 764)" opacity="0.66"></rect><rect width="122" height="3" x="149" y="663.5" rx="1.5" transform="rotate(45, 210, 665)" opacity="0.51"></rect><rect width="123" height="3" x="51.5" y="34.5" rx="1.5" transform="rotate(45, 113, 36)" opacity="0.09"></rect><rect width="534" height="3" x="-141" y="339.5" rx="1.5" transform="rotate(45, 126, 341)" opacity="0.52"></rect><rect width="495" height="3" x="-98.5" y="115.5" rx="1.5" transform="rotate(45, 149, 117)" opacity="0.98"></rect><rect width="229" height="3" x="2.5" y="653.5" rx="1.5" transform="rotate(45, 117, 655)" opacity="0.62"></rect><rect width="42" height="3" x="9" y="36.5" rx="1.5" transform="rotate(45, 30, 38)" opacity="0.12"></rect><rect width="164" height="3" x="132" y="508.5" rx="1.5" transform="rotate(45, 214, 510)" opacity="0.57"></rect><rect width="278" height="3" x="372" y="145.5" rx="1.5" transform="rotate(45, 511, 147)" opacity="0.57"></rect><rect width="146" height="3" x="218" y="471.5" rx="1.5" transform="rotate(45, 291, 473)" opacity="0.11"></rect><rect width="584" height="3" x="-189" y="512.5" rx="1.5" transform="rotate(45, 103, 514)" opacity="0.45"></rect><rect width="434" height="3" x="483" y="674.5" rx="1.5" transform="rotate(45, 700, 676)" opacity="0.70"></rect><rect width="431" height="3" x="-49.5" y="755.5" rx="1.5" transform="rotate(45, 166, 757)" opacity="0.37"></rect><rect width="106" height="3" x="352" y="344.5" rx="1.5" transform="rotate(45, 405, 346)" opacity="0.93"></rect><rect width="323" height="3" x="300.5" y="198.5" rx="1.5" transform="rotate(45, 462, 200)" opacity="0.90"></rect><rect width="565" height="3" x="287.5" y="181.5" rx="1.5" transform="rotate(45, 570, 183)" opacity="0.81"></rect><rect width="289" height="3" x="-122.5" y="133.5" rx="1.5" transform="rotate(45, 22, 135)" opacity="0.17"></rect></g></svg>