<svg xmlns="http://www.w3.org/2000/svg" version="1.1" xmlns:xlink="http://www.w3.org/1999/xlink" xmlns:svgjs="http://svgjs.dev/svgjs" viewBox="0 0 800 800"><defs><linearGradient x1="50%" y1="0%" x2="50%" y2="100%" id="ffflurry-grad" gradientTransform="rotate(270)"><stop stop-color="hsl(238, 83%, 12%)" stop-opacity="1" offset="0%"></stop><stop stop-color="hsl(1, 100%, 44%)" stop-opacity="1" offset="45%"></stop><stop stop-color="hsl(0, 0%, 100%)" stop-opacity="1" offset="100%"></stop></linearGradient></defs><rect width="100%" height="100%" fill="hsl(238, 83%, 12%)"></rect><g fill="url(#ffflurry-grad)"><rect width="346" height="3" x="602" y="762.5" rx="1.5" transform="rotate(45, 775, 764)" opacity="0.87"></rect><rect width="106" height="3" x="578" y="419.5" rx="1.5" transform="rotate(45, 631, 421)" opacity="0.34"></rect><rect width="278" height="3" x="418" y="570.5" rx="1.5" transform="rotate(45, 557, 572)" opacity="0.19"></rect><rect width="470" height="3" x="197" y="533.5" rx="1.5" transform="rotate(45, 432, 535)" opacity="0.15"></rect><rect width="404" height="3" x="554" y="405.5" rx="1.5" transform="rotate(45, 756, 407)" opacity="0.73"></rect><rect width="408" height="3" x="485" y="234.5" rx="1.5" transform="rotate(45, 689, 236)" opacity="0.33"></rect><rect width="404" height="3" x="123" y="202.5" rx="1.5" transform="rotate(45, 325, 204)" opacity="0.37"></rect><rect width="475" height="3" x="-15.5" y="231.5" rx="1.5" transform="rotate(45, 222, 233)" opacity="0.60"></rect><rect width="548" height="3" x="166" y="154.5" rx="1.5" transform="rotate(45, 440, 156)" opacity="0.10"></rect><rect width="282" height="3" x="131" y="566.5" rx="1.5" transform="rotate(45, 272, 568)" opacity="0.86"></rect><rect width="240" height="3" x="548" y="516.5" rx="1.5" transform="rotate(45, 668, 518)" opacity="0.67"></rect><rect width="371" height="3" x="-157.5" y="233.5" rx="1.5" transform="rotate(45, 28, 235)" opacity="0.78"></rect><rect width="420" height="3" x="454" y="696.5" rx="1.5" transform="rotate(45, 664, 698)" opacity="0.42"></rect><rect width="302" height="3" x="457" y="213.5" rx="1.5" transform="rotate(45, 608, 215)" opacity="0.13"></rect><rect width="471" height="3" x="-205.5" y="391.5" rx="1.5" transform="rotate(45, 30, 393)" opacity="0.30"></rect><rect width="176" height="3" x="501" y="157.5" rx="1.5" transform="rotate(45, 589, 159)" opacity="0.86"></rect><rect width="62" height="3" x="231" y="766.5" rx="1.5" transform="rotate(45, 262, 768)" opacity="0.62"></rect><rect width="154" height="3" x="285" y="617.5" rx="1.5" transform="rotate(45, 362, 619)" opacity="0.33"></rect><rect width="216" height="3" x="663" y="646.5" rx="1.5" transform="rotate(45, 771, 648)" opacity="0.48"></rect><rect width="399" height="3" x="302.5" y="762.5" rx="1.5" transform="rotate(45, 502, 764)" opacity="0.55"></rect><rect width="468" height="3" x="525" y="156.5" rx="1.5" transform="rotate(45, 759, 158)" opacity="0.55"></rect><rect width="90" height="3" x="672" y="470.5" rx="1.5" transform="rotate(45, 717, 472)" opacity="0.89"></rect><rect width="162" height="3" x="-16" y="586.5" rx="1.5" transform="rotate(45, 65, 588)" opacity="0.85"></rect><rect width="457" height="3" x="434.5" y="112.5" rx="1.5" transform="rotate(45, 663, 114)" opacity="0.59"></rect><rect width="309" height="3" x="404.5" y="106.5" rx="1.5" transform="rotate(45, 559, 108)" opacity="0.49"></rect><rect width="190" height="3" x="-67" y="320.5" rx="1.5" transform="rotate(45, 28, 322)" opacity="0.08"></rect><rect width="139" height="3" x="587.5" y="173.5" rx="1.5" transform="rotate(45, 657, 175)" opacity="0.37"></rect><rect width="115" height="3" x="48.5" y="202.5" rx="1.5" transform="rotate(45, 106, 204)" opacity="0.90"></rect><rect width="420" height="3" x="162" y="755.5" rx="1.5" transform="rotate(45, 372, 757)" opacity="0.87"></rect><rect width="132" height="3" x="212" y="690.5" rx="1.5" transform="rotate(45, 278, 692)" opacity="0.52"></rect><rect width="532" height="3" x="-70" y="34.5" rx="1.5" transform="rotate(45, 196, 36)" opacity="0.85"></rect><rect width="216" height="3" x="657" y="39.5" rx="1.5" transform="rotate(45, 765, 41)" opacity="0.99"></rect><rect width="705" height="3" x="-72.5" y="460.5" rx="1.5" transform="rotate(45, 280, 462)" opacity="0.88"></rect><rect width="107" height="3" x="657.5" y="570.5" rx="1.5" transform="rotate(45, 711, 572)" opacity="0.71"></rect><rect width="539" height="3" x="-118.5" y="151.5" rx="1.5" transform="rotate(45, 151, 153)" opacity="0.30"></rect><rect width="205" height="3" x="607.5" y="641.5" rx="1.5" transform="rotate(45, 710, 643)" opacity="0.26"></rect><rect width="86" height="3" x="502" y="699.5" rx="1.5" transform="rotate(45, 545, 701)" opacity="0.18"></rect><rect width="295" height="3" x="-105.5" y="483.5" rx="1.5" transform="rotate(45, 42, 485)" opacity="0.81"></rect><rect width="449" height="3" x="-108.5" y="82.5" rx="1.5" transform="rotate(45, 116, 84)" opacity="0.15"></rect><rect width="275" height="3" x="483.5" y="760.5" rx="1.5" transform="rotate(45, 621, 762)" opacity="0.55"></rect><rect width="153" height="3" x="162.5" y="122.5" rx="1.5" transform="rotate(45, 239, 124)" opacity="0.69"></rect><rect width="111" height="3" x="414.5" y="80.5" rx="1.5" transform="rotate(45, 470, 82)" opacity="0.76"></rect><rect width="389" height="3" x="12.5" y="382.5" rx="1.5" transform="rotate(45, 207, 384)" opacity="0.42"></rect><rect width="319" height="3" x="173.5" y="328.5" rx="1.5" transform="rotate(45, 333, 330)" opacity="0.95"></rect><rect width="247" height="3" x="35.5" y="757.5" rx="1.5" transform="rotate(45, 159, 759)" opacity="0.58"></rect><rect width="82" height="3" x="64" y="413.5" rx="1.5" transform="rotate(45, 105, 415)" opacity="0.50"></rect><rect width="338" height="3" x="-43" y="678.5" rx="1.5" transform="rotate(45, 126, 680)" opacity="0.11"></rect><rect width="804" height="3" x="-77" y="63.5" rx="1.5" transform="rotate(45, 325, 65)" opacity="0.37"></rect><rect width="93" height="3" x="481.5" y="199.5" rx="1.5" transform="rotate(45, 528, 201)" opacity="0.79"></rect><rect width="183" height="3" x="61.5" y="504.5" rx="1.5" transform="rotate(45, 153, 506)" opacity="0.80"></rect><rect width="353" height="3" x="308.5" y="617.5" rx="1.5" transform="rotate(45, 485, 619)" opacity="0.61"></rect><rect width="94" height="3" x="724" y="547.5" rx="1.5" transform="rotate(45, 771, 549)" opacity="0.39"></rect><rect width="227" height="3" x="-69.5" y="724.5" rx="1.5" transform="rotate(45, 44, 726)" opacity="0.94"></rect><rect width="340" height="3" x="18" y="296.5" rx="1.5" transform="rotate(45, 188, 298)" opacity="0.72"></rect><rect width="379" height="3" x="510.5" y="55.5" rx="1.5" transform="rotate(45, 700, 57)" opacity="0.94"></rect><rect width="153" height="3" x="-29.5" y="44.5" rx="1.5" transform="rotate(45, 47, 46)" opacity="0.77"></rect><rect width="192" height="3" x="330" y="30.5" rx="1.5" transform="rotate(45, 426, 32)" opacity="0.15"></rect><rect width="80" height="3" x="668" y="768.5" rx="1.5" transform="rotate(45, 708, 770)" opacity="0.58"></rect><rect width="435" height="3" x="310.5" y="408.5" rx="1.5" transform="rotate(45, 528, 410)" opacity="0.39"></rect><rect width="103" height="3" x="528.5" y="503.5" rx="1.5" transform="rotate(45, 580, 505)" opacity="0.11"></rect><rect width="523" height="3" x="387.5" y="603.5" rx="1.5" transform="rotate(45, 649, 605)" opacity="0.52"></rect><rect width="145" height="3" x="514.5" y="34.5" rx="1.5" transform="rotate(45, 587, 36)" opacity="0.28"></rect><rect width="624" height="3" x="444" y="284.5" rx="1.5" transform="rotate(45, 756, 286)" opacity="0.20"></rect><rect width="57" height="3" x="564.5" y="649.5" rx="1.5" transform="rotate(45, 593, 651)" opacity="0.11"></rect><rect width="432" height="3" x="531" y="708.5" rx="1.5" transform="rotate(45, 747, 710)" opacity="0.75"></rect><rect width="431" height="3" x="-22.5" y="627.5" rx="1.5" transform="rotate(45, 193, 629)" opacity="0.84"></rect><rect width="88" height="3" x="376" y="462.5" rx="1.5" transform="rotate(45, 420, 464)" opacity="0.34"></rect><rect width="54" height="3" x="30" y="279.5" rx="1.5" transform="rotate(45, 57, 281)" opacity="0.78"></rect><rect width="532" height="3" x="253" y="309.5" rx="1.5" transform="rotate(45, 519, 311)" opacity="0.24"></rect><rect width="495" height="3" x="180.5" y="691.5" rx="1.5" transform="rotate(45, 428, 693)" opacity="0.54"></rect><rect width="551" height="3" x="158.5" y="249.5" rx="1.5" transform="rotate(45, 434, 251)" opacity="0.61"></rect><rect width="172" height="3" x="23" y="267.5" rx="1.5" transform="rotate(45, 109, 269)" opacity="0.66"></rect><rect width="322" height="3" x="434" y="270.5" rx="1.5" transform="rotate(45, 595, 272)" opacity="0.53"></rect><rect width="217" height="3" x="546.5" y="336.5" rx="1.5" transform="rotate(45, 655, 338)" opacity="0.95"></rect><rect width="505" height="3" x="162.5" y="382.5" rx="1.5" transform="rotate(45, 415, 384)" opacity="0.97"></rect><rect width="119" height="3" x="-21.5" y="150.5" rx="1.5" transform="rotate(45, 38, 152)" opacity="0.58"></rect><rect width="104" height="3" x="54" y="341.5" rx="1.5" transform="rotate(45, 106, 343)" opacity="0.67"></rect></g></svg>