<?xml version="1.0" encoding="UTF-8" standalone="no"?>
<!-- Created with Inkscape (http://www.inkscape.org/) -->

<svg
   width="205mm"
   height="180mm"
   viewBox="0 0 205 180"
   version="1.1"
   id="svg1"
   xml:space="preserve"
   inkscape:version="1.3 (0e150ed6c4, 2023-07-21)"
   sodipodi:docname="layout 1.svg"
   xmlns:inkscape="http://www.inkscape.org/namespaces/inkscape"
   xmlns:sodipodi="http://sodipodi.sourceforge.net/DTD/sodipodi-0.dtd"
   xmlns="http://www.w3.org/2000/svg"
   xmlns:svg="http://www.w3.org/2000/svg"><sodipodi:namedview
     id="namedview1"
     pagecolor="#505050"
     bordercolor="#eeeeee"
     borderopacity="1"
     inkscape:showpageshadow="0"
     inkscape:pageopacity="0"
     inkscape:pagecheckerboard="0"
     inkscape:deskcolor="#505050"
     inkscape:document-units="mm"
     inkscape:zoom="0.58083614"
     inkscape:cx="560.39901"
     inkscape:cy="378.76431"
     inkscape:window-width="1536"
     inkscape:window-height="890"
     inkscape:window-x="-6"
     inkscape:window-y="-6"
     inkscape:window-maximized="1"
     inkscape:current-layer="layer1" /><defs
     id="defs1" /><g
     inkscape:label="Layer 1"
     inkscape:groupmode="layer"
     id="layer1"><path
       id="rect1-8-9-2-23-7"
       clip-path="none"
       style="fill:#454545;stroke-width:0.037751"
       d="m 7.479428,159.74886 h 33.628827 c 0.533088,0 0.962253,0.42916 0.962253,0.96225 v 1.16753 c 0,0.53309 -0.429165,0.96225 -0.962253,0.96225 H 7.479428 c -0.5330883,0 -0.9622533,-0.42916 -0.9622533,-0.96225 v -1.16753 c 0,-0.53309 0.429165,-0.96225 0.9622533,-0.96225 z" /><path
       id="rect1-8-9-2-23-4-1"
       clip-path="none"
       style="fill:#454545;stroke-width:0.045741"
       d="m 7.479428,164.74886 h 50.271378 c 0.533088,0 0.962253,0.42916 0.962253,0.96225 v 1.16753 c 0,0.53309 -0.429165,0.96225 -0.962253,0.96225 H 7.479428 c -0.5330883,0 -0.9622533,-0.42916 -0.9622533,-0.96225 v -1.16753 c 0,-0.53309 0.429165,-0.96225 0.9622533,-0.96225 z" /><path
       id="rect1-8-9-2-23-4-8-9"
       clip-path="none"
       style="fill:#454545;stroke-width:0.026694"
       d="m 7.479428,169.74886 h 15.85216 c 0.533088,0 0.962253,0.42916 0.962253,0.96225 v 1.16753 c 0,0.53309 -0.429165,0.96225 -0.962253,0.96225 H 7.479428 c -0.5330883,0 -0.9622533,-0.42916 -0.9622533,-0.96225 v -1.16753 c 0,-0.53309 0.429165,-0.96225 0.9622533,-0.96225 z" /><path
       id="rect1"
       clip-path="none"
       style="opacity:1;fill:#0051cb;stroke-width:0.235185"
       d="m 11.77818,6.6441717 h 42.811322 c 2.914597,0 5.261005,2.3464082 5.261005,5.2610053 v 69.47799 c 0,2.914597 -2.346408,5.261005 -5.261005,5.261005 H 11.77818 c -2.9145971,0 -5.2610053,-2.346408 -5.2610053,-5.261005 v -69.47799 c 0,-2.9145971 2.3464082,-5.2610053 5.2610053,-5.2610053 z" /><path
       id="rect1-8-9"
       clip-path="none"
       style="fill:#454545;stroke-width:0.282078"
       d="M 66.141474,49.911751 H 195.90005 c 1.64776,0 2.9743,1.326535 2.9743,2.974294 v 39.279187 c 0,1.647759 -1.32654,2.974294 -2.9743,2.974294 H 66.141474 c -1.64776,0 -2.974295,-1.326535 -2.974295,-2.974294 V 52.886045 c 0,-1.647759 1.326535,-2.974294 2.974295,-2.974294 z" /><path
       id="rect1-8-9-1"
       clip-path="none"
       style="fill:#454545;stroke-width:0.135529"
       d="M 65.960573,110.27125 H 196.08095 c 1.54754,0 2.7934,1.24585 2.7934,2.79339 v 4.85394 c 0,1.54754 -1.24586,2.79339 -2.7934,2.79339 H 65.960573 c -1.54754,0 -2.793394,-1.24585 -2.793394,-2.79339 v -4.85394 c 0,-1.54754 1.245854,-2.79339 2.793394,-2.79339 z" /><path
       id="rect1-8-9-2"
       clip-path="none"
       style="fill:#454545;stroke-width:0.0424426"
       d="m 65.405271,98.644173 h 14.845248 c 1.239903,0 2.238092,0.998189 2.238092,2.238087 v 2.71555 c 0,1.23991 -0.998189,2.2381 -2.238092,2.2381 H 65.405271 c -1.239903,0 -2.238092,-0.99819 -2.238092,-2.2381 v -2.71555 c 0,-1.239898 0.998189,-2.238087 2.238092,-2.238087 z" /><path
       id="rect1-8-9-2-1"
       clip-path="none"
       style="fill:#454545;stroke-width:0.0266225"
       d="M 7.8338276,138.35716 H 18.122787 c 0.729426,0 1.316653,0.58723 1.316653,1.31666 v 1.59753 c 0,0.72943 -0.587227,1.31666 -1.316653,1.31666 H 7.8338276 c -0.7294257,0 -1.3166529,-0.58723 -1.3166529,-1.31666 v -1.59753 c 0,-0.72943 0.5872272,-1.31666 1.3166529,-1.31666 z" /><path
       id="rect1-8-9-2-1-8"
       clip-path="none"
       style="fill:#454545;stroke-width:0.0266225"
       d="m 22.055169,138.35716 h 10.288959 c 0.729426,0 1.316653,0.58723 1.316653,1.31666 v 1.59753 c 0,0.72943 -0.587227,1.31666 -1.316653,1.31666 H 22.055169 c -0.729426,0 -1.316653,-0.58723 -1.316653,-1.31666 v -1.59753 c 0,-0.72943 0.587227,-1.31666 1.316653,-1.31666 z" /><path
       id="rect1-8-9-2-1-8-8"
       clip-path="none"
       style="fill:#454545;stroke-width:0.0327898"
       d="m 36.276503,138.35716 h 16.969523 c 0.729426,0 1.316653,0.58723 1.316653,1.31666 v 1.59753 c 0,0.72943 -0.587227,1.31666 -1.316653,1.31666 H 36.276503 c -0.729425,0 -1.316653,-0.58723 -1.316653,-1.31666 v -1.59753 c 0,-0.72943 0.587228,-1.31666 1.316653,-1.31666 z" /><path
       id="rect1-8-9-2-1-6"
       clip-path="none"
       style="fill:#454545;stroke-width:0.0266225"
       d="M 7.8338276,144.35719 H 18.122787 c 0.729426,0 1.316653,0.58723 1.316653,1.31666 v 1.59753 c 0,0.72943 -0.587227,1.31666 -1.316653,1.31666 H 7.8338276 c -0.7294257,0 -1.3166529,-0.58723 -1.3166529,-1.31666 v -1.59753 c 0,-0.72943 0.5872272,-1.31666 1.3166529,-1.31666 z" /><path
       id="rect1-8-9-2-1-6-3"
       clip-path="none"
       style="fill:#454545;stroke-width:0.0324494"
       d="M 7.8338276,150.35716 H 24.398468 c 0.729426,0 1.316653,0.58723 1.316653,1.31666 v 1.59753 c 0,0.72943 -0.587227,1.31666 -1.316653,1.31666 H 7.8338276 c -0.7294257,0 -1.3166529,-0.58723 -1.3166529,-1.31666 v -1.59753 c 0,-0.72943 0.5872272,-1.31666 1.3166529,-1.31666 z" /><path
       id="rect1-8-9-2-1-8-3"
       clip-path="none"
       style="fill:#454545;stroke-width:0.0306909"
       d="m 22.055169,144.35719 h 14.540226 c 0.729426,0 1.316653,0.58723 1.316653,1.31666 v 1.59753 c 0,0.72943 -0.587227,1.31666 -1.316653,1.31666 H 22.055169 c -0.729426,0 -1.316653,-0.58723 -1.316653,-1.31666 v -1.59753 c 0,-0.72943 0.587227,-1.31666 1.316653,-1.31666 z" /><path
       id="rect1-8-9-2-1-8-8-7"
       clip-path="none"
       style="fill:#454545;stroke-width:0.0331266"
       d="m 40.527773,144.35716 h 17.374406 c 0.729426,0 1.316653,0.58723 1.316653,1.31666 v 1.59753 c 0,0.72943 -0.587227,1.31666 -1.316653,1.31666 H 40.527773 c -0.729425,0 -1.316652,-0.58723 -1.316652,-1.31666 v -1.59753 c 0,-0.72943 0.587227,-1.31666 1.316652,-1.31666 z" /><path
       id="rect1-8-9-2-23"
       clip-path="none"
       style="fill:#454545;stroke-width:0.037751"
       d="m 7.479428,89.356949 h 33.628827 c 0.533088,0 0.962253,0.429165 0.962253,0.962253 v 1.167533 c 0,0.533088 -0.429165,0.962253 -0.962253,0.962253 H 7.479428 c -0.5330883,0 -0.9622533,-0.429165 -0.9622533,-0.962253 v -1.167533 c 0,-0.533088 0.429165,-0.962253 0.9622533,-0.962253 z" /><path
       id="rect1-8-9-2-23-4"
       clip-path="none"
       style="fill:#454545;stroke-width:0.045741"
       d="m 7.479428,94.356964 h 50.271378 c 0.533088,0 0.962253,0.429165 0.962253,0.962253 v 1.167533 c 0,0.533088 -0.429165,0.962253 -0.962253,0.962253 H 7.479428 c -0.5330883,0 -0.9622533,-0.429165 -0.9622533,-0.962253 v -1.167533 c 0,-0.533088 0.429165,-0.962253 0.9622533,-0.962253 z" /><path
       id="rect1-8-9-2-23-4-8"
       clip-path="none"
       style="fill:#454545;stroke-width:0.026694"
       d="m 7.479428,99.356964 h 15.85216 c 0.533088,0 0.962253,0.429165 0.962253,0.962256 v 1.16753 c 0,0.53309 -0.429165,0.96225 -0.962253,0.96225 H 7.479428 c -0.5330883,0 -0.9622533,-0.42916 -0.9622533,-0.96225 v -1.16753 c 0,-0.533091 0.429165,-0.962256 0.9622533,-0.962256 z" /><path
       id="rect1-8-9-2-23-4-8-2"
       clip-path="none"
       style="fill:#454545;stroke-width:0.026694"
       d="m 25.256103,132.03044 h 15.85216 c 0.533089,0 0.962254,0.42917 0.962254,0.96225 v 1.16754 c 0,0.53309 -0.429165,0.96225 -0.962254,0.96225 h -15.85216 c -0.533088,0 -0.962253,-0.42916 -0.962253,-0.96225 v -1.16754 c 0,-0.53308 0.429165,-0.96225 0.962253,-0.96225 z" /><path
       id="rect1-8-9-2-2"
       clip-path="none"
       style="fill:#595959;stroke-width:0.0424426"
       d="m 85.905267,98.644173 h 14.845253 c 1.2399,0 2.23809,0.998189 2.23809,2.238087 v 2.71555 c 0,1.23991 -0.99819,2.2381 -2.23809,2.2381 H 85.905267 c -1.239903,0 -2.238092,-0.99819 -2.238092,-2.2381 v -2.71555 c 0,-1.239898 0.998189,-2.238087 2.238092,-2.238087 z" /><path
       id="rect1-8-9-2-2-9"
       clip-path="none"
       style="fill:#595959;stroke-width:0.0743698"
       d="M 9.0068023,109.35696 H 57.357549 c 1.379254,0 2.489628,1.11037 2.489628,2.48962 v 3.02075 c 0,1.37925 -1.110374,2.48963 -2.489628,2.48963 H 9.0068023 c -1.3792537,0 -2.4896276,-1.11038 -2.4896276,-2.48963 v -3.02075 c 0,-1.37925 1.1103739,-2.48962 2.4896276,-2.48962 z" /><path
       id="rect1-8-9-2-2-9-0"
       clip-path="none"
       style="fill:#595959;stroke-width:0.0743698"
       d="M 9.0068023,119.35706 H 57.357549 c 1.379254,0 2.489628,1.11038 2.489628,2.48963 v 3.02075 c 0,1.37925 -1.110374,2.48962 -2.489628,2.48962 H 9.0068023 c -1.3792537,0 -2.4896276,-1.11037 -2.4896276,-2.48962 v -3.02075 c 0,-1.37925 1.1103739,-2.48963 2.4896276,-2.48963 z" /><path
       id="rect1-8-9-2-2-1"
       clip-path="none"
       style="fill:#595959;stroke-width:0.0424426"
       d="m 106.40527,98.644173 h 14.84525 c 1.23991,0 2.2381,0.998189 2.2381,2.238087 v 2.71555 c 0,1.23991 -0.99819,2.2381 -2.2381,2.2381 h -14.84525 c -1.2399,0 -2.23809,-0.99819 -2.23809,-2.2381 v -2.71555 c 0,-1.239898 0.99819,-2.238087 2.23809,-2.238087 z" /><path
       id="rect1-8"
       clip-path="none"
       style="fill:#00388e;stroke-width:0.268244;fill-opacity:1"
       d="M 65.881524,6.6441717 H 196.20927 c 1.4901,0 2.68971,1.1996106 2.68971,2.6897099 V 44.854784 c 0,1.490099 -1.19961,2.68971 -2.68971,2.68971 H 65.881524 c -1.490099,0 -2.68971,-1.199611 -2.68971,-2.68971 V 9.3338816 c 0,-1.4900993 1.199611,-2.6897099 2.68971,-2.6897099 z" /><path
       id="rect1-8-9-1-8"
       clip-path="none"
       style="fill:#454545;stroke-width:0.135529"
       d="M 65.960394,122.215 H 196.08077 c 1.54754,0 2.7934,1.24585 2.7934,2.79339 v 4.85394 c 0,1.54754 -1.24586,2.79339 -2.7934,2.79339 H 65.960394 c -1.54754,0 -2.793394,-1.24585 -2.793394,-2.79339 v -4.85394 c 0,-1.54754 1.245854,-2.79339 2.793394,-2.79339 z" /></g></svg>
