<?xml version="1.0" encoding="UTF-8" standalone="no"?>
<!-- Created with Inkscape (http://www.inkscape.org/) -->

<svg
   width="205mm"
   height="180mm"
   viewBox="0 0 205 180"
   version="1.1"
   id="svg1"
   xml:space="preserve"
   inkscape:version="1.3 (0e150ed6c4, 2023-07-21)"
   sodipodi:docname="layout 2.svg"
   xmlns:inkscape="http://www.inkscape.org/namespaces/inkscape"
   xmlns:sodipodi="http://sodipodi.sourceforge.net/DTD/sodipodi-0.dtd"
   xmlns="http://www.w3.org/2000/svg"
   xmlns:svg="http://www.w3.org/2000/svg"><sodipodi:namedview
     id="namedview1"
     pagecolor="#505050"
     bordercolor="#eeeeee"
     borderopacity="1"
     inkscape:showpageshadow="0"
     inkscape:pageopacity="0"
     inkscape:pagecheckerboard="0"
     inkscape:deskcolor="#505050"
     inkscape:document-units="mm"
     inkscape:zoom="0.82142635"
     inkscape:cx="320.78348"
     inkscape:cy="339.65309"
     inkscape:window-width="1536"
     inkscape:window-height="890"
     inkscape:window-x="-6"
     inkscape:window-y="-6"
     inkscape:window-maximized="1"
     inkscape:current-layer="layer1"
     showguides="true" /><defs
     id="defs1" /><g
     inkscape:label="Layer 1"
     inkscape:groupmode="layer"
     id="layer1"><path
       id="rect1-8-9-2-23-7"
       clip-path="none"
       style="fill:#454545;stroke-width:0.0331911"
       d="m 13.805245,159.66757 h 29.566856 c 0.468697,0 0.846024,0.37732 0.846024,0.84602 v 1.02651 c 0,0.4687 -0.377327,0.84602 -0.846024,0.84602 H 13.805245 c -0.468697,0 -0.846024,-0.37732 -0.846024,-0.84602 v -1.02651 c 0,-0.4687 0.377327,-0.84602 0.846024,-0.84602 z" /><path
       id="rect1-8-9-2-23-4-1"
       clip-path="none"
       style="fill:#454545;stroke-width:0.040216"
       d="m 13.805245,164.06363 h 44.19918 c 0.468698,0 0.846024,0.37732 0.846024,0.84602 v 1.0265 c 0,0.4687 -0.377326,0.84603 -0.846024,0.84603 h -44.19918 c -0.468697,0 -0.846024,-0.37733 -0.846024,-0.84603 v -1.0265 c 0,-0.4687 0.377327,-0.84602 0.846024,-0.84602 z" /><path
       id="rect1-8-9-2-23-4-8-9"
       clip-path="none"
       style="fill:#454545;stroke-width:0.0234697"
       d="m 13.805245,168.45969 h 13.937404 c 0.468697,0 0.846024,0.37732 0.846024,0.84602 v 1.0265 c 0,0.4687 -0.377327,0.84602 -0.846024,0.84602 H 13.805245 c -0.468697,0 -0.846024,-0.37732 -0.846024,-0.84602 v -1.0265 c 0,-0.4687 0.377327,-0.84602 0.846024,-0.84602 z" /><path
       id="rect1-8-9-1"
       clip-path="none"
       style="fill:#454545;stroke-width:0.127809"
       d="M 66.123541,102.50205 H 188.83172 c 1.45938,0 2.63427,1.17489 2.63427,2.63427 v 4.57744 c 0,1.45939 -1.17489,2.63427 -2.63427,2.63427 H 66.123541 c -1.459385,0 -2.63427,-1.17488 -2.63427,-2.63427 v -4.57744 c 0,-1.45938 1.174885,-2.63427 2.63427,-2.63427 z" /><path
       id="rect1-8-9-2"
       clip-path="none"
       style="fill:#454545;stroke-width:0.0400249"
       d="m 65.599872,91.537339 h 13.999601 c 1.169273,0 2.110601,0.941328 2.110601,2.110593 v 2.560847 c 0,1.169271 -0.941328,2.110595 -2.110601,2.110595 H 65.599872 c -1.169273,0 -2.110601,-0.941324 -2.110601,-2.110595 v -2.560847 c 0,-1.169265 0.941328,-2.110593 2.110601,-2.110593 z" /><path
       id="rect1-8-9-2-1"
       clip-path="none"
       style="fill:#454545;stroke-width:0.0234068"
       d="m 14.116838,140.85974 h 9.046172 c 0.64132,0 1.157617,0.5163 1.157617,1.15762 v 1.40457 c 0,0.64132 -0.516297,1.15762 -1.157617,1.15762 h -9.046172 c -0.64132,0 -1.157617,-0.5163 -1.157617,-1.15762 v -1.40457 c 0,-0.64132 0.516297,-1.15762 1.157617,-1.15762 z" /><path
       id="rect1-8-9-2-1-8"
       clip-path="none"
       style="fill:#454545;stroke-width:0.0234068"
       d="m 26.620406,140.85974 h 9.046173 c 0.64132,0 1.157616,0.5163 1.157616,1.15762 v 1.40457 c 0,0.64132 -0.516296,1.15762 -1.157616,1.15762 h -9.046173 c -0.641319,0 -1.157616,-0.5163 -1.157616,-1.15762 v -1.40457 c 0,-0.64132 0.516297,-1.15762 1.157616,-1.15762 z" /><path
       id="rect1-8-9-2-1-8-8"
       clip-path="none"
       style="fill:#454545;stroke-width:0.0288292"
       d="m 39.123969,140.85974 h 14.919802 c 0.641319,0 1.157616,0.5163 1.157616,1.15762 v 1.40457 c 0,0.64132 -0.516297,1.15762 -1.157616,1.15762 H 39.123969 c -0.641319,0 -1.157617,-0.5163 -1.157617,-1.15762 v -1.40457 c 0,-0.64132 0.516298,-1.15762 1.157617,-1.15762 z" /><path
       id="rect1-8-9-2-1-6"
       clip-path="none"
       style="fill:#454545;stroke-width:0.0234068"
       d="m 14.116838,146.13503 h 9.046172 c 0.64132,0 1.157617,0.5163 1.157617,1.15763 v 1.40456 c 0,0.64133 -0.516297,1.15763 -1.157617,1.15763 h -9.046172 c -0.64132,0 -1.157617,-0.5163 -1.157617,-1.15763 v -1.40456 c 0,-0.64133 0.516297,-1.15763 1.157617,-1.15763 z" /><path
       id="rect1-8-9-2-1-6-3"
       clip-path="none"
       style="fill:#454545;stroke-width:0.0285299"
       d="m 14.116838,151.41028 h 14.563824 c 0.64132,0 1.157617,0.5163 1.157617,1.15762 v 1.40457 c 0,0.64132 -0.516297,1.15762 -1.157617,1.15762 H 14.116838 c -0.64132,0 -1.157617,-0.5163 -1.157617,-1.15762 v -1.40457 c 0,-0.64132 0.516297,-1.15762 1.157617,-1.15762 z" /><path
       id="rect1-8-9-2-1-8-3"
       clip-path="none"
       style="fill:#454545;stroke-width:0.0269838"
       d="m 26.620406,146.13503 h 12.783936 c 0.64132,0 1.157617,0.5163 1.157617,1.15763 v 1.40456 c 0,0.64133 -0.516297,1.15763 -1.157617,1.15763 H 26.620406 c -0.641319,0 -1.157616,-0.5163 -1.157616,-1.15763 v -1.40456 c 0,-0.64133 0.516297,-1.15763 1.157616,-1.15763 z" /><path
       id="rect1-8-9-2-1-8-8-7"
       clip-path="none"
       style="fill:#454545;stroke-width:0.0291253"
       d="m 42.861735,146.13501 h 15.275779 c 0.64132,0 1.157617,0.5163 1.157617,1.15762 v 1.40457 c 0,0.64132 -0.516297,1.15762 -1.157617,1.15762 H 42.861735 c -0.641319,0 -1.157616,-0.5163 -1.157616,-1.15762 v -1.40457 c 0,-0.64132 0.516297,-1.15762 1.157616,-1.15762 z" /><path
       id="rect1-8-9-2-23"
       clip-path="none"
       style="fill:#454545;stroke-width:0.0331911"
       d="m 13.805245,118.71449 h 29.566856 c 0.468697,0 0.846024,0.37732 0.846024,0.84602 v 1.02652 c 0,0.46869 -0.377327,0.84603 -0.846024,0.84603 H 13.805245 c -0.468697,0 -0.846024,-0.37734 -0.846024,-0.84603 v -1.02652 c 0,-0.4687 0.377327,-0.84602 0.846024,-0.84602 z" /><path
       id="rect1-8-9-2-23-4"
       clip-path="none"
       style="fill:#454545;stroke-width:0.040216"
       d="m 13.805245,123.11058 h 44.19918 c 0.468698,0 0.846024,0.37733 0.846024,0.84603 v 1.02652 c 0,0.4687 -0.377326,0.84603 -0.846024,0.84603 h -44.19918 c -0.468697,0 -0.846024,-0.37733 -0.846024,-0.84603 v -1.02652 c 0,-0.4687 0.377327,-0.84603 0.846024,-0.84603 z" /><path
       id="rect1-8-9-2-23-4-8"
       clip-path="none"
       style="fill:#454545;stroke-width:0.0234697"
       d="m 13.805245,127.50667 h 13.937404 c 0.468697,0 0.846024,0.37733 0.846024,0.84603 v 1.0265 c 0,0.4687 -0.377327,0.84603 -0.846024,0.84603 H 13.805245 c -0.468697,0 -0.846024,-0.37733 -0.846024,-0.84603 v -1.0265 c 0,-0.4687 0.377327,-0.84603 0.846024,-0.84603 z" /><path
       id="rect1-8-9-2-23-4-8-2"
       clip-path="none"
       style="fill:#454545;stroke-width:0.0234697"
       d="m 29.434705,135.29721 h 13.937403 c 0.468698,0 0.846025,0.37733 0.846025,0.84602 v 1.02652 c 0,0.4687 -0.377327,0.84602 -0.846025,0.84602 H 29.434705 c -0.468697,0 -0.846024,-0.37732 -0.846024,-0.84602 v -1.02652 c 0,-0.46869 0.377327,-0.84602 0.846024,-0.84602 z" /><path
       id="rect1-8-9-2-2"
       clip-path="none"
       style="fill:#595959;stroke-width:0.0400249"
       d="m 84.932103,91.537339 h 13.999605 c 1.169272,0 2.110602,0.941328 2.110602,2.110593 v 2.560847 c 0,1.169271 -0.94133,2.110595 -2.110602,2.110595 H 84.932103 c -1.169273,0 -2.110601,-0.941324 -2.110601,-2.110595 v -2.560847 c 0,-1.169265 0.941328,-2.110593 2.110601,-2.110593 z" /><path
       id="rect1-8-9-2-2-9"
       clip-path="none"
       style="fill:#595959;stroke-width:0.0653868"
       d="m 15.148131,100.00914 h 42.510538 c 1.212656,0 2.18891,0.97624 2.18891,2.18889 v 2.65586 c 0,1.21265 -0.976254,2.1889 -2.18891,2.1889 H 15.148131 c -1.212656,0 -2.18891,-0.97625 -2.18891,-2.1889 v -2.65586 c 0,-1.21265 0.976254,-2.18889 2.18891,-2.18889 z" /><path
       id="rect1-8-9-2-2-9-0"
       clip-path="none"
       style="fill:#595959;stroke-width:0.0653868"
       d="m 15.148131,108.8013 h 42.510538 c 1.212656,0 2.18891,0.97626 2.18891,2.18891 v 2.65588 c 0,1.21265 -0.976254,2.1889 -2.18891,2.1889 H 15.148131 c -1.212656,0 -2.18891,-0.97625 -2.18891,-2.1889 v -2.65588 c 0,-1.21265 0.976254,-2.18891 2.18891,-2.18891 z" /><path
       id="rect1-8-9-2-2-1"
       clip-path="none"
       style="fill:#595959;stroke-width:0.0400249"
       d="m 104.26434,91.537339 h 13.9996 c 1.16928,0 2.11061,0.941328 2.11061,2.110593 v 2.560847 c 0,1.169271 -0.94133,2.110595 -2.11061,2.110595 h -13.9996 c -1.16927,0 -2.1106,-0.941324 -2.1106,-2.110595 v -2.560847 c 0,-1.169265 0.94133,-2.110593 2.1106,-2.110593 z" /><path
       id="rect1-8-9-1-8"
       clip-path="none"
       style="fill:#454545;stroke-width:0.127809"
       d="M 66.123373,113.76544 H 188.83155 c 1.45938,0 2.63427,1.17488 2.63427,2.63427 v 4.57743 c 0,1.45939 -1.17489,2.63427 -2.63427,2.63427 H 66.123373 c -1.459386,0 -2.634271,-1.17488 -2.634271,-2.63427 v -4.57743 c 0,-1.45939 1.174885,-2.63427 2.634271,-2.63427 z" /><path
       id="path2"
       style="fill:#00388e;stroke-width:0.264583"
       d="M 8.0250664,5.5262523 H 195.12386 c 1.54754,0 2.79339,1.2458537 2.79339,2.7933941 V 44.413072 c 0,1.54754 -1.24585,2.793394 -2.79339,2.793394 H 8.0250664 c -1.5475403,0 -2.7933941,-1.245854 -2.7933941,-2.793394 V 8.3196464 c 0,-1.5475404 1.2458538,-2.7933941 2.7933941,-2.7933941 z" /><path
       id="path3"
       style="fill:#454545;stroke-width:0.264583"
       d="M 8.025394,48.683327 H 195.12418 c 1.54754,0 2.7934,1.245853 2.7934,2.793394 v 36.093426 c 0,1.54754 -1.24586,2.793394 -2.7934,2.793394 H 8.025394 c -1.5475404,0 -2.7933941,-1.245854 -2.7933941,-2.793394 V 51.476721 c 0,-1.547541 1.2458537,-2.793394 2.7933941,-2.793394 z" /><path
       id="rect1"
       clip-path="none"
       style="opacity:1;fill:#0051cb;stroke-width:0.206777"
       d="M 17.584758,25.056147 H 55.22497 c 2.562548,0 4.625537,2.06299 4.625537,4.625537 v 61.085857 c 0,2.562548 -2.062989,4.625537 -4.625537,4.625537 H 17.584758 c -2.562547,0 -4.625537,-2.062989 -4.625537,-4.625537 V 29.681684 c 0,-2.562547 2.06299,-4.625537 4.625537,-4.625537 z" /></g></svg>
