<?xml version="1.0" encoding="UTF-8" standalone="no"?>
<!-- Created with Inkscape (http://www.inkscape.org/) -->

<svg
   width="205mm"
   height="180mm"
   viewBox="0 0 205 180"
   version="1.1"
   id="svg1"
   xml:space="preserve"
   inkscape:version="1.3 (0e150ed6c4, 2023-07-21)"
   sodipodi:docname="layout2.svg"
   inkscape:export-filename="layout3.svg"
   inkscape:export-xdpi="96"
   inkscape:export-ydpi="96"
   xmlns:inkscape="http://www.inkscape.org/namespaces/inkscape"
   xmlns:sodipodi="http://sodipodi.sourceforge.net/DTD/sodipodi-0.dtd"
   xmlns="http://www.w3.org/2000/svg"
   xmlns:svg="http://www.w3.org/2000/svg"><sodipodi:namedview
     id="namedview1"
     pagecolor="#505050"
     bordercolor="#eeeeee"
     borderopacity="1"
     inkscape:showpageshadow="0"
     inkscape:pageopacity="0"
     inkscape:pagecheckerboard="0"
     inkscape:deskcolor="#505050"
     inkscape:document-units="mm"
     inkscape:zoom="0.82142635"
     inkscape:cx="320.78348"
     inkscape:cy="339.65309"
     inkscape:window-width="1536"
     inkscape:window-height="890"
     inkscape:window-x="-6"
     inkscape:window-y="-6"
     inkscape:window-maximized="1"
     inkscape:current-layer="layer1"
     showguides="true" /><defs
     id="defs1" /><g
     inkscape:label="Layer 1"
     inkscape:groupmode="layer"
     id="layer1"><path
       id="rect1-8-9-2-23-7"
       clip-path="none"
       style="fill:#454545;stroke-width:0.0363514"
       d="M 6.7861639,164.69077 H 38.700474 c 0.505908,0 0.913193,0.4193 0.913193,0.94015 v 1.14073 c 0,0.52085 -0.407285,0.94016 -0.913193,0.94016 H 6.7861639 c -0.5059091,0 -0.9131939,-0.41931 -0.9131939,-0.94016 v -1.14073 c 0,-0.52085 0.4072848,-0.94015 0.9131939,-0.94015 z" /><path
       id="rect1-8-9-2-23-4-1"
       clip-path="none"
       style="fill:#454545;stroke-width:0.0440453"
       d="M 6.7861639,169.57598 H 54.494527 c 0.50591,0 0.913194,0.4193 0.913194,0.94015 v 1.14072 c 0,0.52085 -0.407284,0.94017 -0.913194,0.94017 H 6.7861639 c -0.5059091,0 -0.9131939,-0.41932 -0.9131939,-0.94017 v -1.14072 c 0,-0.52085 0.4072848,-0.94015 0.9131939,-0.94015 z" /><path
       id="rect1-8-9-2-23-4-8-9"
       clip-path="none"
       style="fill:#454545;stroke-width:0.0257044"
       d="M 6.7861639,174.46119 H 21.830124 c 0.50591,0 0.913194,0.4193 0.913194,0.94015 v 1.14072 c 0,0.52085 -0.407284,0.94016 -0.913194,0.94016 H 6.7861639 c -0.5059091,0 -0.9131939,-0.41931 -0.9131939,-0.94016 v -1.14072 c 0,-0.52085 0.4072848,-0.94015 0.9131939,-0.94015 z" /><path
       id="rect2"
       style="fill:#00388e;stroke-width:0.264583"
       d="M 6.9807243,4.486465 H 196.91005 c 1.54754,0 2.79339,1.2458537 2.79339,2.7933941 V 85.11757 c 0,1.547541 -1.24585,2.793394 -2.79339,2.793394 H 6.9807243 c -1.5475403,0 -2.7933941,-1.245853 -2.7933941,-2.793394 V 7.2798591 c 0,-1.5475404 1.2458538,-2.7933941 2.7933941,-2.7933941 z" /><path
       id="rect1-8-9-1"
       clip-path="none"
       style="fill:#454545;stroke-width:0.139978"
       d="M 63.258258,111.21866 H 195.70882 c 1.57525,0 2.84342,1.30562 2.84342,2.92739 v 5.08677 c 0,1.62177 -1.26817,2.92738 -2.84342,2.92738 H 63.258258 c -1.575252,0 -2.843417,-1.30561 -2.843417,-2.92738 v -5.08677 c 0,-1.62177 1.268165,-2.92739 2.843417,-2.92739 z" /><path
       id="rect1-8-9-2"
       clip-path="none"
       style="fill:#454545;stroke-width:0.043836"
       d="m 62.693013,99.033876 h 15.111096 c 1.262107,0 2.278171,1.046074 2.278171,2.345444 v 2.84581 c 0,1.29939 -1.016064,2.34545 -2.278171,2.34545 H 62.693013 c -1.262107,0 -2.278172,-1.04606 -2.278172,-2.34545 v -2.84581 c 0,-1.29937 1.016065,-2.345444 2.278172,-2.345444 z" /><path
       id="rect1-8-9-2-1"
       clip-path="none"
       style="fill:#454545;stroke-width:0.0256356"
       d="m 7.1224957,144.84852 h 9.7643903 c 0.692237,0 1.249526,0.57375 1.249526,1.28643 v 1.56086 c 0,0.71268 -0.557289,1.28643 -1.249526,1.28643 H 7.1224957 c -0.6922375,0 -1.2495257,-0.57375 -1.2495257,-1.28643 v -1.56086 c 0,-0.71268 0.5572882,-1.28643 1.2495257,-1.28643 z" /><path
       id="rect1-8-9-2-1-8"
       clip-path="none"
       style="fill:#454545;stroke-width:0.0256356"
       d="m 20.618781,144.84852 h 9.764392 c 0.692238,0 1.249525,0.57375 1.249525,1.28643 v 1.56086 c 0,0.71268 -0.557287,1.28643 -1.249525,1.28643 h -9.764392 c -0.692236,0 -1.249524,-0.57375 -1.249524,-1.28643 v -1.56086 c 0,-0.71268 0.557288,-1.28643 1.249524,-1.28643 z" /><path
       id="rect1-8-9-2-1-8-8"
       clip-path="none"
       style="fill:#454545;stroke-width:0.0315742"
       d="m 34.115061,144.84852 h 16.104357 c 0.692236,0 1.249525,0.57375 1.249525,1.28643 v 1.56086 c 0,0.71268 -0.557289,1.28643 -1.249525,1.28643 H 34.115061 c -0.692235,0 -1.249525,-0.57375 -1.249525,-1.28643 v -1.56086 c 0,-0.71268 0.55729,-1.28643 1.249525,-1.28643 z" /><path
       id="rect1-8-9-2-1-6"
       clip-path="none"
       style="fill:#454545;stroke-width:0.0256356"
       d="m 7.1224957,150.71079 h 9.7643903 c 0.692237,0 1.249526,0.57375 1.249526,1.28645 v 1.56084 c 0,0.71269 -0.557289,1.28644 -1.249526,1.28644 H 7.1224957 c -0.6922375,0 -1.2495257,-0.57375 -1.2495257,-1.28644 v -1.56084 c 0,-0.7127 0.5572882,-1.28645 1.2495257,-1.28645 z" /><path
       id="rect1-8-9-2-1-6-3"
       clip-path="none"
       style="fill:#454545;stroke-width:0.0312464"
       d="M 7.1224957,156.57302 H 22.842611 c 0.692238,0 1.249525,0.57375 1.249525,1.28643 v 1.56086 c 0,0.71268 -0.557287,1.28643 -1.249525,1.28643 H 7.1224957 c -0.6922375,0 -1.2495257,-0.57375 -1.2495257,-1.28643 v -1.56086 c 0,-0.71268 0.5572882,-1.28643 1.2495257,-1.28643 z" /><path
       id="rect1-8-9-2-1-8-3"
       clip-path="none"
       style="fill:#454545;stroke-width:0.0295531"
       d="m 20.618781,150.71079 h 13.798914 c 0.692237,0 1.249525,0.57375 1.249525,1.28645 v 1.56084 c 0,0.71269 -0.557288,1.28644 -1.249525,1.28644 H 20.618781 c -0.692236,0 -1.249524,-0.57375 -1.249524,-1.28644 v -1.56084 c 0,-0.7127 0.557288,-1.28645 1.249524,-1.28645 z" /><path
       id="rect1-8-9-2-1-8-8-7"
       clip-path="none"
       style="fill:#454545;stroke-width:0.0318985"
       d="m 38.149587,150.71077 h 16.488596 c 0.692237,0 1.249525,0.57375 1.249525,1.28643 v 1.56086 c 0,0.71268 -0.557288,1.28643 -1.249525,1.28643 H 38.149587 c -0.692237,0 -1.249524,-0.57375 -1.249524,-1.28643 v -1.56086 c 0,-0.71268 0.557287,-1.28643 1.249524,-1.28643 z" /><path
       id="rect1-8-9-2-23"
       clip-path="none"
       style="fill:#454545;stroke-width:0.0363514"
       d="M 6.7861639,120.23917 H 38.700474 c 0.505908,0 0.913193,0.4193 0.913193,0.94016 v 1.14073 c 0,0.52085 -0.407285,0.94017 -0.913193,0.94017 H 6.7861639 c -0.5059091,0 -0.9131939,-0.41932 -0.9131939,-0.94017 v -1.14073 c 0,-0.52086 0.4072848,-0.94016 0.9131939,-0.94016 z" /><path
       id="rect1-8-9-2-23-4"
       clip-path="none"
       style="fill:#454545;stroke-width:0.0440453"
       d="M 6.7861639,125.12441 H 54.494527 c 0.50591,0 0.913194,0.41932 0.913194,0.94017 v 1.14074 c 0,0.52085 -0.407284,0.94017 -0.913194,0.94017 H 6.7861639 c -0.5059091,0 -0.9131939,-0.41932 -0.9131939,-0.94017 v -1.14074 c 0,-0.52085 0.4072848,-0.94017 0.9131939,-0.94017 z" /><path
       id="rect1-8-9-2-23-4-8"
       clip-path="none"
       style="fill:#454545;stroke-width:0.0257044"
       d="M 6.7861639,130.00966 H 21.830124 c 0.50591,0 0.913194,0.41931 0.913194,0.94016 v 1.14072 c 0,0.52085 -0.407284,0.94017 -0.913194,0.94017 H 6.7861639 c -0.5059091,0 -0.9131939,-0.41932 -0.9131939,-0.94017 v -1.14072 c 0,-0.52085 0.4072848,-0.94016 0.9131939,-0.94016 z" /><path
       id="rect1-8-9-2-23-4-8-2"
       clip-path="none"
       style="fill:#454545;stroke-width:0.0257044"
       d="m 23.656521,138.66705 h 15.04396 c 0.50591,0 0.913195,0.41931 0.913195,0.94016 v 1.14073 c 0,0.52086 -0.407285,0.94016 -0.913195,0.94016 h -15.04396 c -0.505909,0 -0.913193,-0.4193 -0.913193,-0.94016 v -1.14073 c 0,-0.52085 0.407284,-0.94016 0.913193,-0.94016 z" /><path
       id="rect1-8-9-2-2"
       clip-path="none"
       style="fill:#595959;stroke-width:0.043836"
       d="m 83.560121,99.033876 h 15.111101 c 1.262103,0 2.278178,1.046074 2.278178,2.345444 v 2.84581 c 0,1.29939 -1.016075,2.34545 -2.278178,2.34545 H 83.560121 c -1.262106,0 -2.278171,-1.04606 -2.278171,-2.34545 v -2.84581 c 0,-1.29937 1.016065,-2.345444 2.278171,-2.345444 z" /><path
       id="rect1-8-9-2-2-9"
       clip-path="none"
       style="fill:#595959;stroke-width:0.0716127"
       d="M 8.2356675,99.452486 H 54.121319 c 1.308935,0 2.362699,1.084854 2.362699,2.432444 v 2.95137 c 0,1.34758 -1.053764,2.43246 -2.362699,2.43246 H 8.2356675 c -1.3089341,0 -2.3626975,-1.08488 -2.3626975,-2.43246 v -2.95137 c 0,-1.34759 1.0537634,-2.432444 2.3626975,-2.432444 z" /><path
       id="rect1-8-9-2-2-9-0"
       clip-path="none"
       style="fill:#595959;stroke-width:0.0716127"
       d="M 8.2356675,109.22294 H 54.121319 c 1.308935,0 2.362699,1.08488 2.362699,2.43247 v 2.9514 c 0,1.34758 -1.053764,2.43246 -2.362699,2.43246 H 8.2356675 c -1.3089341,0 -2.3626975,-1.08488 -2.3626975,-2.43246 v -2.9514 c 0,-1.34759 1.0537634,-2.43247 2.3626975,-2.43247 z" /><path
       id="rect1-8-9-2-2-1"
       clip-path="none"
       style="fill:#595959;stroke-width:0.043836"
       d="m 104.42723,99.033876 h 15.1111 c 1.26211,0 2.27818,1.046074 2.27818,2.345444 v 2.84581 c 0,1.29939 -1.01607,2.34545 -2.27818,2.34545 h -15.1111 c -1.26211,0 -2.27817,-1.04606 -2.27817,-2.34545 v -2.84581 c 0,-1.29937 1.01606,-2.345444 2.27817,-2.345444 z" /><path
       id="rect1-8-9-2-2-8"
       clip-path="none"
       style="fill:#595959;stroke-width:0.0400249"
       d="M 7.9834382,90.694564 H 21.983042 c 1.169272,0 2.110602,0.941328 2.110602,2.110593 v 2.560847 c 0,1.169271 -0.94133,2.110595 -2.110602,2.110595 H 7.9834382 c -1.1692721,0 -2.1105998,-0.941324 -2.1105998,-2.110595 v -2.560847 c 0,-1.169265 0.9413277,-2.110593 2.1105998,-2.110593 z" /><path
       id="rect1-8-9-2-2-1-6"
       clip-path="none"
       style="fill:#595959;stroke-width:0.0400249"
       d="m 27.315674,90.694564 h 13.999598 c 1.16928,0 2.11061,0.941328 2.11061,2.110593 v 2.560847 c 0,1.169271 -0.94133,2.110595 -2.11061,2.110595 H 27.315674 c -1.16927,0 -2.1106,-0.941324 -2.1106,-2.110595 v -2.560847 c 0,-1.169265 0.94133,-2.110593 2.1106,-2.110593 z" /><path
       id="rect1-8-9-1-8"
       clip-path="none"
       style="fill:#454545;stroke-width:0.139978"
       d="M 63.258077,123.73533 H 195.70863 c 1.57525,0 2.84342,1.3056 2.84342,2.92739 v 5.08676 c 0,1.62177 -1.26817,2.92738 -2.84342,2.92738 H 63.258077 c -1.575254,0 -2.843419,-1.30561 -2.843419,-2.92738 v -5.08676 c 0,-1.62179 1.268165,-2.92739 2.843419,-2.92739 z" /><path
       id="path3"
       style="fill:#454545;stroke-width:0.215886"
       d="m 66.33029,35.500143 h 122.66957 c 1.01463,0 1.83147,1.265108 1.83147,2.836568 v 36.651282 c 0,1.571459 -0.81684,2.836568 -1.83147,2.836568 H 66.33029 c -1.014631,0 -1.831463,-1.265109 -1.831463,-2.836568 V 38.336711 c 0,-1.57146 0.816832,-2.836568 1.831463,-2.836568 z" /><path
       id="rect1"
       clip-path="none"
       style="opacity:1;fill:#0051cb;stroke-width:0.206777"
       d="m 14.938923,11.274794 h 37.640212 c 2.562548,0 4.625537,2.06299 4.625537,4.625537 v 61.085857 c 0,2.562548 -2.062989,4.625537 -4.625537,4.625537 H 14.938923 c -2.562547,0 -4.625537,-2.062989 -4.625537,-4.625537 V 15.900331 c 0,-2.562547 2.06299,-4.625537 4.625537,-4.625537 z" /></g></svg>
